{
.appVersion = "939";
copyright = "Copyright 2016 Google Inc. All Rights Reserved.";
customParameters = (
{
name = description;
value = "Designed by Monotype design team.";
},
{
name = license;
value = "This Font Software is licensed under the SIL Open Font License, Version 1.1. This Font Software is distributed on an \"AS IS\" BASIS, WITHOUT WARRANTIES OR CONDITIONS OF ANY KIND, either express or implied. See the SIL Open Font License for the specific language, permissions and limitations governing your use of this Font Software.";
},
{
name = licenseURL;
value = "http://scripts.sil.org/OFL";
},
{
name = vendorID;
value = GOOG;
},
{
name = trademark;
value = "Noto is a trademark of Google Inc.";
},
{
name = fsType;
value = (
);
},
{
name = panose;
value = (
2,
11,
5,
2,
4,
5,
4,
2,
2,
4
);
},
{
name = unicodeRanges;
value = (
53
);
},
{
name = codePageRanges;
value = (
1252
);
},
{
name = glyphOrder;
value = (
.notdef,
null,
uni000D,
space,
exclam,
question,
uni1802,
uni1803,
uni1805,
ZWNJ,
ZWJ,
uni3001,
uni3002,
uniA840,
uniA841,
uniA842,
uniA843,
uniA844,
uniA845,
uniA846,
uniA847,
uniA848,
uniA849,
uniA84A,
uniA84B,
uniA84C,
uniA84D,
uniA84E,
uniA84F,
uniA850,
uniA851,
uniA852,
uniA853,
uniA854,
uniA855,
uniA856,
uniA857,
uniA858,
uniA859,
uniA85A,
uniA85B,
uniA85C,
uniA85D,
uniA85E,
uniA85F,
uniA860,
uniA861,
uniA862,
uniA863,
uniA864,
uniA865,
uniA866,
uniA867,
uniA868,
uniA869,
uniA86A,
uniA86B,
uniA86C,
uniA86D,
uniA86E,
uniA86F,
uniA870,
uniA871,
uniA872,
uniA873,
uniA874,
uniA875,
uniA876,
uniA877,
uniFE00,
uniA85B.fin,
uniA857.ini,
uniA857.med,
uniA84F.ini,
uniA84F.med,
uniA85D.fin,
uniA85D.ini,
uniA85D.ini.cnt,
uniA85D.med,
uniA85B.ini,
uniA85B.med,
uniA85B.ini.cnt,
uniA85D.med.cnt,
uniA85E.ini,
uniA85E.med,
uniA85E.fin,
uniA843.ini,
uniA843.fin,
uniA857.fin,
uniA860.ini,
uniA860.med,
uniA860.fin,
uniA861.med,
uniA861.fin,
uniA861.ini,
uniA85F.ini,
uniA85C.ini,
uniA85C.med,
uniA85F.med,
uniA85F.fin,
uniA840.ini,
uniA840.med,
uniA840.fin,
uniA85C.fin,

glyphs = (
{
glyphname = .notdef;
lastChange = "2016-11-30 01:16:01 +0000";
layers = (
{
layerId = "6DB8F2EA-3A56-43BC-93C3-749D7507B9DF";
paths = (
{
closed = 1;
nodes = (
"1034 0 LINE",
"1034 1462 LINE",
"193 1462 LINE",
"193 0 LINE"
);
},
{
closed = 1;
nodes = (
"297 1358 LINE",
"930 1358 LINE",
"930 104 LINE",
"297 104 LINE"
);
}
);
width = 1229;
}
);
note = .notdef;
},
{
glyphname = exclam;
lastChange = "2016-11-30 01:16:01 +0000";
layers = (
{
layerId = "6DB8F2EA-3A56-43BC-93C3-749D7507B9DF";
paths = (
{
closed = 1;
nodes = (
"334 412 LINE",
"385 1462 LINE",
"166 1462 LINE",
"217 412 LINE"
);
},
{
closed = 1;
nodes = (
"343 -29 OFFCURVE",
"401 14 OFFCURVE",
"401 111 CURVE SMOOTH",
"401 210 OFFCURVE",
"345 248 OFFCURVE",
"274 248 CURVE SMOOTH",
"202 248 OFFCURVE",
"147 210 OFFCURVE",
"147 111 CURVE SMOOTH",
"147 14 OFFCURVE",
"203 -29 OFFCURVE",
"274 -29 CURVE SMOOTH"
);
}
);
width = 551;
}
);
note = exclam;
unicode = 0021;
},
{
glyphname = question;
lastChange = "2016-11-30 01:16:01 +0000";
layers = (
{
layerId = "6DB8F2EA-3A56-43BC-93C3-749D7507B9DF";
paths = (
{
closed = 1;
nodes = (
"430 412 LINE",
"430 446 LINE SMOOTH",
"430 586 OFFCURVE",
"478 640 OFFCURVE",
"631 764 CURVE SMOOTH",
"784 888 OFFCURVE",
"836 988 OFFCURVE",
"836 1124 CURVE SMOOTH",
"836 1345 OFFCURVE",
"691 1483 OFFCURVE",
"428 1483 CURVE SMOOTH",
"286 1483 OFFCURVE",
"152 1449 OFFCURVE",
"25 1382 CURVE",
"88 1239 LINE",
"180 1283 OFFCURVE",
"277 1325 OFFCURVE",
"416 1325 CURVE SMOOTH",
"577 1325 OFFCURVE",
"664 1252 OFFCURVE",
"664 1120 CURVE SMOOTH",
"664 1017 OFFCURVE",
"629 958 OFFCURVE",
"481 833 CURVE SMOOTH",
"332 708 OFFCURVE",
"287 632 OFFCURVE",
"287 467 CURVE SMOOTH",
"287 412 LINE"
);
},
{
closed = 1;
nodes = (
"435 -29 OFFCURVE",
"492 12 OFFCURVE",
"492 111 CURVE SMOOTH",
"492 210 OFFCURVE",
"436 248 OFFCURVE",
"367 248 CURVE SMOOTH",
"282 248 OFFCURVE",
"240 202 OFFCURVE",
"240 111 CURVE SMOOTH",
"240 12 OFFCURVE",
"292 -29 OFFCURVE",
"367 -29 CURVE SMOOTH"
);
}
);
width = 889;
}
);
note = question;
unicode = 003F;
},
{
glyphname = uni1802;
lastChange = "2016-11-30 01:16:01 +0000";
layers = (
{
layerId = "6DB8F2EA-3A56-43BC-93C3-749D7507B9DF";
paths = (
{
closed = 1;
nodes = (
"729 489 OFFCURVE",
"786 532 OFFCURVE",
"786 629 CURVE SMOOTH",
"786 729 OFFCURVE",
"730 766 OFFCURVE",
"657 766 CURVE SMOOTH",
"585 766 OFFCURVE",
"532 729 OFFCURVE",
"532 629 CURVE SMOOTH",
"532 530 OFFCURVE",
"586 489 OFFCURVE",
"657 489 CURVE SMOOTH"
);
}
);
width = 786;
}
);
note = uni1802;
unicode = 1802;
},
{
glyphname = uni1803;
lastChange = "2016-11-30 01:16:01 +0000";
layers = (
{
layerId = "6DB8F2EA-3A56-43BC-93C3-749D7507B9DF";
paths = (
{
closed = 1;
nodes = (
"1249 489 OFFCURVE",
"1307 532 OFFCURVE",
"1307 629 CURVE SMOOTH",
"1307 729 OFFCURVE",
"1250 766 OFFCURVE",
"1178 766 CURVE SMOOTH",
"1095 766 OFFCURVE",
"1053 720 OFFCURVE",
"1053 629 CURVE SMOOTH",
"1053 530 OFFCURVE",
"1106 489 OFFCURVE",
"1178 489 CURVE SMOOTH"
);
},
{
closed = 1;
nodes = (
"729 489 OFFCURVE",
"786 532 OFFCURVE",
"786 629 CURVE SMOOTH",
"786 729 OFFCURVE",
"730 766 OFFCURVE",
"657 766 CURVE SMOOTH",
"585 766 OFFCURVE",
"532 729 OFFCURVE",
"532 629 CURVE SMOOTH",
"532 530 OFFCURVE",
"586 489 OFFCURVE",
"657 489 CURVE SMOOTH"
);
}
);
width = 1307;
}
);
note = uni1803;
unicode = 1803;
},
{
glyphname = uni1805;
lastChange = "2016-11-30 01:16:01 +0000";
layers = (
{
layerId = "6DB8F2EA-3A56-43BC-93C3-749D7507B9DF";
paths = (
{
closed = 1;
nodes = (
"665 899 OFFCURVE",
"723 942 OFFCURVE",
"723 1038 CURVE SMOOTH",
"723 1138 OFFCURVE",
"666 1176 OFFCURVE",
"594 1176 CURVE SMOOTH",
"522 1176 OFFCURVE",
"469 1138 OFFCURVE",
"469 1038 CURVE SMOOTH",
"469 941 OFFCURVE",
"523 899 OFFCURVE",
"594 899 CURVE SMOOTH"
);
},
{
closed = 1;
nodes = (
"665 80 OFFCURVE",
"723 122 OFFCURVE",
"723 219 CURVE SMOOTH",
"723 319 OFFCURVE",
"666 356 OFFCURVE",
"594 356 CURVE SMOOTH",
"522 356 OFFCURVE",
"469 319 OFFCURVE",
"469 219 CURVE SMOOTH",
"469 122 OFFCURVE",
"523 80 OFFCURVE",
"594 80 CURVE SMOOTH"
);
},
{
closed = 1;
nodes = (
"344 489 OFFCURVE",
"401 532 OFFCURVE",
"401 629 CURVE SMOOTH",
"401 729 OFFCURVE",
"345 766 OFFCURVE",
"272 766 CURVE SMOOTH",
"200 766 OFFCURVE",
"147 729 OFFCURVE",
"147 629 CURVE SMOOTH",
"147 530 OFFCURVE",
"201 489 OFFCURVE",
"272 489 CURVE SMOOTH"
);
},
{
closed = 1;
nodes = (
"987 489 OFFCURVE",
"1044 532 OFFCURVE",
"1044 629 CURVE SMOOTH",
"1044 729 OFFCURVE",
"988 766 OFFCURVE",
"915 766 CURVE SMOOTH",
"832 766 OFFCURVE",
"791 720 OFFCURVE",
"791 629 CURVE SMOOTH",
"791 530 OFFCURVE",
"844 489 OFFCURVE",
"915 489 CURVE SMOOTH"
);
}
);
width = 1192;
}
);
note = uni1805;
unicode = 1805;
},
{
glyphname = ZWNJ;
lastChange = "2016-11-30 01:16:01 +0000";
layers = (
{
layerId = "6DB8F2EA-3A56-43BC-93C3-749D7507B9DF";
paths = (
{
closed = 1;
nodes = (
"36 0 LINE",
"36 1484 LINE",
"-36 1484 LINE",
"-36 0 LINE"
);
}
);
width = 0;
}
);
note = ZWNJ;
unicode = 200C;
},
{
glyphname = ZWJ;
lastChange = "2016-11-30 01:16:01 +0000";
layers = (
{
layerId = "6DB8F2EA-3A56-43BC-93C3-749D7507B9DF";
paths = (
{
closed = 1;
nodes = (
"36 0 LINE",
"36 1185 LINE",
"170 1049 LINE",
"219 1098 LINE",
"48 1267 LINE",
"219 1435 LINE",
"170 1484 LINE",
"0 1313 LINE",
"-170 1484 LINE",
"-219 1435 LINE",
"-48 1267 LINE",
"-219 1098 LINE",
"-170 1049 LINE",
"-36 1185 LINE",
"-36 0 LINE"
);
}
);
width = 0;
}
);
note = ZWJ;
unicode = 200D;
},
{
glyphname = uni3001;
lastChange = "2016-11-30 01:16:01 +0000";
layers = (
{
layerId = "6DB8F2EA-3A56-43BC-93C3-749D7507B9DF";
paths = (
{
closed = 1;
nodes = (
"696 516 OFFCURVE",
"802 609 OFFCURVE",
"938 707 CURVE",
"813 848 LINE",
"720 755 OFFCURVE",
"626 641 OFFCURVE",
"532 508 CURVE",
"621 428 LINE"
);
}
);
width = 938;
}
);
note = uni3001;
unicode = 3001;
},
{
glyphname = uni3002;
lastChange = "2016-11-30 01:16:01 +0000";
layers = (
{
layerId = "6DB8F2EA-3A56-43BC-93C3-749D7507B9DF";
paths = (
{
closed = 1;
nodes = (
"942 365 OFFCURVE",
"1061 480 OFFCURVE",
"1061 629 CURVE SMOOTH",
"1061 774 OFFCURVE",
"944 893 OFFCURVE",
"797 893 CURVE SMOOTH",
"650 893 OFFCURVE",
"532 776 OFFCURVE",
"532 629 CURVE SMOOTH",
"532 478 OFFCURVE",
"650 365 OFFCURVE",
"797 365 CURVE SMOOTH"
);
},
{
closed = 1;
nodes = (
"706 467 OFFCURVE",
"637 536 OFFCURVE",
"637 627 CURVE SMOOTH",
"637 716 OFFCURVE",
"706 788 OFFCURVE",
"797 788 CURVE SMOOTH",
"886 788 OFFCURVE",
"958 716 OFFCURVE",
"958 627 CURVE SMOOTH",
"958 536 OFFCURVE",
"886 467 OFFCURVE",
"797 467 CURVE SMOOTH"
);
}
);
width = 1061;
}
);
note = uni3002;
unicode = 3002;
},
{
glyphname = uniA840;
lastChange = "2016-11-30 01:16:01 +0000";
layers = (
{
layerId = "6DB8F2EA-3A56-43BC-93C3-749D7507B9DF";
paths = (
{
closed = 1;
nodes = (
"295 -115 LINE",
"295 168 LINE",
"633 168 LINE",
"633 -115 LINE",
"784 -115 LINE",
"784 156 LINE",
"921 139 OFFCURVE",
"1047 104 OFFCURVE",
"1163 49 CURVE",
"1163 217 LINE",
"990 288 OFFCURVE",
"794 324 OFFCURVE",
"573 324 CURVE SMOOTH",
"295 324 LINE",
"295 692 LINE",
"1163 692 LINE",
"1163 848 LINE",
"295 848 LINE",
"295 1217 LINE",
"1163 1217 LINE",
"1163 1372 LINE",
"143 1372 LINE",
"143 -115 LINE"
);
}
);
width = 1307;
}
);
note = uniA840;
unicode = A840;
},
{
glyphname = uniA841;
lastChange = "2016-11-30 01:16:01 +0000";
layers = (
{
layerId = "6DB8F2EA-3A56-43BC-93C3-749D7507B9DF";
paths = (
{
closed = 1;
nodes = (
"1356 -115 LINE",
"1341 -62 OFFCURVE",
"1328 -10 OFFCURVE",
"1319 41 CURVE",
"295 41 LINE",
"295 764 LINE",
"561 764 LINE",
"561 311 LINE",
"1253 311 LINE",
"1212 496 OFFCURVE",
"1192 673 OFFCURVE",
"1192 842 CURVE SMOOTH",
"1192 1011 OFFCURVE",
"1212 1187 OFFCURVE",
"1253 1372 CURVE",
"561 1372 LINE",
"561 920 LINE",
"295 920 LINE",
"295 1372 LINE",
"143 1372 LINE",
"143 -115 LINE"
);
},
{
closed = 1;
nodes = (
"713 1217 LINE",
"1069 1217 LINE",
"1050 1106 OFFCURVE",
"1040 981 OFFCURVE",
"1040 842 CURVE SMOOTH",
"1040 703 OFFCURVE",
"1050 578 OFFCURVE",
"1069 467 CURVE",
"713 467 LINE"
);
}
);
width = 1458;
}
);
note = uniA841;
unicode = A841;
},
{
glyphname = uniA842;
lastChange = "2016-11-30 01:16:01 +0000";
layers = (
{
layerId = "6DB8F2EA-3A56-43BC-93C3-749D7507B9DF";
paths = (
{
closed = 1;
nodes = (
"295 -115 LINE",
"295 338 LINE",
"561 338 LINE",
"561 -115 LINE",
"1253 -115 LINE",
"1212 70 OFFCURVE",
"1192 247 OFFCURVE",
"1192 416 CURVE SMOOTH",
"1192 585 OFFCURVE",
"1212 761 OFFCURVE",
"1253 946 CURVE",
"561 946 LINE",
"561 494 LINE",
"295 494 LINE",
"295 1217 LINE",
"1319 1217 LINE",
"1328 1267 OFFCURVE",
"1341 1319 OFFCURVE",
"1356 1372 CURVE",
"143 1372 LINE",
"143 -115 LINE"
);
},
{
closed = 1;
nodes = (
"713 791 LINE",
"1069 791 LINE",
"1050 680 OFFCURVE",
"1040 555 OFFCURVE",
"1040 416 CURVE SMOOTH",
"1040 277 OFFCURVE",
"1050 152 OFFCURVE",
"1069 41 CURVE",
"713 41 LINE"
);
}
);
width = 1458;
}
);
note = uniA842;
unicode = A842;
},
{
glyphname = uniA843;
lastChange = "2016-11-30 01:16:01 +0000";
layers = (
{
layerId = "6DB8F2EA-3A56-43BC-93C3-749D7507B9DF";
paths = (
{
closed = 1;
nodes = (
"295 -115 LINE",
"295 1217 LINE",
"643 1217 LINE",
"643 -115 LINE",
"1343 -115 LINE",
"1290 78 OFFCURVE",
"1264 297 OFFCURVE",
"1264 541 CURVE SMOOTH",
"1264 876 OFFCURVE",
"1303 1089 OFFCURVE",
"1427 1372 CURVE",
"1262 1372 LINE",
"1158 1132 OFFCURVE",
"1112 877 OFFCURVE",
"1112 541 CURVE SMOOTH",
"1112 354 OFFCURVE",
"1126 187 OFFCURVE",
"1153 41 CURVE",
"795 41 LINE",
"795 1372 LINE",
"143 1372 LINE",
"143 -115 LINE"
);
}
);
width = 1530;
}
);
note = uniA843;
unicode = A843;
},
{
glyphname = uniA844;
lastChange = "2016-11-30 01:16:01 +0000";
layers = (
{
layerId = "6DB8F2EA-3A56-43BC-93C3-749D7507B9DF";
paths = (
{
closed = 1;
nodes = (
"295 -115 LINE",
"295 1217 LINE",
"643 1217 LINE",
"643 -115 LINE",
"1343 -115 LINE",
"1290 78 OFFCURVE",
"1264 297 OFFCURVE",
"1264 541 CURVE SMOOTH",
"1264 876 OFFCURVE",
"1303 1089 OFFCURVE",
"1427 1372 CURVE",
"143 1372 LINE",
"143 -115 LINE"
);
},
{
closed = 1;
nodes = (
"795 1217 LINE",
"1202 1217 LINE",
"1142 1028 OFFCURVE",
"1112 803 OFFCURVE",
"1112 541 CURVE SMOOTH",
"1112 354 OFFCURVE",
"1126 187 OFFCURVE",
"1153 41 CURVE",
"795 41 LINE"
);
}
);
width = 1530;
}
);
note = uniA844;
unicode = A844;
},
{
glyphname = uniA845;
lastChange = "2016-11-30 01:16:01 +0000";
layers = (
{
layerId = "6DB8F2EA-3A56-43BC-93C3-749D7507B9DF";
paths = (
{
closed = 1;
nodes = (
"295 -115 LINE",
"295 551 LINE",
"561 551 LINE",
"561 -115 LINE",
"1272 -115 LINE",
"1219 81 OFFCURVE",
"1192 300 OFFCURVE",
"1192 541 CURVE SMOOTH",
"1192 868 OFFCURVE",
"1228 1080 OFFCURVE",
"1356 1372 CURVE",
"561 1372 LINE",
"561 707 LINE",
"295 707 LINE",
"295 1372 LINE",
"143 1372 LINE",
"143 -115 LINE"
);
},
{
closed = 1;
nodes = (
"713 551 LINE",
"1040 551 LINE",
"1040 371 OFFCURVE",
"1054 201 OFFCURVE",
"1083 41 CURVE",
"713 41 LINE"
);
},
{
closed = 1;
nodes = (
"713 1217 LINE",
"1130 1217 LINE",
"1085 1070 OFFCURVE",
"1056 900 OFFCURVE",
"1044 707 CURVE",
"713 707 LINE"
);
}
);
width = 1458;
}
);
note = uniA845;
unicode = A845;
},
{
glyphname = uniA846;
lastChange = "2016-11-30 01:15:49 +0000";
layers = (
{
layerId = "6DB8F2EA-3A56-43BC-93C3-749D7507B9DF";
paths = (
{
closed = 1;
nodes = (
"1343 -115 LINE",
"1290 78 OFFCURVE",
"1264 297 OFFCURVE",
"1264 541 CURVE SMOOTH",
"1264 876 OFFCURVE",
"1303 1089 OFFCURVE",
"1427 1372 CURVE",
"1262 1372 LINE",
"1158 1132 OFFCURVE",
"1112 877 OFFCURVE",
"1112 541 CURVE SMOOTH",
"1112 354 OFFCURVE",
"1126 187 OFFCURVE",
"1153 41 CURVE",
"795 41 LINE",
"795 1372 LINE",
"643 1372 LINE",
"643 41 LINE",
"295 41 LINE",
"295 1372 LINE",
"143 1372 LINE",
"143 -115 LINE"
);
}
);
width = 1530;
}
);
note = uniA846;
unicode = A846;
},
{
glyphname = uniA847;
lastChange = "2016-11-30 01:16:01 +0000";
layers = (
{
layerId = "6DB8F2EA-3A56-43BC-93C3-749D7507B9DF";
paths = (
{
closed = 1;
nodes = (
"1122 -115 LINE",
"1122 41 LINE",
"295 41 LINE",
"295 1217 LINE",
"614 1217 LINE",
"614 551 LINE",
"1122 551 LINE",
"1122 707 LINE",
"766 707 LINE",
"766 1217 LINE",
"1122 1217 LINE",
"1122 1372 LINE",
"143 1372 LINE",
"143 -115 LINE"
);
}
);
width = 1266;
}
);
note = uniA847;
unicode = A847;
},
{
glyphname = uniA848;
lastChange = "2016-11-30 01:15:49 +0000";
layers = (
{
layerId = "6DB8F2EA-3A56-43BC-93C3-749D7507B9DF";
paths = (
{
closed = 1;
nodes = (
"1286 -115 LINE",
"1286 41 LINE",
"295 41 LINE",
"295 489 LINE",
"1286 489 LINE",
"1286 645 LINE",
"739 645 LINE",
"670 727 OFFCURVE",
"635 827 OFFCURVE",
"635 946 CURVE SMOOTH",
"635 1093 OFFCURVE",
"727 1169 OFFCURVE",
"850 1169 CURVE SMOOTH",
"960 1169 OFFCURVE",
"1063 1125 OFFCURVE",
"1159 1036 CURVE",
"1222 1157 OFFCURVE",
"1282 1269 OFFCURVE",
"1339 1372 CURVE",
"1167 1372 LINE",
"1108 1260 LINE",
"1033 1309 OFFCURVE",
"947 1333 OFFCURVE",
"850 1333 CURVE SMOOTH",
"629 1333 OFFCURVE",
"475 1171 OFFCURVE",
"475 946 CURVE SMOOTH",
"475 815 OFFCURVE",
"500 730 OFFCURVE",
"563 645 CURVE",
"295 645 LINE",
"295 1372 LINE",
"143 1372 LINE",
"143 -115 LINE"
);
}
);
width = 1430;
}
);
note = uniA848;
unicode = A848;
},
{
glyphname = uniA849;
lastChange = "2016-11-30 01:16:01 +0000";
layers = (
{
layerId = "6DB8F2EA-3A56-43BC-93C3-749D7507B9DF";
paths = (
{
closed = 1;
nodes = (
"295 -115 LINE",
"295 137 LINE",
"394 30 OFFCURVE",
"554 -47 OFFCURVE",
"774 -94 CURVE",
"774 78 LINE",
"901 -47 OFFCURVE",
"1098 -115 OFFCURVE",
"1303 -115 CURVE",
"1250 81 OFFCURVE",
"1223 300 OFFCURVE",
"1223 541 CURVE SMOOTH",
"1223 876 OFFCURVE",
"1262 1089 OFFCURVE",
"1386 1372 CURVE",
"143 1372 LINE",
"143 -115 LINE"
);
},
{
closed = 1;
nodes = (
"482 147 OFFCURVE",
"373 225 OFFCURVE",
"295 340 CURVE",
"295 1217 LINE",
"623 1217 LINE",
"623 104 LINE"
);
},
{
closed = 1;
nodes = (
"966 97 OFFCURVE",
"855 167 OFFCURVE",
"774 274 CURVE",
"774 1217 LINE",
"1161 1217 LINE",
"1101 1028 OFFCURVE",
"1071 803 OFFCURVE",
"1071 541 CURVE SMOOTH",
"1071 360 OFFCURVE",
"1083 202 OFFCURVE",
"1108 66 CURVE"
);
}
);
width = 1489;
}
);
note = uniA849;
unicode = A849;
},
{
glyphname = uniA84A;
lastChange = "2016-11-30 01:16:01 +0000";
layers = (
{
layerId = "6DB8F2EA-3A56-43BC-93C3-749D7507B9DF";
paths = (
{
closed = 1;
nodes = (
"295 -115 LINE",
"295 117 LINE",
"427 -28 OFFCURVE",
"645 -115 OFFCURVE",
"885 -115 CURVE",
"832 81 OFFCURVE",
"805 300 OFFCURVE",
"805 541 CURVE SMOOTH",
"805 868 OFFCURVE",
"841 1080 OFFCURVE",
"969 1372 CURVE",
"803 1372 LINE",
"699 1132 OFFCURVE",
"653 877 OFFCURVE",
"653 541 CURVE SMOOTH",
"653 368 OFFCURVE",
"665 209 OFFCURVE",
"690 66 CURVE",
"522 100 OFFCURVE",
"390 183 OFFCURVE",
"295 315 CURVE",
"295 1372 LINE",
"143 1372 LINE",
"143 -115 LINE"
);
}
);
width = 1071;
}
);
note = uniA84A;
unicode = A84A;
},
{
glyphname = uniA84B;
lastChange = "2016-11-30 01:16:01 +0000";
layers = (
{
layerId = "6DB8F2EA-3A56-43BC-93C3-749D7507B9DF";
paths = (
{
closed = 1;
nodes = (
"1093 -127 OFFCURVE",
"1231 40 OFFCURVE",
"1231 299 CURVE SMOOTH",
"1231 548 OFFCURVE",
"1091 727 OFFCURVE",
"811 836 CURVE",
"911 964 OFFCURVE",
"1051 1091 OFFCURVE",
"1231 1217 CURVE",
"1231 1372 LINE",
"143 1372 LINE",
"143 -115 LINE",
"295 -115 LINE",
"295 1217 LINE",
"809 1217 LINE SMOOTH",
"893 1217 OFFCURVE",
"958 1219 OFFCURVE",
"1004 1223 CURVE",
"1004 1214 LINE",
"660 970 OFFCURVE",
"461 637 OFFCURVE",
"461 313 CURVE SMOOTH",
"461 41 OFFCURVE",
"611 -127 OFFCURVE",
"848 -127 CURVE SMOOTH"
);
},
{
closed = 1;
nodes = (
"705 37 OFFCURVE",
"621 133 OFFCURVE",
"621 313 CURVE SMOOTH",
"621 450 OFFCURVE",
"655 580 OFFCURVE",
"723 705 CURVE",
"971 617 OFFCURVE",
"1071 470 OFFCURVE",
"1071 303 CURVE SMOOTH",
"1071 134 OFFCURVE",
"999 37 OFFCURVE",
"848 37 CURVE SMOOTH"
);
}
);
width = 1374;
}
);
note = uniA84B;
unicode = A84B;
},
{
glyphname = uniA84C;
lastChange = "2016-11-30 01:16:01 +0000";
layers = (
{
layerId = "6DB8F2EA-3A56-43BC-93C3-749D7507B9DF";
paths = (
{
closed = 1;
nodes = (
"295 -115 LINE",
"295 711 LINE",
"643 711 LINE",
"643 -115 LINE",
"1354 -115 LINE",
"1301 81 OFFCURVE",
"1274 300 OFFCURVE",
"1274 541 CURVE SMOOTH",
"1274 868 OFFCURVE",
"1310 1080 OFFCURVE",
"1438 1372 CURVE",
"143 1372 LINE",
"143 1217 LINE",
"1212 1217 LINE",
"1152 1028 OFFCURVE",
"1122 803 OFFCURVE",
"1122 541 CURVE SMOOTH",
"1122 360 OFFCURVE",
"1136 194 OFFCURVE",
"1163 41 CURVE",
"795 41 LINE",
"795 866 LINE",
"143 866 LINE",
"143 -115 LINE"
);
}
);
width = 1540;
}
);
note = uniA84C;
unicode = A84C;
},
{
glyphname = uniA84D;
lastChange = "2016-11-30 01:16:01 +0000";
layers = (
{
layerId = "6DB8F2EA-3A56-43BC-93C3-749D7507B9DF";
paths = (
{
closed = 1;
nodes = (
"295 -115 LINE",
"295 551 LINE",
"643 551 LINE",
"643 -115 LINE",
"1354 -115 LINE",
"1301 81 OFFCURVE",
"1274 300 OFFCURVE",
"1274 541 CURVE SMOOTH",
"1274 868 OFFCURVE",
"1310 1080 OFFCURVE",
"1438 1372 CURVE",
"143 1372 LINE",
"143 -115 LINE"
);
},
{
closed = 1;
nodes = (
"795 707 LINE",
"295 707 LINE",
"295 1217 LINE",
"1212 1217 LINE",
"1152 1028 OFFCURVE",
"1122 803 OFFCURVE",
"1122 541 CURVE SMOOTH",
"1122 360 OFFCURVE",
"1136 194 OFFCURVE",
"1163 41 CURVE",
"795 41 LINE"
);
}
);
width = 1540;
}
);
note = uniA84D;
unicode = A84D;
},
{
glyphname = uniA84E;
lastChange = "2016-11-30 01:16:01 +0000";
layers = (
{
layerId = "6DB8F2EA-3A56-43BC-93C3-749D7507B9DF";
paths = (
{
closed = 1;
nodes = (
"1204 -164 OFFCURVE",
"1311 -24 OFFCURVE",
"1311 213 CURVE SMOOTH",
"1311 270 OFFCURVE",
"1306 333 OFFCURVE",
"1295 402 CURVE SMOOTH",
"1284 470 OFFCURVE",
"1278 537 OFFCURVE",
"1278 602 CURVE SMOOTH",
"1278 898 OFFCURVE",
"1318 1103 OFFCURVE",
"1438 1372 CURVE",
"143 1372 LINE",
"143 -115 LINE",
"295 -115 LINE",
"295 551 LINE",
"401 551 LINE SMOOTH",
"565 551 OFFCURVE",
"647 472 OFFCURVE",
"647 336 CURVE",
"639 205 LINE",
"639 -19 OFFCURVE",
"746 -164 OFFCURVE",
"975 -164 CURVE SMOOTH"
);
},
{
closed = 1;
nodes = (
"854 0 OFFCURVE",
"791 72 OFFCURVE",
"791 205 CURVE",
"799 336 LINE",
"799 571 OFFCURVE",
"666 707 OFFCURVE",
"401 707 CURVE SMOOTH",
"295 707 LINE",
"295 1217 LINE",
"1212 1217 LINE",
"1155 1036 OFFCURVE",
"1126 831 OFFCURVE",
"1126 602 CURVE SMOOTH",
"1126 537 OFFCURVE",
"1132 470 OFFCURVE",
"1143 402 CURVE SMOOTH",
"1154 333 OFFCURVE",
"1159 270 OFFCURVE",
"1159 213 CURVE SMOOTH",
"1159 71 OFFCURVE",
"1098 0 OFFCURVE",
"975 0 CURVE SMOOTH"
);
}
);
width = 1540;
}
);
note = uniA84E;
unicode = A84E;
},
{
glyphname = uniA84F;
lastChange = "2016-11-30 01:16:01 +0000";
layers = (
{
layerId = "6DB8F2EA-3A56-43BC-93C3-749D7507B9DF";
paths = (
{
closed = 1;
nodes = (
"1089 -127 OFFCURVE",
"1231 22 OFFCURVE",
"1231 279 CURVE SMOOTH",
"1231 543 OFFCURVE",
"1086 735 OFFCURVE",
"854 842 CURVE",
"942 965 OFFCURVE",
"1068 1090 OFFCURVE",
"1231 1217 CURVE",
"1231 1372 LINE",
"143 1372 LINE",
"143 1217 LINE",
"809 1217 LINE SMOOTH",
"893 1217 OFFCURVE",
"958 1219 OFFCURVE",
"1004 1223 CURVE",
"1004 1214 LINE",
"889 1127 OFFCURVE",
"789 1020 OFFCURVE",
"705 895 CURVE",
"586 928 OFFCURVE",
"455 944 OFFCURVE",
"311 944 CURVE SMOOTH",
"143 944 LINE",
"143 -115 LINE",
"295 -115 LINE",
"295 788 LINE",
"424 788 OFFCURVE",
"533 777 OFFCURVE",
"623 756 CURVE",
"542 599 OFFCURVE",
"502 444 OFFCURVE",
"502 293 CURVE SMOOTH",
"502 30 OFFCURVE",
"641 -127 OFFCURVE",
"868 -127 CURVE SMOOTH"
);
},
{
closed = 1;
nodes = (
"737 37 OFFCURVE",
"662 126 OFFCURVE",
"662 293 CURVE SMOOTH",
"662 435 OFFCURVE",
"698 574 OFFCURVE",
"770 709 CURVE",
"971 623 OFFCURVE",
"1071 481 OFFCURVE",
"1071 283 CURVE SMOOTH",
"1071 127 OFFCURVE",
"1005 37 OFFCURVE",
"868 37 CURVE SMOOTH"
);
}
);
width = 1374;
}
);
note = uniA84F;
unicode = A84F;
},
{
glyphname = uniA850;
lastChange = "2016-11-30 01:16:01 +0000";
layers = (
{
layerId = "6DB8F2EA-3A56-43BC-93C3-749D7507B9DF";
paths = (
{
closed = 1;
nodes = (
"295 -115 LINE",
"295 551 LINE",
"475 551 LINE",
"514 398 OFFCURVE",
"632 315 OFFCURVE",
"793 315 CURVE SMOOTH",
"848 315 OFFCURVE",
"893 327 OFFCURVE",
"930 350 CURVE",
"874 504 LINE",
"854 487 OFFCURVE",
"827 479 OFFCURVE",
"793 479 CURVE SMOOTH",
"680 479 OFFCURVE",
"623 539 OFFCURVE",
"623 659 CURVE SMOOTH",
"623 786 OFFCURVE",
"705 885 OFFCURVE",
"866 885 CURVE SMOOTH",
"1039 885 OFFCURVE",
"1147 752 OFFCURVE",
"1147 553 CURVE SMOOTH",
"1147 225 OFFCURVE",
"933 41 OFFCURVE",
"565 41 CURVE",
"565 -115 LINE",
"1029 -115 OFFCURVE",
"1307 148 OFFCURVE",
"1307 553 CURVE SMOOTH",
"1307 814 OFFCURVE",
"1166 1000 OFFCURVE",
"958 1040 CURVE",
"958 1217 LINE",
"1286 1217 LINE",
"1286 1372 LINE",
"143 1372 LINE",
"143 -115 LINE"
);
},
{
closed = 1;
nodes = (
"295 1217 LINE",
"807 1217 LINE",
"807 1044 LINE",
"612 1024 OFFCURVE",
"482 890 OFFCURVE",
"465 707 CURVE",
"295 707 LINE"
);
}
);
width = 1430;
}
);
note = uniA850;
unicode = A850;
},
{
glyphname = uniA851;
lastChange = "2016-11-30 01:16:01 +0000";
layers = (
{
layerId = "6DB8F2EA-3A56-43BC-93C3-749D7507B9DF";
paths = (
{
closed = 1;
nodes = (
"295 -115 LINE",
"295 1217 LINE",
"594 1217 LINE SMOOTH",
"629 1217 OFFCURVE",
"662 1218 OFFCURVE",
"692 1221 CURVE",
"692 1214 LINE",
"575 1089 OFFCURVE",
"522 971 OFFCURVE",
"522 815 CURVE SMOOTH",
"522 716 OFFCURVE",
"547 628 OFFCURVE",
"598 551 CURVE",
"788 551 LINE SMOOTH",
"945 551 OFFCURVE",
"1024 479 OFFCURVE",
"1024 336 CURVE SMOOTH",
"1024 161 OFFCURVE",
"909 41 OFFCURVE",
"641 41 CURVE SMOOTH",
"502 41 LINE",
"502 -115 LINE",
"641 -115 LINE SMOOTH",
"1001 -115 OFFCURVE",
"1184 55 OFFCURVE",
"1184 336 CURVE SMOOTH",
"1184 561 OFFCURVE",
"1060 707 OFFCURVE",
"788 707 CURVE SMOOTH",
"705 707 LINE",
"687 736 OFFCURVE",
"678 774 OFFCURVE",
"678 821 CURVE SMOOTH",
"678 958 OFFCURVE",
"748 1090 OFFCURVE",
"887 1217 CURVE",
"1163 1217 LINE",
"1163 1372 LINE",
"143 1372 LINE",
"143 -115 LINE"
);
}
);
width = 1307;
}
);
note = uniA851;
unicode = A851;
},
{
glyphname = uniA852;
lastChange = "2016-11-30 01:16:01 +0000";
layers = (
{
layerId = "6DB8F2EA-3A56-43BC-93C3-749D7507B9DF";
paths = (
{
closed = 1;
nodes = (
"295 -115 LINE",
"295 152 LINE",
"643 152 LINE",
"643 -115 LINE",
"795 -115 LINE",
"795 551 LINE",
"1143 551 LINE",
"1143 -115 LINE",
"1294 -115 LINE",
"1294 553 LINE SMOOTH",
"1294 876 OFFCURVE",
"1331 1089 OFFCURVE",
"1458 1372 CURVE",
"143 1372 LINE",
"143 -115 LINE"
);
},
{
closed = 1;
nodes = (
"295 1217 LINE",
"1233 1217 LINE",
"1184 1065 OFFCURVE",
"1154 895 OFFCURVE",
"1145 707 CURVE",
"643 707 LINE",
"643 307 LINE",
"295 307 LINE"
);
}
);
width = 1561;
}
);
note = uniA852;
unicode = A852;
},
{
glyphname = uniA853;
lastChange = "2016-11-30 01:16:01 +0000";
layers = (
{
layerId = "6DB8F2EA-3A56-43BC-93C3-749D7507B9DF";
paths = (
{
closed = 1;
nodes = (
"1475 -115 LINE",
"1460 -62 OFFCURVE",
"1447 -10 OFFCURVE",
"1438 41 CURVE",
"295 41 LINE",
"295 731 LINE",
"553 731 LINE",
"553 246 LINE",
"705 246 LINE",
"705 602 LINE",
"868 397 OFFCURVE",
"1156 246 OFFCURVE",
"1397 246 CURVE",
"1350 423 OFFCURVE",
"1327 611 OFFCURVE",
"1327 809 CURVE SMOOTH",
"1327 1007 OFFCURVE",
"1350 1195 OFFCURVE",
"1397 1372 CURVE",
"1158 1372 OFFCURVE",
"877 1229 OFFCURVE",
"705 1014 CURVE",
"705 1372 LINE",
"553 1372 LINE",
"553 887 LINE",
"295 887 LINE",
"295 1372 LINE",
"143 1372 LINE",
"143 -115 LINE"
);
},
{
closed = 1;
nodes = (
"1017 493 OFFCURVE",
"833 629 OFFCURVE",
"705 809 CURVE",
"833 986 OFFCURVE",
"1017 1123 OFFCURVE",
"1202 1178 CURVE",
"1185 1065 OFFCURVE",
"1176 942 OFFCURVE",
"1176 809 CURVE SMOOTH",
"1176 677 OFFCURVE",
"1185 553 OFFCURVE",
"1202 438 CURVE"
);
}
);
width = 1577;
}
);
note = uniA853;
unicode = A853;
},
{
glyphname = uniA854;
lastChange = "2016-11-30 01:16:01 +0000";
layers = (
{
layerId = "6DB8F2EA-3A56-43BC-93C3-749D7507B9DF";
paths = (
{
closed = 1;
nodes = (
"1300 -115 LINE",
"1300 41 LINE",
"295 41 LINE",
"295 1217 LINE",
"459 1217 LINE SMOOTH",
"570 1217 OFFCURVE",
"660 1204 OFFCURVE",
"729 1178 CURVE",
"585 1041 OFFCURVE",
"502 856 OFFCURVE",
"502 651 CURVE SMOOTH",
"502 395 OFFCURVE",
"641 242 OFFCURVE",
"868 242 CURVE SMOOTH",
"1095 242 OFFCURVE",
"1235 395 OFFCURVE",
"1235 651 CURVE SMOOTH",
"1235 856 OFFCURVE",
"1149 1041 OFFCURVE",
"1008 1178 CURVE",
"1074 1204 OFFCURVE",
"1164 1217 OFFCURVE",
"1278 1217 CURVE SMOOTH",
"1300 1217 LINE",
"1300 1372 LINE",
"1264 1372 LINE SMOOTH",
"1105 1372 OFFCURVE",
"983 1347 OFFCURVE",
"868 1282 CURVE",
"753 1347 OFFCURVE",
"632 1372 OFFCURVE",
"473 1372 CURVE SMOOTH",
"143 1372 LINE",
"143 -115 LINE"
);
},
{
closed = 1;
nodes = (
"737 406 OFFCURVE",
"662 487 OFFCURVE",
"662 651 CURVE SMOOTH",
"662 815 OFFCURVE",
"729 969 OFFCURVE",
"868 1090 CURVE",
"1008 969 OFFCURVE",
"1075 815 OFFCURVE",
"1075 651 CURVE SMOOTH",
"1075 487 OFFCURVE",
"1000 406 OFFCURVE",
"868 406 CURVE SMOOTH"
);
}
);
width = 1444;
}
);
note = uniA854;
unicode = A854;
},
{
glyphname = uniA855;
lastChange = "2016-11-30 01:16:01 +0000";
layers = (
{
layerId = "6DB8F2EA-3A56-43BC-93C3-749D7507B9DF";
paths = (
{
closed = 1;
nodes = (
"295 -115 LINE",
"295 1217 LINE",
"643 1217 LINE",
"643 -115 LINE",
"795 -115 LINE",
"795 1217 LINE",
"1202 1217 LINE",
"1142 1028 OFFCURVE",
"1112 803 OFFCURVE",
"1112 541 CURVE SMOOTH",
"1112 297 OFFCURVE",
"1138 78 OFFCURVE",
"1190 -115 CURVE",
"1343 -115 LINE",
"1290 78 OFFCURVE",
"1264 297 OFFCURVE",
"1264 541 CURVE SMOOTH",
"1264 876 OFFCURVE",
"1303 1089 OFFCURVE",
"1427 1372 CURVE",
"143 1372 LINE",
"143 -115 LINE"
);
}
);
width = 1571;
}
);
note = uniA855;
unicode = A855;
},
{
glyphname = uniA856;
lastChange = "2016-11-30 01:16:01 +0000";
layers = (
{
layerId = "6DB8F2EA-3A56-43BC-93C3-749D7507B9DF";
paths = (
{
closed = 1;
nodes = (
"1434 -115 LINE",
"1419 -62 OFFCURVE",
"1406 -10 OFFCURVE",
"1397 41 CURVE",
"295 41 LINE",
"295 1217 LINE",
"643 1217 LINE",
"643 391 LINE",
"1335 391 LINE",
"1294 561 OFFCURVE",
"1274 724 OFFCURVE",
"1274 881 CURVE SMOOTH",
"1274 1038 OFFCURVE",
"1294 1202 OFFCURVE",
"1335 1372 CURVE",
"1182 1372 LINE",
"1142 1226 OFFCURVE",
"1122 1062 OFFCURVE",
"1122 881 CURVE SMOOTH",
"1122 756 OFFCURVE",
"1132 645 OFFCURVE",
"1151 547 CURVE",
"795 547 LINE",
"795 1372 LINE",
"143 1372 LINE",
"143 -115 LINE"
);
}
);
width = 1536;
}
);
note = uniA856;
unicode = A856;
},
{
glyphname = uniA857;
lastChange = "2016-11-30 01:16:01 +0000";
layers = (
{
layerId = "6DB8F2EA-3A56-43BC-93C3-749D7507B9DF";
paths = (
{
closed = 1;
nodes = (
"586 -115 LINE SMOOTH",
"855 -115 OFFCURVE",
"1038 47 OFFCURVE",
"1038 295 CURVE SMOOTH",
"1038 470 OFFCURVE",
"946 602 OFFCURVE",
"797 666 CURVE",
"840 886 OFFCURVE",
"965 1121 OFFCURVE",
"1171 1372 CURVE",
"143 1372 LINE",
"143 1217 LINE",
"868 1217 LINE",
"765 1051 OFFCURVE",
"691 879 OFFCURVE",
"647 702 CURVE",
"629 705 OFFCURVE",
"609 707 OFFCURVE",
"586 707 CURVE SMOOTH",
"143 707 LINE",
"143 551 LINE",
"586 551 LINE SMOOTH",
"767 551 OFFCURVE",
"879 458 OFFCURVE",
"879 295 CURVE SMOOTH",
"879 131 OFFCURVE",
"766 41 OFFCURVE",
"586 41 CURVE SMOOTH",
"143 41 LINE",
"143 -115 LINE"
);
}
);
width = 1212;
}
);
note = uniA857;
unicode = A857;
},
{
glyphname = uniA858;
lastChange = "2016-11-30 01:16:01 +0000";
layers = (
{
layerId = "6DB8F2EA-3A56-43BC-93C3-749D7507B9DF";
paths = (
{
closed = 1;
nodes = (
"295 -115 LINE",
"295 551 LINE",
"653 551 LINE",
"653 300 OFFCURVE",
"679 78 OFFCURVE",
"731 -115 CURVE",
"885 -115 LINE",
"832 81 OFFCURVE",
"805 300 OFFCURVE",
"805 541 CURVE SMOOTH",
"805 868 OFFCURVE",
"841 1080 OFFCURVE",
"969 1372 CURVE",
"803 1372 LINE",
"720 1185 OFFCURVE",
"672 964 OFFCURVE",
"657 707 CURVE",
"295 707 LINE",
"295 1372 LINE",
"143 1372 LINE",
"143 -115 LINE"
);
}
);
width = 1071;
}
);
note = uniA858;
unicode = A858;
},
{
glyphname = uniA859;
lastChange = "2016-11-30 01:15:49 +0000";
layers = (
{
layerId = "6DB8F2EA-3A56-43BC-93C3-749D7507B9DF";
paths = (
{
closed = 1;
nodes = (
"1425 -115 LINE",
"1410 -62 OFFCURVE",
"1398 -10 OFFCURVE",
"1389 41 CURVE",
"295 41 LINE",
"295 778 LINE",
"643 778 LINE",
"643 324 LINE",
"1335 324 LINE",
"1294 501 OFFCURVE",
"1274 675 OFFCURVE",
"1274 846 CURVE SMOOTH",
"1274 1015 OFFCURVE",
"1294 1191 OFFCURVE",
"1335 1372 CURVE",
"143 1372 LINE",
"143 1217 LINE",
"1151 1217 LINE",
"1132 1109 OFFCURVE",
"1122 985 OFFCURVE",
"1122 846 CURVE SMOOTH",
"1122 709 OFFCURVE",
"1132 587 OFFCURVE",
"1151 479 CURVE",
"795 479 LINE",
"795 934 LINE",
"143 934 LINE",
"143 -115 LINE"
);
}
);
width = 1528;
}
);
note = uniA859;
unicode = A859;
},
{
glyphname = uniA85A;
lastChange = "2016-11-30 01:16:01 +0000";
layers = (
{
layerId = "6DB8F2EA-3A56-43BC-93C3-749D7507B9DF";
paths = (
{
closed = 1;
nodes = (
"795 -115 LINE",
"795 711 LINE",
"1151 711 LINE",
"1132 612 OFFCURVE",
"1122 500 OFFCURVE",
"1122 377 CURVE SMOOTH",
"1122 195 OFFCURVE",
"1142 31 OFFCURVE",
"1182 -115 CURVE",
"1335 -115 LINE",
"1294 55 OFFCURVE",
"1274 219 OFFCURVE",
"1274 377 CURVE SMOOTH",
"1274 534 OFFCURVE",
"1294 697 OFFCURVE",
"1335 866 CURVE",
"643 866 LINE",
"643 41 LINE",
"295 41 LINE",
"295 1217 LINE",
"1397 1217 LINE",
"1406 1267 OFFCURVE",
"1419 1319 OFFCURVE",
"1434 1372 CURVE",
"143 1372 LINE",
"143 -115 LINE"
);
}
);
width = 1536;
}
);
note = uniA85A;
unicode = A85A;
},
{
glyphname = uniA85B;
lastChange = "2016-11-30 01:16:01 +0000";
layers = (
{
layerId = "6DB8F2EA-3A56-43BC-93C3-749D7507B9DF";
paths = (
{
closed = 1;
nodes = (
"295 -115 LINE",
"295 186 LINE",
"377 109 OFFCURVE",
"466 36 OFFCURVE",
"563 -33 CURVE",
"730 182 OFFCURVE",
"906 373 OFFCURVE",
"1092 539 CURVE",
"1092 737 LINE",
"907 580 OFFCURVE",
"693 367 OFFCURVE",
"541 176 CURVE",
"461 235 OFFCURVE",
"379 308 OFFCURVE",
"295 395 CURVE",
"504 684 OFFCURVE",
"769 958 OFFCURVE",
"1092 1217 CURVE",
"1092 1372 LINE",
"143 1372 LINE",
"143 1217 LINE",
"655 1217 LINE SMOOTH",
"740 1217 OFFCURVE",
"805 1219 OFFCURVE",
"850 1223 CURVE",
"850 1214 LINE",
"666 1073 OFFCURVE",
"446 841 OFFCURVE",
"295 653 CURVE",
"295 918 LINE",
"143 918 LINE",
"143 -115 LINE"
);
}
);
width = 1235;
}
);
note = uniA85B;
unicode = A85B;
},
{
glyphname = uniA85C;
lastChange = "2016-11-30 01:16:01 +0000";
layers = (
{
layerId = "6DB8F2EA-3A56-43BC-93C3-749D7507B9DF";
paths = (
{
closed = 1;
nodes = (
"295 -115 LINE",
"295 229 LINE",
"429 131 OFFCURVE",
"569 46 OFFCURVE",
"715 -25 CURVE",
"784 121 OFFCURVE",
"872 290 OFFCURVE",
"979 483 CURVE",
"712 600 OFFCURVE",
"635 705 OFFCURVE",
"635 844 CURVE SMOOTH",
"635 1000 OFFCURVE",
"738 1085 OFFCURVE",
"891 1085 CURVE SMOOTH",
"996 1085 OFFCURVE",
"1099 1035 OFFCURVE",
"1200 934 CURVE",
"1292 1110 OFFCURVE",
"1349 1220 OFFCURVE",
"1434 1372 CURVE",
"1262 1372 LINE",
"1153 1165 LINE",
"1078 1221 OFFCURVE",
"990 1249 OFFCURVE",
"891 1249 CURVE SMOOTH",
"648 1249 OFFCURVE",
"475 1081 OFFCURVE",
"475 844 CURVE SMOOTH",
"475 639 OFFCURVE",
"590 507 OFFCURVE",
"770 412 CURVE",
"734 350 OFFCURVE",
"694 273 OFFCURVE",
"651 180 CURVE",
"525 247 OFFCURVE",
"406 327 OFFCURVE",
"295 418 CURVE",
"295 1372 LINE",
"143 1372 LINE",
"143 -115 LINE"
);
}
);
width = 1475;
}
);
note = uniA85C;
unicode = A85C;
},
{
glyphname = uniA85D;
lastChange = "2016-11-30 01:16:01 +0000";
layers = (
{
layerId = "6DB8F2EA-3A56-43BC-93C3-749D7507B9DF";
paths = (
{
closed = 1;
nodes = (
"700 -115 LINE SMOOTH",
"957 -115 OFFCURVE",
"1124 26 OFFCURVE",
"1124 254 CURVE SMOOTH",
"1124 457 OFFCURVE",
"979 608 OFFCURVE",
"772 608 CURVE SMOOTH",
"649 608 OFFCURVE",
"546 554 OFFCURVE",
"483 459 CURVE",
"452 482 OFFCURVE",
"394 533 OFFCURVE",
"309 612 CURVE",
"536 839 OFFCURVE",
"802 1040 OFFCURVE",
"1108 1217 CURVE",
"1108 1372 LINE",
"143 1372 LINE",
"143 1217 LINE",
"643 1217 LINE SMOOTH",
"728 1217 OFFCURVE",
"793 1219 OFFCURVE",
"838 1223 CURVE",
"838 1214 LINE",
"663 1110 OFFCURVE",
"446 944 OFFCURVE",
"295 803 CURVE",
"295 963 LINE",
"143 963 LINE",
"143 270 LINE",
"295 270 LINE",
"295 426 LINE",
"348 379 OFFCURVE",
"422 320 OFFCURVE",
"516 250 CURVE",
"575 379 OFFCURVE",
"660 444 OFFCURVE",
"772 444 CURVE SMOOTH",
"901 444 OFFCURVE",
"965 363 OFFCURVE",
"965 254 CURVE SMOOTH",
"965 121 OFFCURVE",
"872 41 OFFCURVE",
"700 41 CURVE SMOOTH",
"143 41 LINE",
"143 -115 LINE"
);
}
);
width = 1251;
}
);
note = uniA85D;
unicode = A85D;
},
{
glyphname = uniA85E;
lastChange = "2016-11-30 01:16:01 +0000";
layers = (
{
layerId = "6DB8F2EA-3A56-43BC-93C3-749D7507B9DF";
paths = (
{
closed = 1;
nodes = (
"1093 -127 OFFCURVE",
"1231 40 OFFCURVE",
"1231 299 CURVE SMOOTH",
"1231 487 OFFCURVE",
"1143 632 OFFCURVE",
"971 715 CURVE",
"889 584 LINE",
"1024 523 OFFCURVE",
"1071 424 OFFCURVE",
"1071 303 CURVE SMOOTH",
"1071 134 OFFCURVE",
"999 37 OFFCURVE",
"848 37 CURVE SMOOTH",
"705 37 OFFCURVE",
"621 133 OFFCURVE",
"621 313 CURVE SMOOTH",
"621 645 OFFCURVE",
"818 929 OFFCURVE",
"1231 1217 CURVE",
"1231 1372 LINE",
"143 1372 LINE",
"143 -115 LINE",
"295 -115 LINE",
"295 1217 LINE",
"809 1217 LINE SMOOTH",
"893 1217 OFFCURVE",
"958 1219 OFFCURVE",
"1004 1223 CURVE",
"1004 1214 LINE",
"660 970 OFFCURVE",
"461 637 OFFCURVE",
"461 313 CURVE SMOOTH",
"461 41 OFFCURVE",
"611 -127 OFFCURVE",
"848 -127 CURVE SMOOTH"
);
}
);
width = 1374;
}
);
note = uniA85E;
unicode = A85E;
},
{
glyphname = uniA85F;
lastChange = "2016-11-30 01:16:01 +0000";
layers = (
{
layerId = "6DB8F2EA-3A56-43BC-93C3-749D7507B9DF";
paths = (
{
closed = 1;
nodes = (
"295 -115 LINE",
"295 551 LINE",
"524 551 LINE",
"584 384 OFFCURVE",
"711 291 OFFCURVE",
"874 291 CURVE SMOOTH",
"1083 291 OFFCURVE",
"1227 446 OFFCURVE",
"1227 653 CURVE SMOOTH",
"1227 783 OFFCURVE",
"1188 888 OFFCURVE",
"1110 969 CURVE",
"981 868 LINE",
"1036 813 OFFCURVE",
"1067 730 OFFCURVE",
"1067 653 CURVE SMOOTH",
"1067 528 OFFCURVE",
"990 455 OFFCURVE",
"874 455 CURVE SMOOTH",
"743 455 OFFCURVE",
"651 552 OFFCURVE",
"651 768 CURVE SMOOTH",
"651 1033 OFFCURVE",
"803 1223 OFFCURVE",
"1047 1223 CURVE SMOOTH",
"1316 1223 OFFCURVE",
"1483 1006 OFFCURVE",
"1483 686 CURVE SMOOTH",
"1483 277 OFFCURVE",
"1234 41 OFFCURVE",
"791 41 CURVE",
"791 -115 LINE",
"1330 -115 OFFCURVE",
"1642 175 OFFCURVE",
"1642 686 CURVE SMOOTH",
"1642 1094 OFFCURVE",
"1400 1386 OFFCURVE",
"1047 1386 CURVE SMOOTH",
"715 1386 OFFCURVE",
"492 1132 OFFCURVE",
"492 768 CURVE SMOOTH",
"492 737 LINE",
"494 707 LINE",
"295 707 LINE",
"295 1372 LINE",
"143 1372 LINE",
"143 -115 LINE"
);
}
);
width = 1724;
}
);
note = uniA85F;
unicode = A85F;
},
{
glyphname = uniA860;
lastChange = "2016-11-30 01:16:01 +0000";
layers = (
{
layerId = "6DB8F2EA-3A56-43BC-93C3-749D7507B9DF";
paths = (
{
closed = 1;
nodes = (
"295 -115 LINE",
"295 1217 LINE",
"643 1217 LINE",
"643 -115 LINE",
"893 -115 LINE",
"997 234 OFFCURVE",
"1144 536 OFFCURVE",
"1335 791 CURVE",
"1145 791 LINE",
"993 562 OFFCURVE",
"877 316 OFFCURVE",
"797 51 CURVE",
"788 51 LINE",
"793 98 OFFCURVE",
"795 173 OFFCURVE",
"795 276 CURVE SMOOTH",
"795 1217 LINE",
"1352 1217 LINE",
"1352 1372 LINE",
"143 1372 LINE",
"143 -115 LINE"
);
}
);
width = 1495;
}
);
note = uniA860;
unicode = A860;
},
{
glyphname = uniA861;
lastChange = "2016-11-30 01:16:01 +0000";
layers = (
{
layerId = "6DB8F2EA-3A56-43BC-93C3-749D7507B9DF";
paths = (
{
closed = 1;
nodes = (
"295 -115 LINE",
"295 473 LINE",
"480 293 OFFCURVE",
"603 106 OFFCURVE",
"698 -115 CURVE",
"866 -115 LINE",
"750 178 OFFCURVE",
"576 426 OFFCURVE",
"344 629 CURVE",
"575 830 OFFCURVE",
"749 1078 OFFCURVE",
"866 1372 CURVE",
"698 1372 LINE",
"603 1148 OFFCURVE",
"480 963 OFFCURVE",
"295 782 CURVE",
"295 1372 LINE",
"143 1372 LINE",
"143 -115 LINE"
);
}
);
width = 948;
}
);
note = uniA861;
unicode = A861;
},
{
glyphname = uniA862;
lastChange = "2016-11-30 01:16:01 +0000";
layers = (
{
layerId = "6DB8F2EA-3A56-43BC-93C3-749D7507B9DF";
paths = (
{
closed = 1;
nodes = (
"1184 -115 LINE",
"1184 41 LINE",
"295 41 LINE",
"295 596 LINE",
"436 517 OFFCURVE",
"607 489 OFFCURVE",
"827 489 CURVE",
"887 774 OFFCURVE",
"1006 1016 OFFCURVE",
"1184 1217 CURVE",
"1184 1372 LINE",
"143 1372 LINE",
"143 -115 LINE"
);
},
{
closed = 1;
nodes = (
"545 652 OFFCURVE",
"426 680 OFFCURVE",
"295 768 CURVE",
"295 1217 LINE",
"791 1217 LINE SMOOTH",
"871 1217 OFFCURVE",
"941 1218 OFFCURVE",
"1001 1221 CURVE",
"1001 1212 LINE",
"862 1052 OFFCURVE",
"761 839 OFFCURVE",
"717 647 CURVE"
);
}
);
width = 1296;
}
);
note = uniA862;
unicode = A862;
},
{
glyphname = uniA863;
lastChange = "2016-11-30 01:16:01 +0000";
layers = (
{
layerId = "6DB8F2EA-3A56-43BC-93C3-749D7507B9DF";
paths = (
{
closed = 1;
nodes = (
"1368 -115 LINE",
"1353 -62 OFFCURVE",
"1341 -10 OFFCURVE",
"1331 41 CURVE",
"295 41 LINE",
"295 586 LINE",
"396 476 OFFCURVE",
"556 399 OFFCURVE",
"774 356 CURVE",
"774 510 LINE",
"878 417 OFFCURVE",
"1045 339 OFFCURVE",
"1274 336 CURVE",
"1265 405 OFFCURVE",
"1260 480 OFFCURVE",
"1260 561 CURVE SMOOTH",
"1260 878 OFFCURVE",
"1295 1096 OFFCURVE",
"1419 1372 CURVE",
"143 1372 LINE",
"143 -115 LINE"
);
},
{
closed = 1;
nodes = (
"482 597 OFFCURVE",
"373 676 OFFCURVE",
"295 791 CURVE",
"295 1217 LINE",
"623 1217 LINE",
"623 555 LINE"
);
},
{
closed = 1;
nodes = (
"968 540 OFFCURVE",
"857 603 OFFCURVE",
"774 700 CURVE",
"774 1217 LINE",
"1194 1217 LINE",
"1137 1034 OFFCURVE",
"1108 815 OFFCURVE",
"1108 561 CURVE SMOOTH",
"1108 512 LINE"
);
}
);
width = 1522;
}
);
note = uniA863;
unicode = A863;
},
{
glyphname = uniA864;
lastChange = "2016-11-30 01:16:01 +0000";
layers = (
{
layerId = "6DB8F2EA-3A56-43BC-93C3-749D7507B9DF";
paths = (
{
closed = 1;
nodes = (
"295 -115 LINE",
"295 229 LINE",
"429 131 OFFCURVE",
"569 46 OFFCURVE",
"715 -25 CURVE",
"784 121 OFFCURVE",
"872 290 OFFCURVE",
"979 483 CURVE",
"712 600 OFFCURVE",
"635 705 OFFCURVE",
"635 844 CURVE SMOOTH",
"635 985 OFFCURVE",
"717 1065 OFFCURVE",
"829 1065 CURVE SMOOTH",
"946 1065 OFFCURVE",
"1008 1023 OFFCURVE",
"1076 892 CURVE SMOOTH",
"1110 826 OFFCURVE",
"1144 731 OFFCURVE",
"1178 606 CURVE SMOOTH",
"1246 356 OFFCURVE",
"1351 86 OFFCURVE",
"1475 -115 CURVE",
"1724 -115 LINE",
"1712 -40 OFFCURVE",
"1706 55 OFFCURVE",
"1706 172 CURVE SMOOTH",
"1706 633 OFFCURVE",
"1785 992 OFFCURVE",
"1980 1372 CURVE",
"1743 1372 LINE SMOOTH",
"1418 1372 OFFCURVE",
"1229 1303 OFFCURVE",
"1057 1159 CURVE",
"993 1206 OFFCURVE",
"917 1229 OFFCURVE",
"829 1229 CURVE SMOOTH",
"629 1229 OFFCURVE",
"475 1064 OFFCURVE",
"475 844 CURVE SMOOTH",
"475 639 OFFCURVE",
"590 507 OFFCURVE",
"770 412 CURVE",
"734 350 OFFCURVE",
"694 273 OFFCURVE",
"651 180 CURVE",
"525 247 OFFCURVE",
"406 327 OFFCURVE",
"295 418 CURVE",
"295 1372 LINE",
"143 1372 LINE",
"143 -115 LINE"
);
},
{
closed = 1;
nodes = (
"1461 236 OFFCURVE",
"1388 423 OFFCURVE",
"1334 617 CURVE SMOOTH",
"1279 810 OFFCURVE",
"1222 954 OFFCURVE",
"1161 1047 CURVE",
"1290 1160 OFFCURVE",
"1456 1217 OFFCURVE",
"1739 1217 CURVE",
"1614 905 OFFCURVE",
"1554 579 OFFCURVE",
"1554 172 CURVE SMOOTH",
"1554 135 OFFCURVE",
"1557 96 OFFCURVE",
"1563 55 CURVE",
"1554 55 LINE"
);
}
);
width = 2042;
}
);
note = uniA864;
unicode = A864;
},
{
glyphname = uniA865;
lastChange = "2016-11-30 01:16:01 +0000";
layers = (
{
layerId = "6DB8F2EA-3A56-43BC-93C3-749D7507B9DF";
paths = (
{
closed = 1;
nodes = (
"1184 -115 LINE",
"1184 41 LINE",
"1007 240 OFFCURVE",
"888 482 OFFCURVE",
"827 768 CURVE",
"607 768 OFFCURVE",
"436 738 OFFCURVE",
"295 662 CURVE",
"295 1217 LINE",
"1184 1217 LINE",
"1184 1372 LINE",
"143 1372 LINE",
"143 -115 LINE"
);
},
{
closed = 1;
nodes = (
"941 40 OFFCURVE",
"871 41 OFFCURVE",
"791 41 CURVE SMOOTH",
"295 41 LINE",
"295 487 LINE",
"426 575 OFFCURVE",
"545 602 OFFCURVE",
"717 610 CURVE",
"761 419 OFFCURVE",
"862 204 OFFCURVE",
"1001 45 CURVE",
"1001 37 LINE"
);
}
);
width = 1296;
}
);
note = uniA865;
unicode = A865;
},
{
glyphname = uniA866;
lastChange = "2016-11-30 01:15:49 +0000";
layers = (
{
layerId = "6DB8F2EA-3A56-43BC-93C3-749D7507B9DF";
paths = (
{
closed = 1;
nodes = (
"844 -115 LINE",
"791 81 OFFCURVE",
"764 300 OFFCURVE",
"764 541 CURVE SMOOTH",
"764 868 OFFCURVE",
"800 1080 OFFCURVE",
"928 1372 CURVE",
"762 1372 LINE",
"658 1132 OFFCURVE",
"612 877 OFFCURVE",
"612 541 CURVE SMOOTH",
"612 354 OFFCURVE",
"626 188 OFFCURVE",
"655 41 CURVE",
"295 41 LINE",
"295 1372 LINE",
"143 1372 LINE",
"143 -115 LINE"
);
}
);
width = 1030;
}
);
note = uniA866;
unicode = A866;
},
{
glyphname = uniA867;
lastChange = "2016-11-30 01:16:01 +0000";
layers = (
{
layerId = "6DB8F2EA-3A56-43BC-93C3-749D7507B9DF";
paths = (
{
closed = 1;
nodes = (
"707 -115 LINE",
"752 513 OFFCURVE",
"883 991 OFFCURVE",
"1106 1372 CURVE",
"82 1372 LINE",
"94 851 OFFCURVE",
"234 300 OFFCURVE",
"477 -115 CURVE"
);
},
{
closed = 1;
nodes = (
"380 407 OFFCURVE",
"277 777 OFFCURVE",
"242 1217 CURVE",
"852 1217 LINE",
"673 781 OFFCURVE",
"607 467 OFFCURVE",
"571 39 CURVE",
"563 39 LINE"
);
}
);
width = 1167;
}
);
note = uniA867;
unicode = A867;
},
{
glyphname = uniA868;
lastChange = "2016-11-30 01:16:01 +0000";
layers = (
{
layerId = "6DB8F2EA-3A56-43BC-93C3-749D7507B9DF";
paths = (
{
closed = 1;
nodes = (
"223 -115 LINE SMOOTH",
"623 -115 OFFCURVE",
"805 158 OFFCURVE",
"805 733 CURVE SMOOTH",
"805 960 OFFCURVE",
"780 1173 OFFCURVE",
"729 1372 CURVE",
"578 1372 LINE",
"628 1171 OFFCURVE",
"653 960 OFFCURVE",
"653 739 CURVE SMOOTH",
"653 296 OFFCURVE",
"542 61 OFFCURVE",
"295 41 CURVE",
"321 224 OFFCURVE",
"334 423 OFFCURVE",
"334 637 CURVE SMOOTH",
"334 907 OFFCURVE",
"316 1152 OFFCURVE",
"279 1372 CURVE",
"123 1372 LINE",
"162 1144 OFFCURVE",
"182 899 OFFCURVE",
"182 637 CURVE SMOOTH",
"182 361 OFFCURVE",
"164 110 OFFCURVE",
"127 -115 CURVE"
);
}
);
width = 928;
}
);
note = uniA868;
unicode = A868;
},
{
glyphname = uniA869;
lastChange = "2016-11-30 01:16:01 +0000";
layers = (
{
layerId = "6DB8F2EA-3A56-43BC-93C3-749D7507B9DF";
paths = (
{
closed = 1;
nodes = (
"295 -115 LINE",
"295 612 LINE",
"563 612 LINE",
"500 528 OFFCURVE",
"475 443 OFFCURVE",
"475 311 CURVE SMOOTH",
"475 83 OFFCURVE",
"633 -76 OFFCURVE",
"850 -76 CURVE SMOOTH",
"950 -76 OFFCURVE",
"1035 -51 OFFCURVE",
"1106 -2 CURVE",
"1167 -115 LINE",
"1339 -115 LINE",
"1282 -12 OFFCURVE",
"1222 100 OFFCURVE",
"1159 221 CURVE",
"1062 132 OFFCURVE",
"959 88 OFFCURVE",
"850 88 CURVE SMOOTH",
"727 88 OFFCURVE",
"635 164 OFFCURVE",
"635 311 CURVE SMOOTH",
"635 430 OFFCURVE",
"670 530 OFFCURVE",
"739 612 CURVE",
"1286 612 LINE",
"1286 768 LINE",
"295 768 LINE",
"295 1217 LINE",
"1286 1217 LINE",
"1286 1372 LINE",
"143 1372 LINE",
"143 -115 LINE"
);
}
);
width = 1430;
}
);
note = uniA869;
unicode = A869;
},
{
glyphname = uniA86A;
lastChange = "2016-11-30 01:16:01 +0000";
layers = (
{
layerId = "6DB8F2EA-3A56-43BC-93C3-749D7507B9DF";
paths = (
{
closed = 1;
nodes = (
"1386 -115 LINE",
"1261 172 OFFCURVE",
"1223 384 OFFCURVE",
"1223 717 CURVE SMOOTH",
"1223 958 OFFCURVE",
"1250 1176 OFFCURVE",
"1303 1372 CURVE",
"1095 1372 OFFCURVE",
"897 1303 OFFCURVE",
"774 1180 CURVE",
"774 1352 LINE",
"555 1306 OFFCURVE",
"395 1229 OFFCURVE",
"295 1120 CURVE",
"295 1372 LINE",
"143 1372 LINE",
"143 -115 LINE"
);
},
{
closed = 1;
nodes = (
"295 915 LINE",
"376 1033 OFFCURVE",
"486 1112 OFFCURVE",
"623 1151 CURVE",
"623 41 LINE",
"295 41 LINE"
);
},
{
closed = 1;
nodes = (
"774 981 LINE",
"855 1090 OFFCURVE",
"967 1160 OFFCURVE",
"1108 1190 CURVE",
"1083 1053 OFFCURVE",
"1071 895 OFFCURVE",
"1071 717 CURVE SMOOTH",
"1071 454 OFFCURVE",
"1101 228 OFFCURVE",
"1161 41 CURVE",
"774 41 LINE"
);
}
);
width = 1489;
}
);
note = uniA86A;
unicode = A86A;
},
{
glyphname = uniA86B;
lastChange = "2016-11-30 01:16:01 +0000";
layers = (
{
layerId = "6DB8F2EA-3A56-43BC-93C3-749D7507B9DF";
paths = (
{
closed = 1;
nodes = (
"295 -115 LINE",
"295 940 LINE",
"390 1071 OFFCURVE",
"522 1155 OFFCURVE",
"690 1190 CURVE",
"665 1046 OFFCURVE",
"653 888 OFFCURVE",
"653 717 CURVE SMOOTH",
"653 381 OFFCURVE",
"699 126 OFFCURVE",
"803 -115 CURVE",
"969 -115 LINE",
"838 185 OFFCURVE",
"805 390 OFFCURVE",
"805 717 CURVE SMOOTH",
"805 958 OFFCURVE",
"832 1176 OFFCURVE",
"885 1372 CURVE",
"641 1372 OFFCURVE",
"427 1283 OFFCURVE",
"295 1139 CURVE",
"295 1372 LINE",
"143 1372 LINE",
"143 -115 LINE"
);
}
);
width = 1071;
}
);
note = uniA86B;
unicode = A86B;
},
{
glyphname = uniA86C;
lastChange = "2016-11-30 01:16:01 +0000";
layers = (
{
layerId = "6DB8F2EA-3A56-43BC-93C3-749D7507B9DF";
paths = (
{
closed = 1;
nodes = (
"1231 -115 LINE",
"1231 41 LINE",
"1051 166 OFFCURVE",
"911 293 OFFCURVE",
"811 420 CURVE",
"1091 529 OFFCURVE",
"1231 709 OFFCURVE",
"1231 958 CURVE SMOOTH",
"1231 1221 OFFCURVE",
"1088 1384 OFFCURVE",
"848 1384 CURVE SMOOTH",
"611 1384 OFFCURVE",
"461 1217 OFFCURVE",
"461 944 CURVE SMOOTH",
"461 620 OFFCURVE",
"660 287 OFFCURVE",
"1004 43 CURVE",
"1004 35 LINE",
"958 39 OFFCURVE",
"893 41 OFFCURVE",
"809 41 CURVE SMOOTH",
"295 41 LINE",
"295 1372 LINE",
"143 1372 LINE",
"143 -115 LINE"
);
},
{
closed = 1;
nodes = (
"655 674 OFFCURVE",
"621 805 OFFCURVE",
"621 944 CURVE SMOOTH",
"621 1124 OFFCURVE",
"705 1221 OFFCURVE",
"848 1221 CURVE SMOOTH",
"999 1221 OFFCURVE",
"1071 1123 OFFCURVE",
"1071 954 CURVE SMOOTH",
"1071 787 OFFCURVE",
"971 640 OFFCURVE",
"723 553 CURVE"
);
}
);
width = 1374;
}
);
note = uniA86C;
unicode = A86C;
},
{
glyphname = uniA86D;
lastChange = "2016-11-30 01:16:01 +0000";
layers = (
{
layerId = "6DB8F2EA-3A56-43BC-93C3-749D7507B9DF";
paths = (
{
closed = 1;
nodes = (
"252 -33 OFFCURVE",
"370 8 OFFCURVE",
"498 8 CURVE SMOOTH",
"651 8 LINE SMOOTH",
"891 8 OFFCURVE",
"1038 156 OFFCURVE",
"1038 356 CURVE SMOOTH",
"1038 520 OFFCURVE",
"946 637 OFFCURVE",
"799 684 CURVE",
"854 919 OFFCURVE",
"979 1137 OFFCURVE",
"1171 1372 CURVE",
"143 1372 LINE",
"143 1217 LINE",
"868 1217 LINE",
"769 1062 OFFCURVE",
"695 892 OFFCURVE",
"647 707 CURVE",
"498 707 LINE SMOOTH",
"371 707 OFFCURVE",
"252 748 OFFCURVE",
"143 829 CURVE",
"143 662 LINE",
"236 590 OFFCURVE",
"366 551 OFFCURVE",
"498 551 CURVE SMOOTH",
"651 551 LINE SMOOTH",
"795 551 OFFCURVE",
"879 481 OFFCURVE",
"879 356 CURVE SMOOTH",
"879 232 OFFCURVE",
"795 164 OFFCURVE",
"651 164 CURVE SMOOTH",
"498 164 LINE SMOOTH",
"366 164 OFFCURVE",
"236 124 OFFCURVE",
"143 53 CURVE",
"143 -115 LINE"
);
}
);
width = 1212;
}
);
note = uniA86D;
unicode = A86D;
},
{
glyphname = uniA86E;
lastChange = "2016-11-30 01:16:01 +0000";
layers = (
{
layerId = "6DB8F2EA-3A56-43BC-93C3-749D7507B9DF";
paths = (
{
closed = 1;
nodes = (
"795 225 LINE",
"795 711 LINE",
"1151 711 LINE",
"1132 612 OFFCURVE",
"1122 500 OFFCURVE",
"1122 377 CURVE SMOOTH",
"1122 195 OFFCURVE",
"1142 31 OFFCURVE",
"1182 -115 CURVE",
"1335 -115 LINE",
"1294 55 OFFCURVE",
"1274 219 OFFCURVE",
"1274 377 CURVE SMOOTH",
"1274 534 OFFCURVE",
"1294 697 OFFCURVE",
"1335 866 CURVE",
"643 866 LINE",
"643 319 LINE",
"295 137 LINE",
"295 1217 LINE",
"1397 1217 LINE",
"1406 1267 OFFCURVE",
"1419 1319 OFFCURVE",
"1434 1372 CURVE",
"143 1372 LINE",
"143 -115 LINE"
);
}
);
width = 1536;
}
);
note = uniA86E;
unicode = A86E;
},
{
glyphname = uniA86F;
lastChange = "2016-11-30 01:16:01 +0000";
layers = (
{
layerId = "6DB8F2EA-3A56-43BC-93C3-749D7507B9DF";
paths = (
{
closed = 1;
nodes = (
"295 -115 LINE",
"295 229 LINE",
"429 131 OFFCURVE",
"569 46 OFFCURVE",
"715 -25 CURVE",
"784 121 OFFCURVE",
"872 290 OFFCURVE",
"979 483 CURVE",
"712 600 OFFCURVE",
"635 705 OFFCURVE",
"635 844 CURVE SMOOTH",
"635 1000 OFFCURVE",
"738 1085 OFFCURVE",
"891 1085 CURVE SMOOTH",
"1115 1085 OFFCURVE",
"1349 813 OFFCURVE",
"1434 729 CURVE",
"1434 950 LINE",
"1299 1087 OFFCURVE",
"1107 1249 OFFCURVE",
"891 1249 CURVE SMOOTH",
"648 1249 OFFCURVE",
"475 1081 OFFCURVE",
"475 844 CURVE SMOOTH",
"475 639 OFFCURVE",
"590 507 OFFCURVE",
"770 412 CURVE",
"734 350 OFFCURVE",
"694 273 OFFCURVE",
"651 180 CURVE",
"525 247 OFFCURVE",
"406 327 OFFCURVE",
"295 418 CURVE",
"295 1372 LINE",
"143 1372 LINE",
"143 -115 LINE"
);
}
);
width = 1495;
}
);
note = uniA86F;
unicode = A86F;
},
{
glyphname = uniA870;
lastChange = "2016-11-30 01:16:01 +0000";
layers = (
{
layerId = "6DB8F2EA-3A56-43BC-93C3-749D7507B9DF";
paths = (
{
closed = 1;
nodes = (
"295 -115 LINE",
"295 229 LINE",
"477 102 OFFCURVE",
"658 -3 OFFCURVE",
"838 -86 CURVE",
"907 60 OFFCURVE",
"995 229 OFFCURVE",
"1102 422 CURVE",
"727 570 OFFCURVE",
"586 722 OFFCURVE",
"586 918 CURVE SMOOTH",
"586 1026 OFFCURVE",
"659 1085 OFFCURVE",
"750 1085 CURVE SMOOTH",
"878 1085 OFFCURVE",
"940 1007 OFFCURVE",
"993 815 CURVE",
"1141 815 LINE",
"1123 872 OFFCURVE",
"1114 931 OFFCURVE",
"1114 991 CURVE SMOOTH",
"1114 1079 OFFCURVE",
"1170 1147 OFFCURVE",
"1249 1147 CURVE SMOOTH",
"1323 1147 OFFCURVE",
"1376 1112 OFFCURVE",
"1407 1041 CURVE SMOOTH",
"1438 970 OFFCURVE",
"1469 858 OFFCURVE",
"1499 705 CURVE SMOOTH",
"1558 399 OFFCURVE",
"1668 110 OFFCURVE",
"1825 -115 CURVE",
"2060 -115 LINE",
"2048 -40 OFFCURVE",
"2042 55 OFFCURVE",
"2042 172 CURVE SMOOTH",
"2042 633 OFFCURVE",
"2121 992 OFFCURVE",
"2316 1372 CURVE",
"2083 1372 LINE SMOOTH",
"1791 1372 OFFCURVE",
"1627 1321 OFFCURVE",
"1468 1214 CURVE",
"1408 1286 OFFCURVE",
"1337 1311 OFFCURVE",
"1249 1311 CURVE SMOOTH",
"1124 1311 OFFCURVE",
"1036 1252 OFFCURVE",
"997 1137 CURVE",
"942 1212 OFFCURVE",
"859 1249 OFFCURVE",
"750 1249 CURVE SMOOTH",
"557 1249 OFFCURVE",
"426 1105 OFFCURVE",
"426 918 CURVE SMOOTH",
"426 669 OFFCURVE",
"579 485 OFFCURVE",
"891 348 CURVE",
"848 269 OFFCURVE",
"809 192 OFFCURVE",
"774 119 CURVE",
"639 182 OFFCURVE",
"412 329 OFFCURVE",
"295 418 CURVE",
"295 1372 LINE",
"143 1372 LINE",
"143 -115 LINE"
);
},
{
closed = 1;
nodes = (
"1783 248 OFFCURVE",
"1707 449 OFFCURVE",
"1665 657 CURVE SMOOTH",
"1623 864 OFFCURVE",
"1584 1006 OFFCURVE",
"1548 1083 CURVE",
"1688 1184 OFFCURVE",
"1848 1213 OFFCURVE",
"2075 1217 CURVE",
"1948 905 OFFCURVE",
"1890 579 OFFCURVE",
"1890 172 CURVE SMOOTH",
"1890 130 OFFCURVE",
"1893 91 OFFCURVE",
"1898 55 CURVE",
"1892 55 LINE"
);
}
);
width = 2378;
}
);
note = uniA870;
unicode = A870;
},
{
glyphname = uniA871;
lastChange = "2016-11-30 01:16:01 +0000";
layers = (
{
layerId = "6DB8F2EA-3A56-43BC-93C3-749D7507B9DF";
paths = (
{
closed = 1;
nodes = (
"295 -115 LINE",
"295 372 OFFCURVE",
"440 801 OFFCURVE",
"776 1217 CURVE",
"776 1372 LINE",
"143 1372 LINE",
"143 1217 LINE",
"582 1217 LINE",
"271 801 OFFCURVE",
"143 390 OFFCURVE",
"143 -115 CURVE"
);
}
);
width = 879;
}
);
note = uniA871;
unicode = A871;
},
{
glyphname = uniA872;
lastChange = "2016-11-30 01:16:01 +0000";
layers = (
{
layerId = "6DB8F2EA-3A56-43BC-93C3-749D7507B9DF";
paths = (
{
closed = 1;
nodes = (
"295 -115 LINE",
"295 551 LINE",
"729 551 LINE",
"729 707 LINE",
"295 707 LINE",
"295 1372 LINE",
"143 1372 LINE",
"143 -115 LINE"
);
}
);
width = 811;
}
);
note = uniA872;
unicode = A872;
},
{
glyphname = uniA873;
lastChange = "2016-11-30 01:16:01 +0000";
layers = (
{
layerId = "6DB8F2EA-3A56-43BC-93C3-749D7507B9DF";
paths = (
{
closed = 1;
nodes = (
"713 -115 LINE",
"911 86 OFFCURVE",
"1010 334 OFFCURVE",
"1010 629 CURVE SMOOTH",
"1010 926 OFFCURVE",
"911 1174 OFFCURVE",
"713 1372 CURVE",
"518 1372 LINE",
"737 1175 OFFCURVE",
"846 927 OFFCURVE",
"846 629 CURVE SMOOTH",
"846 312 OFFCURVE",
"726 74 OFFCURVE",
"518 -115 CURVE"
);
},
{
closed = 1;
nodes = (
"542 461 OFFCURVE",
"598 517 OFFCURVE",
"598 629 CURVE SMOOTH",
"598 741 OFFCURVE",
"542 797 OFFCURVE",
"430 797 CURVE SMOOTH",
"387 797 OFFCURVE",
"338 787 OFFCURVE",
"281 768 CURVE SMOOTH",
"82 696 LINE",
"82 561 LINE",
"281 489 LINE SMOOTH",
"336 470 OFFCURVE",
"385 461 OFFCURVE",
"430 461 CURVE SMOOTH"
);
}
);
width = 1153;
}
);
note = uniA873;
unicode = A873;
},
{
glyphname = uniA874;
lastChange = "2016-11-30 01:16:01 +0000";
layers = (
{
layerId = "6DB8F2EA-3A56-43BC-93C3-749D7507B9DF";
paths = (
{
closed = 1;
nodes = (
"463 -115 LINE",
"832 318 OFFCURVE",
"961 595 OFFCURVE",
"961 858 CURVE SMOOTH",
"961 1169 OFFCURVE",
"783 1372 OFFCURVE",
"514 1372 CURVE SMOOTH",
"254 1372 OFFCURVE",
"92 1194 OFFCURVE",
"92 930 CURVE SMOOTH",
"92 731 OFFCURVE",
"188 585 OFFCURVE",
"379 494 CURVE",
"461 635 LINE",
"329 698 OFFCURVE",
"252 788 OFFCURVE",
"252 936 CURVE SMOOTH",
"252 1108 OFFCURVE",
"353 1208 OFFCURVE",
"512 1208 CURVE SMOOTH",
"695 1208 OFFCURVE",
"801 1073 OFFCURVE",
"801 852 CURVE SMOOTH",
"801 597 OFFCURVE",
"657 345 OFFCURVE",
"266 -115 CURVE"
);
},
{
closed = 1;
nodes = (
"930 -16 LINE",
"1171 252 OFFCURVE",
"1292 537 OFFCURVE",
"1292 838 CURVE SMOOTH",
"1292 1021 OFFCURVE",
"1238 1178 OFFCURVE",
"1155 1282 CURVE",
"983 1282 LINE",
"1083 1165 OFFCURVE",
"1133 1017 OFFCURVE",
"1133 838 CURVE SMOOTH",
"1133 545 OFFCURVE",
"1034 308 OFFCURVE",
"758 -16 CURVE"
);
}
);
width = 1456;
}
);
note = uniA874;
unicode = A874;
},
{
glyphname = uniA875;
lastChange = "2016-11-30 01:16:01 +0000";
layers = (
{
layerId = "6DB8F2EA-3A56-43BC-93C3-749D7507B9DF";
paths = (
{
closed = 1;
nodes = (
"494 -135 LINE",
"695 88 OFFCURVE",
"786 253 OFFCURVE",
"786 438 CURVE SMOOTH",
"786 563 OFFCURVE",
"741 670 OFFCURVE",
"653 733 CURVE",
"742 824 OFFCURVE",
"786 930 OFFCURVE",
"786 1049 CURVE SMOOTH",
"786 1256 OFFCURVE",
"643 1393 OFFCURVE",
"440 1393 CURVE SMOOTH",
"241 1393 OFFCURVE",
"102 1264 OFFCURVE",
"102 1075 CURVE SMOOTH",
"102 980 OFFCURVE",
"136 910 OFFCURVE",
"207 842 CURVE",
"326 942 LINE",
"285 981 OFFCURVE",
"262 1016 OFFCURVE",
"262 1071 CURVE SMOOTH",
"262 1170 OFFCURVE",
"331 1229 OFFCURVE",
"440 1229 CURVE SMOOTH",
"559 1229 OFFCURVE",
"627 1156 OFFCURVE",
"627 1032 CURVE SMOOTH",
"627 937 OFFCURVE",
"587 857 OFFCURVE",
"506 793 CURVE",
"440 797 LINE",
"241 797 OFFCURVE",
"102 678 OFFCURVE",
"102 473 CURVE SMOOTH",
"102 331 OFFCURVE",
"170 230 OFFCURVE",
"307 170 CURVE",
"389 309 LINE",
"300 353 OFFCURVE",
"262 400 OFFCURVE",
"262 473 CURVE SMOOTH",
"262 574 OFFCURVE",
"331 633 OFFCURVE",
"440 633 CURVE SMOOTH",
"560 633 OFFCURVE",
"627 561 OFFCURVE",
"627 422 CURVE SMOOTH",
"627 352 OFFCURVE",
"605 280 OFFCURVE",
"562 206 CURVE SMOOTH",
"519 132 OFFCURVE",
"430 18 OFFCURVE",
"297 -135 CURVE"
);
},
{
closed = 1;
nodes = (
"899 -68 LINE",
"1030 69 OFFCURVE",
"1118 219 OFFCURVE",
"1118 424 CURVE SMOOTH",
"1118 551 OFFCURVE",
"1072 654 OFFCURVE",
"981 733 CURVE",
"1061 812 OFFCURVE",
"1118 903 OFFCURVE",
"1118 1034 CURVE SMOOTH",
"1118 1151 OFFCURVE",
"1072 1250 OFFCURVE",
"981 1329 CURVE",
"809 1329 LINE",
"908 1254 OFFCURVE",
"958 1156 OFFCURVE",
"958 1034 CURVE SMOOTH",
"958 906 OFFCURVE",
"910 816 OFFCURVE",
"809 733 CURVE",
"910 654 OFFCURVE",
"958 557 OFFCURVE",
"958 424 CURVE SMOOTH",
"958 227 OFFCURVE",
"872 77 OFFCURVE",
"727 -68 CURVE"
);
}
);
width = 1282;
}
);
note = uniA875;
unicode = A875;
},
{
glyphname = uniA876;
lastChange = "2016-11-30 01:15:49 +0000";
layers = (
{
layerId = "6DB8F2EA-3A56-43BC-93C3-749D7507B9DF";
paths = (
{
closed = 1;
nodes = (
"354 -115 LINE",
"354 1372 LINE",
"184 1372 LINE",
"184 -115 LINE"
);
}
);
width = 539;
}
);
note = uniA876;
unicode = A876;
},
{
glyphname = uniFE00;
lastChange = "2016-11-30 01:16:01 +0000";
layers = (
{
layerId = "6DB8F2EA-3A56-43BC-93C3-749D7507B9DF";
paths = (
{
closed = 1;
nodes = (
"621 836 LINE",
"831 1362 LINE",
"741 1362 LINE",
"649 1133 OFFCURVE",
"600 1010 OFFCURVE",
"593 991 CURVE SMOOTH",
"586 972 OFFCURVE",
"580 955 OFFCURVE",
"575 938 CURVE",
"565 975 OFFCURVE",
"545 1029 OFFCURVE",
"516 1098 CURVE SMOOTH",
"410 1362 LINE",
"319 1362 LINE",
"530 836 LINE"
);
},
{
closed = 1;
nodes = (
"348 0 LINE",
"348 92 LINE",
"195 92 LINE",
"195 246 LINE",
"102 246 LINE",
"102 0 LINE"
);
},
{
closed = 1;
nodes = (
"676 0 LINE",
"676 92 LINE",
"430 92 LINE",
"430 0 LINE"
);
},
{
closed = 1;
nodes = (
"195 328 LINE",
"195 573 LINE",
"102 573 LINE",
"102 328 LINE"
);
},
{
closed = 1;
nodes = (
"195 655 LINE",
"195 901 LINE",
"102 901 LINE",
"102 655 LINE"
);
},
{
closed = 1;
nodes = (
"1004 0 LINE",
"1004 92 LINE",
"758 92 LINE",
"758 0 LINE"
);
},
{
closed = 1;
nodes = (
"1331 0 LINE",
"1331 92 LINE",
"1085 92 LINE",
"1085 0 LINE"
);
},
{
closed = 1;
nodes = (
"195 983 LINE",
"195 1229 LINE",
"102 1229 LINE",
"102 983 LINE"
);
},
{
closed = 1;
nodes = (
"944 195 LINE",
"944 721 LINE",
"870 721 LINE",
"672 567 LINE",
"719 508 LINE",
"800 573 OFFCURVE",
"847 613 OFFCURVE",
"860 627 CURVE",
"857 588 OFFCURVE",
"856 547 OFFCURVE",
"856 502 CURVE SMOOTH",
"856 195 LINE"
);
},
{
closed = 1;
nodes = (
"195 1311 LINE",
"195 1464 LINE",
"348 1464 LINE",
"348 1556 LINE",
"102 1556 LINE",
"102 1311 LINE"
);
},
{
closed = 1;
nodes = (
"1659 0 LINE",
"1659 246 LINE",
"1567 246 LINE",
"1567 92 LINE",
"1413 92 LINE",
"1413 0 LINE"
);
},
{
closed = 1;
nodes = (
"676 1464 LINE",
"676 1556 LINE",
"430 1556 LINE",
"430 1464 LINE"
);
},
{
closed = 1;
nodes = (
"1659 328 LINE",
"1659 573 LINE",
"1567 573 LINE",
"1567 328 LINE"
);
},
{
closed = 1;
nodes = (
"1288 817 OFFCURVE",
"1370 876 OFFCURVE",
"1370 979 CURVE SMOOTH",
"1370 1090 OFFCURVE",
"1287 1123 OFFCURVE",
"1177 1156 CURVE SMOOTH",
"1122 1172 OFFCURVE",
"1094 1201 OFFCURVE",
"1094 1243 CURVE SMOOTH",
"1094 1282 OFFCURVE",
"1127 1305 OFFCURVE",
"1190 1305 CURVE SMOOTH",
"1233 1305 OFFCURVE",
"1278 1292 OFFCURVE",
"1325 1266 CURVE",
"1354 1343 LINE",
"1307 1370 OFFCURVE",
"1253 1384 OFFCURVE",
"1192 1384 CURVE SMOOTH",
"1077 1384 OFFCURVE",
"999 1334 OFFCURVE",
"999 1243 CURVE SMOOTH",
"999 1143 OFFCURVE",
"1060 1096 OFFCURVE",
"1185 1060 CURVE SMOOTH",
"1247 1042 OFFCURVE",
"1278 1012 OFFCURVE",
"1278 971 CURVE SMOOTH",
"1278 922 OFFCURVE",
"1237 897 OFFCURVE",
"1155 897 CURVE SMOOTH",
"1101 897 OFFCURVE",
"1046 911 OFFCURVE",
"991 940 CURVE",
"991 852 LINE",
"1030 829 OFFCURVE",
"1083 817 OFFCURVE",
"1151 817 CURVE SMOOTH"
);
},
{
closed = 1;
nodes = (
"1659 655 LINE",
"1659 901 LINE",
"1567 901 LINE",
"1567 655 LINE"
);
},
{
closed = 1;
nodes = (
"1004 1464 LINE",
"1004 1556 LINE",
"758 1556 LINE",
"758 1464 LINE"
);
},
{
closed = 1;
nodes = (
"1331 1464 LINE",
"1331 1556 LINE",
"1085 1556 LINE",
"1085 1464 LINE"
);
},
{
closed = 1;
nodes = (
"1659 983 LINE",
"1659 1229 LINE",
"1567 1229 LINE",
"1567 983 LINE"
);
},
{
closed = 1;
nodes = (
"1659 1311 LINE",
"1659 1556 LINE",
"1413 1556 LINE",
"1413 1464 LINE",
"1567 1464 LINE",
"1567 1311 LINE"
);
}
);
width = 1761;
}
);
note = uniFE00;
unicode = FE00;
},
{
glyphname = uniA857.ini;
lastChange = "2016-11-30 01:16:01 +0000";
layers = (
{
layerId = "6DB8F2EA-3A56-43BC-93C3-749D7507B9DF";
paths = (
{
closed = 1;
nodes = (
"586 -115 LINE SMOOTH",
"855 -115 OFFCURVE",
"1038 47 OFFCURVE",
"1038 295 CURVE SMOOTH",
"1038 470 OFFCURVE",
"946 602 OFFCURVE",
"797 666 CURVE",
"829 823 OFFCURVE",
"894 993 OFFCURVE",
"1053 1217 CURVE",
"1411 1217 LINE",
"1411 1372 LINE",
"143 1372 LINE",
"143 1217 LINE",
"868 1217 LINE",
"765 1051 OFFCURVE",
"691 879 OFFCURVE",
"647 702 CURVE",
"629 705 OFFCURVE",
"609 707 OFFCURVE",
"586 707 CURVE SMOOTH",
"143 707 LINE",
"143 551 LINE",
"586 551 LINE SMOOTH",
"767 551 OFFCURVE",
"879 458 OFFCURVE",
"879 295 CURVE SMOOTH",
"879 131 OFFCURVE",
"766 41 OFFCURVE",
"586 41 CURVE SMOOTH",
"143 41 LINE",
"143 -115 LINE"
);
}
);
width = 1370;
}
);
note = uniA857.ini;
},
{
glyphname = uniA84F.ini;
lastChange = "2016-11-30 01:16:01 +0000";
layers = (
{
layerId = "6DB8F2EA-3A56-43BC-93C3-749D7507B9DF";
paths = (
{
closed = 1;
nodes = (
"1089 -127 OFFCURVE",
"1231 22 OFFCURVE",
"1231 279 CURVE SMOOTH",
"1231 543 OFFCURVE",
"1086 735 OFFCURVE",
"854 842 CURVE",
"942 965 OFFCURVE",
"1068 1090 OFFCURVE",
"1231 1217 CURVE",
"1599 1217 LINE",
"1599 1372 LINE",
"143 1372 LINE",
"143 1217 LINE",
"809 1217 LINE SMOOTH",
"893 1217 OFFCURVE",
"958 1219 OFFCURVE",
"1004 1223 CURVE",
"1004 1214 LINE",
"889 1127 OFFCURVE",
"789 1020 OFFCURVE",
"705 895 CURVE",
"586 928 OFFCURVE",
"455 944 OFFCURVE",
"311 944 CURVE SMOOTH",
"143 944 LINE",
"143 -115 LINE",
"295 -115 LINE",
"295 788 LINE",
"424 788 OFFCURVE",
"533 777 OFFCURVE",
"623 756 CURVE",
"542 599 OFFCURVE",
"502 444 OFFCURVE",
"502 293 CURVE SMOOTH",
"502 30 OFFCURVE",
"641 -127 OFFCURVE",
"868 -127 CURVE SMOOTH"
);
},
{
closed = 1;
nodes = (
"737 37 OFFCURVE",
"662 126 OFFCURVE",
"662 293 CURVE SMOOTH",
"662 435 OFFCURVE",
"698 574 OFFCURVE",
"770 709 CURVE",
"971 623 OFFCURVE",
"1071 481 OFFCURVE",
"1071 283 CURVE SMOOTH",
"1071 127 OFFCURVE",
"1005 37 OFFCURVE",
"868 37 CURVE SMOOTH"
);
}
);
width = 1559;
}
);
note = uniA84F.ini;
},
{
glyphname = uniA85D.ini;
lastChange = "2016-11-30 01:16:01 +0000";
layers = (
{
layerId = "6DB8F2EA-3A56-43BC-93C3-749D7507B9DF";
paths = (
{
closed = 1;
nodes = (
"700 -115 LINE SMOOTH",
"957 -115 OFFCURVE",
"1124 26 OFFCURVE",
"1124 254 CURVE SMOOTH",
"1124 457 OFFCURVE",
"979 608 OFFCURVE",
"772 608 CURVE SMOOTH",
"649 608 OFFCURVE",
"546 554 OFFCURVE",
"483 459 CURVE",
"452 482 OFFCURVE",
"394 533 OFFCURVE",
"309 612 CURVE",
"536 839 OFFCURVE",
"802 1040 OFFCURVE",
"1108 1217 CURVE",
"1477 1217 LINE",
"1477 1372 LINE",
"143 1372 LINE",
"143 1217 LINE",
"643 1217 LINE SMOOTH",
"728 1217 OFFCURVE",
"793 1219 OFFCURVE",
"838 1223 CURVE",
"838 1214 LINE",
"663 1110 OFFCURVE",
"446 944 OFFCURVE",
"295 803 CURVE",
"295 963 LINE",
"143 963 LINE",
"143 270 LINE",
"295 270 LINE",
"295 426 LINE",
"348 379 OFFCURVE",
"422 320 OFFCURVE",
"516 250 CURVE",
"575 379 OFFCURVE",
"660 444 OFFCURVE",
"772 444 CURVE SMOOTH",
"901 444 OFFCURVE",
"965 363 OFFCURVE",
"965 254 CURVE SMOOTH",
"965 121 OFFCURVE",
"872 41 OFFCURVE",
"700 41 CURVE SMOOTH",
"143 41 LINE",
"143 -115 LINE"
);
}
);
width = 1436;
}
);
note = uniA85D.ini;
},
{
glyphname = uniA85D.ini.cnt;
lastChange = "2016-11-30 01:16:01 +0000";
layers = (
{
layerId = "6DB8F2EA-3A56-43BC-93C3-749D7507B9DF";
paths = (
{
closed = 1;
nodes = (
"700 -115 LINE SMOOTH",
"957 -115 OFFCURVE",
"1124 26 OFFCURVE",
"1124 254 CURVE SMOOTH",
"1124 395 OFFCURVE",
"1045 515 OFFCURVE",
"913 543 CURVE",
"913 551 LINE",
"1354 551 LINE",
"1354 707 LINE",
"1077 707 LINE SMOOTH",
"799 707 OFFCURVE",
"602 624 OFFCURVE",
"485 459 CURVE",
"436 492 OFFCURVE",
"378 543 OFFCURVE",
"309 612 CURVE",
"536 839 OFFCURVE",
"802 1040 OFFCURVE",
"1108 1217 CURVE",
"1108 1372 LINE",
"143 1372 LINE",
"143 1217 LINE",
"643 1217 LINE SMOOTH",
"728 1217 OFFCURVE",
"793 1219 OFFCURVE",
"838 1223 CURVE",
"838 1214 LINE",
"663 1110 OFFCURVE",
"446 944 OFFCURVE",
"295 803 CURVE",
"295 963 LINE",
"143 963 LINE",
"143 270 LINE",
"295 270 LINE",
"295 426 LINE",
"348 379 OFFCURVE",
"422 320 OFFCURVE",
"516 250 CURVE",
"575 379 OFFCURVE",
"660 444 OFFCURVE",
"772 444 CURVE SMOOTH",
"901 444 OFFCURVE",
"965 363 OFFCURVE",
"965 254 CURVE SMOOTH",
"965 121 OFFCURVE",
"872 41 OFFCURVE",
"700 41 CURVE SMOOTH",
"143 41 LINE",
"143 -115 LINE"
);
}
);
width = 1313;
}
);
note = uniA85D.ini.cnt;
},
{
glyphname = uniA85B.ini;
lastChange = "2016-11-30 01:15:49 +0000";
layers = (
{
layerId = "6DB8F2EA-3A56-43BC-93C3-749D7507B9DF";
paths = (
{
closed = 1;
nodes = (
"295 -115 LINE",
"295 186 LINE",
"377 109 OFFCURVE",
"466 36 OFFCURVE",
"563 -33 CURVE",
"730 182 OFFCURVE",
"906 373 OFFCURVE",
"1092 539 CURVE",
"1092 737 LINE",
"907 580 OFFCURVE",
"693 367 OFFCURVE",
"541 176 CURVE",
"461 235 OFFCURVE",
"379 308 OFFCURVE",
"295 395 CURVE",
"504 684 OFFCURVE",
"769 958 OFFCURVE",
"1092 1217 CURVE",
"1460 1217 LINE",
"1460 1372 LINE",
"143 1372 LINE",
"143 1217 LINE",
"655 1217 LINE SMOOTH",
"740 1217 OFFCURVE",
"805 1219 OFFCURVE",
"850 1223 CURVE",
"850 1214 LINE",
"666 1073 OFFCURVE",
"446 841 OFFCURVE",
"295 653 CURVE",
"295 918 LINE",
"143 918 LINE",
"143 -115 LINE"
);
}
);
width = 1419;
}
);
note = uniA85B.ini;
},
{
glyphname = uniA85B.ini.cnt;
lastChange = "2016-11-30 01:16:01 +0000";
layers = (
{
layerId = "6DB8F2EA-3A56-43BC-93C3-749D7507B9DF";
paths = (
{
closed = 1;
nodes = (
"295 -115 LINE",
"295 186 LINE",
"377 109 OFFCURVE",
"466 36 OFFCURVE",
"563 -33 CURVE",
"661 126 OFFCURVE",
"745 246 OFFCURVE",
"815 327 CURVE SMOOTH",
"955 489 OFFCURVE",
"1072 551 OFFCURVE",
"1255 551 CURVE SMOOTH",
"1296 551 LINE",
"1296 707 LINE",
"1255 707 LINE SMOOTH",
"986 707 OFFCURVE",
"768 558 OFFCURVE",
"528 186 CURVE",
"437 259 OFFCURVE",
"359 328 OFFCURVE",
"295 395 CURVE",
"504 684 OFFCURVE",
"769 958 OFFCURVE",
"1092 1217 CURVE",
"1092 1372 LINE",
"143 1372 LINE",
"143 1217 LINE",
"655 1217 LINE SMOOTH",
"740 1217 OFFCURVE",
"805 1219 OFFCURVE",
"850 1223 CURVE",
"850 1214 LINE",
"666 1073 OFFCURVE",
"446 841 OFFCURVE",
"295 653 CURVE",
"295 918 LINE",
"143 918 LINE",
"143 -115 LINE"
);
}
);
width = 1255;
}
);
note = uniA85B.ini.cnt;
},
{
glyphname = uniA85E.ini;
lastChange = "2016-11-30 01:16:01 +0000";
layers = (
{
layerId = "6DB8F2EA-3A56-43BC-93C3-749D7507B9DF";
paths = (
{
closed = 1;
nodes = (
"1093 -127 OFFCURVE",
"1231 40 OFFCURVE",
"1231 299 CURVE SMOOTH",
"1231 487 OFFCURVE",
"1143 632 OFFCURVE",
"971 715 CURVE",
"889 584 LINE",
"1024 523 OFFCURVE",
"1071 424 OFFCURVE",
"1071 303 CURVE SMOOTH",
"1071 134 OFFCURVE",
"999 37 OFFCURVE",
"848 37 CURVE SMOOTH",
"705 37 OFFCURVE",
"621 133 OFFCURVE",
"621 313 CURVE SMOOTH",
"621 645 OFFCURVE",
"818 929 OFFCURVE",
"1231 1217 CURVE",
"1599 1217 LINE",
"1599 1372 LINE",
"143 1372 LINE",
"143 -115 LINE",
"295 -115 LINE",
"295 1217 LINE",
"809 1217 LINE SMOOTH",
"893 1217 OFFCURVE",
"958 1219 OFFCURVE",
"1004 1223 CURVE",
"1004 1214 LINE",
"660 970 OFFCURVE",
"461 637 OFFCURVE",
"461 313 CURVE SMOOTH",
"461 41 OFFCURVE",
"611 -127 OFFCURVE",
"848 -127 CURVE SMOOTH"
);
}
);
width = 1559;
}
);
note = uniA85E.ini;
},
{
glyphname = uniA85E.med;
lastChange = "2016-11-30 01:16:01 +0000";
layers = (
{
layerId = "6DB8F2EA-3A56-43BC-93C3-749D7507B9DF";
paths = (
{
closed = 1;
nodes = (
"632 -127 OFFCURVE",
"770 40 OFFCURVE",
"770 299 CURVE SMOOTH",
"770 487 OFFCURVE",
"682 632 OFFCURVE",
"510 715 CURVE",
"428 584 LINE",
"563 523 OFFCURVE",
"610 424 OFFCURVE",
"610 303 CURVE SMOOTH",
"610 134 OFFCURVE",
"538 37 OFFCURVE",
"387 37 CURVE SMOOTH",
"246 37 OFFCURVE",
"160 133 OFFCURVE",
"160 313 CURVE SMOOTH",
"160 645 OFFCURVE",
"357 929 OFFCURVE",
"770 1217 CURVE",
"1139 1217 LINE",
"1139 1372 LINE",
"0 1372 LINE",
"0 1217 LINE",
"348 1217 LINE SMOOTH",
"433 1217 OFFCURVE",
"498 1219 OFFCURVE",
"543 1223 CURVE",
"543 1214 LINE",
"199 970 OFFCURVE",
"0 637 OFFCURVE",
"0 313 CURVE SMOOTH",
"0 41 OFFCURVE",
"150 -127 OFFCURVE",
"387 -127 CURVE SMOOTH"
);
}
);
width = 1098;
}
);
note = uniA85E.med;
},
{
glyphname = uniA85E.fin;
lastChange = "2016-11-30 01:16:01 +0000";
layers = (
{
layerId = "6DB8F2EA-3A56-43BC-93C3-749D7507B9DF";
paths = (
{
closed = 1;
nodes = (
"632 -127 OFFCURVE",
"770 40 OFFCURVE",
"770 299 CURVE SMOOTH",
"770 487 OFFCURVE",
"682 632 OFFCURVE",
"510 715 CURVE",
"428 584 LINE",
"563 523 OFFCURVE",
"610 424 OFFCURVE",
"610 303 CURVE SMOOTH",
"610 134 OFFCURVE",
"538 37 OFFCURVE",
"387 37 CURVE SMOOTH",
"246 37 OFFCURVE",
"160 133 OFFCURVE",
"160 313 CURVE SMOOTH",
"160 645 OFFCURVE",
"357 929 OFFCURVE",
"770 1217 CURVE",
"770 1372 LINE",
"0 1372 LINE",
"0 1217 LINE",
"348 1217 LINE SMOOTH",
"433 1217 OFFCURVE",
"498 1219 OFFCURVE",
"543 1223 CURVE",
"543 1214 LINE",
"199 970 OFFCURVE",
"0 637 OFFCURVE",
"0 313 CURVE SMOOTH",
"0 41 OFFCURVE",
"150 -127 OFFCURVE",
"387 -127 CURVE SMOOTH"
);
}
);
width = 913;
}
);
note = uniA85E.fin;
},
{
glyphname = uniA843.ini;
lastChange = "2016-11-30 01:16:01 +0000";
layers = (
{
layerId = "6DB8F2EA-3A56-43BC-93C3-749D7507B9DF";
paths = (
{
closed = 1;
nodes = (
"295 -115 LINE",
"295 1217 LINE",
"643 1217 LINE",
"643 -115 LINE",
"1343 -115 LINE",
"1290 78 OFFCURVE",
"1264 297 OFFCURVE",
"1264 541 CURVE SMOOTH",
"1264 834 OFFCURVE",
"1291 1012 OFFCURVE",
"1364 1217 CURVE",
"1716 1217 LINE",
"1716 1372 LINE",
"1262 1372 LINE",
"1158 1132 OFFCURVE",
"1112 877 OFFCURVE",
"1112 541 CURVE SMOOTH",
"1112 354 OFFCURVE",
"1126 187 OFFCURVE",
"1153 41 CURVE",
"795 41 LINE",
"795 1372 LINE",
"143 1372 LINE",
"143 -115 LINE"
);
}
);
width = 1675;
}
);
note = uniA843.ini;
},
{
glyphname = uniA860.ini;
lastChange = "2016-11-30 01:16:01 +0000";
layers = (
{
layerId = "6DB8F2EA-3A56-43BC-93C3-749D7507B9DF";
paths = (
{
closed = 1;
nodes = (
"295 -115 LINE",
"295 1217 LINE",
"643 1217 LINE",
"643 -115 LINE",
"893 -115 LINE",
"997 234 OFFCURVE",
"1144 536 OFFCURVE",
"1335 791 CURVE",
"1145 791 LINE",
"993 562 OFFCURVE",
"877 316 OFFCURVE",
"797 51 CURVE",
"788 51 LINE",
"793 98 OFFCURVE",
"795 173 OFFCURVE",
"795 276 CURVE SMOOTH",
"795 1217 LINE",
"1720 1217 LINE",
"1720 1372 LINE",
"143 1372 LINE",
"143 -115 LINE"
);
}
);
width = 1679;
}
);
note = uniA860.ini;
},
{
glyphname = uniA860.med;
lastChange = "2016-11-30 01:16:01 +0000";
layers = (
{
layerId = "6DB8F2EA-3A56-43BC-93C3-749D7507B9DF";
paths = (
{
closed = 1;
nodes = (
"250 -115 LINE",
"354 234 OFFCURVE",
"501 536 OFFCURVE",
"692 791 CURVE",
"502 791 LINE",
"350 562 OFFCURVE",
"234 316 OFFCURVE",
"154 51 CURVE",
"145 51 LINE",
"150 98 OFFCURVE",
"152 173 OFFCURVE",
"152 276 CURVE SMOOTH",
"152 1217 LINE",
"1085 1217 LINE",
"1085 1372 LINE",
"0 1372 LINE",
"0 -115 LINE"
);
}
);
width = 1044;
}
);
note = uniA860.med;
},
{
glyphname = uniA860.fin;
lastChange = "2016-11-30 01:16:01 +0000";
layers = (
{
layerId = "6DB8F2EA-3A56-43BC-93C3-749D7507B9DF";
paths = (
{
closed = 1;
nodes = (
"250 -115 LINE",
"354 234 OFFCURVE",
"501 536 OFFCURVE",
"692 791 CURVE",
"502 791 LINE",
"350 562 OFFCURVE",
"234 316 OFFCURVE",
"154 51 CURVE",
"145 51 LINE",
"150 98 OFFCURVE",
"152 173 OFFCURVE",
"152 276 CURVE SMOOTH",
"152 1217 LINE",
"717 1217 LINE",
"717 1372 LINE",
"0 1372 LINE",
"0 -115 LINE"
);
}
);
width = 860;
}
);
note = uniA860.fin;
},
{
glyphname = uniA861.med;
lastChange = "2016-11-30 01:16:01 +0000";
layers = (
{
layerId = "6DB8F2EA-3A56-43BC-93C3-749D7507B9DF";
paths = (
{
closed = 1;
nodes = (
"608 -115 LINE",
"517 138 OFFCURVE",
"383 358 OFFCURVE",
"207 547 CURVE",
"207 555 LINE",
"399 551 LINE",
"961 551 LINE",
"961 707 LINE",
"399 707 LINE SMOOTH",
"323 707 OFFCURVE",
"259 705 OFFCURVE",
"207 702 CURVE",
"207 711 LINE",
"384 899 OFFCURVE",
"518 1119 OFFCURVE",
"608 1372 CURVE",
"444 1372 LINE",
"347 1119 OFFCURVE",
"208 911 OFFCURVE",
"0 707 CURVE",
"0 551 LINE",
"208 346 OFFCURVE",
"347 140 OFFCURVE",
"444 -115 CURVE"
);
}
);
width = 920;
}
);
note = uniA861.med;
},
{
glyphname = uniA861.fin;
lastChange = "2016-11-30 01:16:01 +0000";
layers = (
{
layerId = "6DB8F2EA-3A56-43BC-93C3-749D7507B9DF";
paths = (
{
closed = 1;
nodes = (
"608 -115 LINE",
"503 177 OFFCURVE",
"342 425 OFFCURVE",
"125 629 CURVE",
"342 831 OFFCURVE",
"503 1079 OFFCURVE",
"608 1372 CURVE",
"444 1372 LINE",
"347 1119 OFFCURVE",
"208 911 OFFCURVE",
"0 707 CURVE",
"0 551 LINE",
"208 346 OFFCURVE",
"347 140 OFFCURVE",
"444 -115 CURVE"
);
}
);
width = 690;
}
);
note = uniA861.fin;
},
{
glyphname = uniA861.ini;
lastChange = "2016-11-30 01:16:01 +0000";
layers = (
{
layerId = "6DB8F2EA-3A56-43BC-93C3-749D7507B9DF";
paths = (
{
closed = 1;
nodes = (
"295 -115 LINE",
"295 465 LINE",
"459 285 OFFCURVE",
"570 106 OFFCURVE",
"657 -115 CURVE",
"821 -115 LINE",
"730 138 OFFCURVE",
"596 358 OFFCURVE",
"420 547 CURVE",
"420 555 LINE",
"612 551 LINE",
"1174 551 LINE",
"1174 707 LINE",
"612 707 LINE SMOOTH",
"536 707 OFFCURVE",
"472 705 OFFCURVE",
"420 702 CURVE",
"420 711 LINE",
"597 899 OFFCURVE",
"731 1119 OFFCURVE",
"821 1372 CURVE",
"657 1372 LINE",
"570 1151 OFFCURVE",
"459 971 OFFCURVE",
"295 791 CURVE",
"295 1372 LINE",
"143 1372 LINE",
"143 -115 LINE"
);
}
);
width = 1133;
}
);
note = uniA861.ini;
},
{
glyphname = uniA85C.ini;
lastChange = "2016-11-30 01:16:01 +0000";
layers = (
{
layerId = "6DB8F2EA-3A56-43BC-93C3-749D7507B9DF";
paths = (
{
closed = 1;
nodes = (
"295 -115 LINE",
"295 229 LINE",
"429 131 OFFCURVE",
"569 46 OFFCURVE",
"715 -25 CURVE",
"784 121 OFFCURVE",
"872 290 OFFCURVE",
"979 483 CURVE",
"712 600 OFFCURVE",
"635 705 OFFCURVE",
"635 844 CURVE SMOOTH",
"635 1000 OFFCURVE",
"738 1085 OFFCURVE",
"891 1085 CURVE SMOOTH",
"996 1085 OFFCURVE",
"1099 1035 OFFCURVE",
"1200 934 CURVE",
"1243 1021 OFFCURVE",
"1278 1081 OFFCURVE",
"1305 1116 CURVE SMOOTH",
"1360 1185 OFFCURVE",
"1435 1217 OFFCURVE",
"1526 1217 CURVE SMOOTH",
"1587 1217 LINE",
"1587 1372 LINE",
"1526 1372 LINE SMOOTH",
"1343 1372 OFFCURVE",
"1221 1285 OFFCURVE",
"1153 1165 CURVE",
"1078 1221 OFFCURVE",
"990 1249 OFFCURVE",
"891 1249 CURVE SMOOTH",
"648 1249 OFFCURVE",
"475 1081 OFFCURVE",
"475 844 CURVE SMOOTH",
"475 639 OFFCURVE",
"590 507 OFFCURVE",
"770 412 CURVE",
"734 350 OFFCURVE",
"694 273 OFFCURVE",
"651 180 CURVE",
"525 247 OFFCURVE",
"406 327 OFFCURVE",
"295 418 CURVE",
"295 1372 LINE",
"143 1372 LINE",
"143 -115 LINE"
);
}
);
width = 1546;
}
);
note = uniA85C.ini;
},
{
glyphname = uniA85F.med;
lastChange = "2016-11-30 01:16:01 +0000";
layers = (
{
layerId = "6DB8F2EA-3A56-43BC-93C3-749D7507B9DF";
paths = (
{
closed = 1;
nodes = (
"648 -115 OFFCURVE",
"946 146 OFFCURVE",
"946 573 CURVE SMOOTH",
"946 874 OFFCURVE",
"744 1090 OFFCURVE",
"444 1090 CURVE SMOOTH",
"164 1090 OFFCURVE",
"-20 908 OFFCURVE",
"-20 639 CURVE SMOOTH",
"-20 410 OFFCURVE",
"109 285 OFFCURVE",
"297 285 CURVE SMOOTH",
"472 285 OFFCURVE",
"594 411 OFFCURVE",
"594 588 CURVE SMOOTH",
"594 618 OFFCURVE",
"591 645 OFFCURVE",
"584 670 CURVE",
"428 639 LINE",
"432 624 OFFCURVE",
"434 607 OFFCURVE",
"434 588 CURVE SMOOTH",
"434 505 OFFCURVE",
"388 449 OFFCURVE",
"297 449 CURVE SMOOTH",
"204 449 OFFCURVE",
"139 514 OFFCURVE",
"139 639 CURVE SMOOTH",
"139 815 OFFCURVE",
"259 926 OFFCURVE",
"444 926 CURVE SMOOTH",
"653 926 OFFCURVE",
"786 788 OFFCURVE",
"786 573 CURVE SMOOTH",
"786 233 OFFCURVE",
"563 41 OFFCURVE",
"164 41 CURVE",
"164 -115 LINE"
);
},
{
closed = 1;
nodes = (
"1184 1217 LINE",
"1184 1372 LINE",
"0 1372 LINE",
"0 1217 LINE"
);
}
);
width = 1143;
}
);
note = uniA85F.med;
},
{
glyphname = uniA85F.fin;
lastChange = "2016-11-30 01:16:01 +0000";
layers = (
{
layerId = "6DB8F2EA-3A56-43BC-93C3-749D7507B9DF";
paths = (
{
closed = 1;
nodes = (
"648 -115 OFFCURVE",
"946 146 OFFCURVE",
"946 573 CURVE SMOOTH",
"946 874 OFFCURVE",
"744 1090 OFFCURVE",
"444 1090 CURVE SMOOTH",
"164 1090 OFFCURVE",
"-20 908 OFFCURVE",
"-20 639 CURVE SMOOTH",
"-20 410 OFFCURVE",
"109 285 OFFCURVE",
"297 285 CURVE SMOOTH",
"472 285 OFFCURVE",
"594 411 OFFCURVE",
"594 588 CURVE SMOOTH",
"594 618 OFFCURVE",
"591 645 OFFCURVE",
"584 670 CURVE",
"428 639 LINE",
"432 624 OFFCURVE",
"434 607 OFFCURVE",
"434 588 CURVE SMOOTH",
"434 505 OFFCURVE",
"388 449 OFFCURVE",
"297 449 CURVE SMOOTH",
"204 449 OFFCURVE",
"139 514 OFFCURVE",
"139 639 CURVE SMOOTH",
"139 815 OFFCURVE",
"259 926 OFFCURVE",
"444 926 CURVE SMOOTH",
"653 926 OFFCURVE",
"786 788 OFFCURVE",
"786 573 CURVE SMOOTH",
"786 233 OFFCURVE",
"563 41 OFFCURVE",
"164 41 CURVE",
"164 -115 LINE"
);
},
{
closed = 1;
nodes = (
"926 1217 LINE",
"926 1372 LINE",
"0 1372 LINE",
"0 1217 LINE"
);
}
);
width = 1028;
}
);
note = uniA85F.fin;
},
{
glyphname = uniA840.ini;
lastChange = "2016-11-30 01:16:01 +0000";
layers = (
{
layerId = "6DB8F2EA-3A56-43BC-93C3-749D7507B9DF";
paths = (
{
closed = 1;
nodes = (
"295 -115 LINE",
"295 168 LINE",
"633 168 LINE",
"633 -115 LINE",
"784 -115 LINE",
"784 156 LINE",
"921 139 OFFCURVE",
"1047 104 OFFCURVE",
"1163 49 CURVE",
"1163 217 LINE",
"990 288 OFFCURVE",
"794 324 OFFCURVE",
"573 324 CURVE SMOOTH",
"295 324 LINE",
"295 692 LINE",
"1163 692 LINE",
"1163 848 LINE",
"295 848 LINE",
"295 1217 LINE",
"1532 1217 LINE",
"1532 1372 LINE",
"143 1372 LINE",
"143 -115 LINE"
);
}
);
width = 1491;
}
);
note = uniA840.ini;
},
{
glyphname = uniA840.ini.cnt;
lastChange = "2016-11-30 01:16:01 +0000";
layers = (
{
layerId = "6DB8F2EA-3A56-43BC-93C3-749D7507B9DF";
paths = (
{
closed = 1;
nodes = (
"295 -115 LINE",
"295 127 LINE",
"633 127 LINE",
"633 -115 LINE",
"784 -115 LINE",
"784 115 LINE",
"921 98 OFFCURVE",
"1047 63 OFFCURVE",
"1163 8 CURVE",
"1163 176 LINE",
"990 247 OFFCURVE",
"794 283 OFFCURVE",
"573 283 CURVE SMOOTH",
"295 283 LINE",
"295 672 LINE",
"399 672 LINE SMOOTH",
"534 672 OFFCURVE",
"702 652 OFFCURVE",
"905 612 CURVE SMOOTH",
"1107 571 OFFCURVE",
"1268 551 OFFCURVE",
"1389 551 CURVE SMOOTH",
"1430 551 LINE",
"1430 707 LINE",
"1389 707 LINE SMOOTH",
"1272 707 OFFCURVE",
"1114 727 OFFCURVE",
"917 767 CURVE SMOOTH",
"720 807 OFFCURVE",
"547 827 OFFCURVE",
"399 827 CURVE SMOOTH",
"295 827 LINE",
"295 1217 LINE",
"1163 1217 LINE",
"1163 1372 LINE",
"143 1372 LINE",
"143 -115 LINE"
);
}
);
width = 1389;
}
);
note = uniA840.ini.cnt;
},
{
glyphname = uniA84B.ini;
lastChange = "2016-11-30 01:16:01 +0000";
layers = (
{
layerId = "6DB8F2EA-3A56-43BC-93C3-749D7507B9DF";
paths = (
{
closed = 1;
nodes = (
"1093 -127 OFFCURVE",
"1231 40 OFFCURVE",
"1231 299 CURVE SMOOTH",
"1231 548 OFFCURVE",
"1091 727 OFFCURVE",
"811 836 CURVE",
"911 964 OFFCURVE",
"1051 1091 OFFCURVE",
"1231 1217 CURVE",
"1599 1217 LINE",
"1599 1372 LINE",
"143 1372 LINE",
"143 -115 LINE",
"295 -115 LINE",
"295 1217 LINE",
"809 1217 LINE SMOOTH",
"893 1217 OFFCURVE",
"958 1219 OFFCURVE",
"1004 1223 CURVE",
"1004 1214 LINE",
"660 970 OFFCURVE",
"461 637 OFFCURVE",
"461 313 CURVE SMOOTH",
"461 41 OFFCURVE",
"611 -127 OFFCURVE",
"848 -127 CURVE SMOOTH"
);
},
{
closed = 1;
nodes = (
"705 37 OFFCURVE",
"621 133 OFFCURVE",
"621 313 CURVE SMOOTH",
"621 450 OFFCURVE",
"655 580 OFFCURVE",
"723 705 CURVE",
"971 617 OFFCURVE",
"1071 470 OFFCURVE",
"1071 303 CURVE SMOOTH",
"1071 134 OFFCURVE",
"999 37 OFFCURVE",
"848 37 CURVE SMOOTH"
);
}
);
width = 1559;
}
);
note = uniA84B.ini;
},
{
glyphname = uniA862.ini;
lastChange = "2016-11-30 01:16:01 +0000";
layers = (
{
layerId = "6DB8F2EA-3A56-43BC-93C3-749D7507B9DF";
paths = (
{
closed = 1;
nodes = (
"1184 -115 LINE",
"1184 41 LINE",
"295 41 LINE",
"295 596 LINE",
"436 517 OFFCURVE",
"607 489 OFFCURVE",
"827 489 CURVE",
"887 774 OFFCURVE",
"1006 1016 OFFCURVE",
"1184 1217 CURVE",
"1552 1217 LINE",
"1552 1372 LINE",
"143 1372 LINE",
"143 -115 LINE"
);
},
{
closed = 1;
nodes = (
"545 652 OFFCURVE",
"426 680 OFFCURVE",
"295 768 CURVE",
"295 1217 LINE",
"791 1217 LINE SMOOTH",
"871 1217 OFFCURVE",
"941 1218 OFFCURVE",
"1001 1221 CURVE",
"1001 1212 LINE",
"862 1052 OFFCURVE",
"761 839 OFFCURVE",
"717 647 CURVE"
);
}
);
width = 1511;
}
);
note = uniA862.ini;
},
{
glyphname = uniA848.ini;
lastChange = "2016-11-30 01:15:49 +0000";
layers = (
{
layerId = "6DB8F2EA-3A56-43BC-93C3-749D7507B9DF";
paths = (
{
closed = 1;
nodes = (
"1286 -115 LINE",
"1286 41 LINE",
"295 41 LINE",
"295 489 LINE",
"1286 489 LINE",
"1286 645 LINE",
"739 645 LINE",
"670 727 OFFCURVE",
"635 827 OFFCURVE",
"635 946 CURVE SMOOTH",
"635 1093 OFFCURVE",
"727 1169 OFFCURVE",
"850 1169 CURVE SMOOTH",
"960 1169 OFFCURVE",
"1063 1125 OFFCURVE",
"1159 1036 CURVE",
"1230 1165 OFFCURVE",
"1303 1217 OFFCURVE",
"1448 1217 CURVE SMOOTH",
"1655 1217 LINE",
"1655 1372 LINE",
"1421 1372 LINE SMOOTH",
"1260 1372 OFFCURVE",
"1181 1333 OFFCURVE",
"1118 1253 CURVE",
"1044 1306 OFFCURVE",
"955 1333 OFFCURVE",
"850 1333 CURVE SMOOTH",
"629 1333 OFFCURVE",
"475 1171 OFFCURVE",
"475 946 CURVE SMOOTH",
"475 815 OFFCURVE",
"500 730 OFFCURVE",
"563 645 CURVE",
"295 645 LINE",
"295 1372 LINE",
"143 1372 LINE",
"143 -115 LINE"
);
}
);
width = 1614;
}
);
note = uniA848.ini;
},
{
glyphname = uniA860.ini.cnt;
lastChange = "2016-11-30 01:16:01 +0000";
layers = (
{
layerId = "6DB8F2EA-3A56-43BC-93C3-749D7507B9DF";
paths = (
{
closed = 1;
nodes = (
"295 -115 LINE",
"295 1217 LINE",
"643 1217 LINE",
"643 -115 LINE",
"893 -115 LINE",
"944 68 OFFCURVE",
"997 205 OFFCURVE",
"1050 297 CURVE SMOOTH",
"1156 481 OFFCURVE",
"1277 551 OFFCURVE",
"1544 551 CURVE SMOOTH",
"1585 551 LINE",
"1585 707 LINE",
"1544 707 LINE SMOOTH",
"1405 707 OFFCURVE",
"1290 685 OFFCURVE",
"1199 642 CURVE SMOOTH",
"1018 555 OFFCURVE",
"892 372 OFFCURVE",
"797 51 CURVE",
"788 51 LINE",
"793 98 OFFCURVE",
"795 173 OFFCURVE",
"795 276 CURVE SMOOTH",
"795 1217 LINE",
"1352 1217 LINE",
"1352 1372 LINE",
"143 1372 LINE",
"143 -115 LINE"
);
}
);
width = 1544;
}
);
note = uniA860.ini.cnt;
},
{
glyphname = uniA860.med.cnt;
lastChange = "2016-11-30 01:16:01 +0000";
layers = (
{
layerId = "6DB8F2EA-3A56-43BC-93C3-749D7507B9DF";
paths = (
{
closed = 1;
nodes = (
"250 -115 LINE",
"301 68 OFFCURVE",
"354 205 OFFCURVE",
"407 297 CURVE SMOOTH",
"513 481 OFFCURVE",
"634 551 OFFCURVE",
"901 551 CURVE SMOOTH",
"942 551 LINE",
"942 707 LINE",
"901 707 LINE SMOOTH",
"762 707 OFFCURVE",
"647 685 OFFCURVE",
"556 642 CURVE SMOOTH",
"375 555 OFFCURVE",
"249 372 OFFCURVE",
"154 51 CURVE",
"145 51 LINE",
"150 98 OFFCURVE",
"152 173 OFFCURVE",
"152 276 CURVE SMOOTH",
"152 1217 LINE",
"709 1217 LINE",
"709 1372 LINE",
"0 1372 LINE",
"0 -115 LINE"
);
}
);
width = 901;
}
);
note = uniA860.med.cnt;
},
{
glyphname = uniA85E.ini.cnt;
lastChange = "2016-11-30 01:16:01 +0000";
layers = (
{
layerId = "6DB8F2EA-3A56-43BC-93C3-749D7507B9DF";
paths = (
{
closed = 1;
nodes = (
"1093 -127 OFFCURVE",
"1231 40 OFFCURVE",
"1231 299 CURVE SMOOTH",
"1231 397 OFFCURVE",
"1205 481 OFFCURVE",
"1153 551 CURVE",
"1497 551 LINE",
"1497 707 LINE",
"967 707 LINE",
"897 575 LINE",
"1013 517 OFFCURVE",
"1071 426 OFFCURVE",
"1071 303 CURVE SMOOTH",
"1071 134 OFFCURVE",
"999 37 OFFCURVE",
"848 37 CURVE SMOOTH",
"705 37 OFFCURVE",
"621 133 OFFCURVE",
"621 313 CURVE SMOOTH",
"621 645 OFFCURVE",
"818 929 OFFCURVE",
"1231 1217 CURVE",
"1231 1372 LINE",
"143 1372 LINE",
"143 -115 LINE",
"295 -115 LINE",
"295 1217 LINE",
"809 1217 LINE SMOOTH",
"893 1217 OFFCURVE",
"958 1219 OFFCURVE",
"1004 1223 CURVE",
"1004 1214 LINE",
"660 970 OFFCURVE",
"461 637 OFFCURVE",
"461 313 CURVE SMOOTH",
"461 41 OFFCURVE",
"611 -127 OFFCURVE",
"848 -127 CURVE SMOOTH"
);
}
);
width = 1456;
}
);
note = uniA85E.ini.cnt;
},
{
glyphname = uniA85E.med.cnt;
lastChange = "2016-11-30 01:16:01 +0000";
layers = (
{
layerId = "6DB8F2EA-3A56-43BC-93C3-749D7507B9DF";
paths = (
{
closed = 1;
nodes = (
"632 -127 OFFCURVE",
"770 40 OFFCURVE",
"770 299 CURVE SMOOTH",
"770 397 OFFCURVE",
"744 481 OFFCURVE",
"692 551 CURVE",
"1036 551 LINE",
"1036 707 LINE",
"506 707 LINE",
"436 575 LINE",
"552 517 OFFCURVE",
"610 426 OFFCURVE",
"610 303 CURVE SMOOTH",
"610 134 OFFCURVE",
"538 37 OFFCURVE",
"387 37 CURVE SMOOTH",
"246 37 OFFCURVE",
"160 133 OFFCURVE",
"160 313 CURVE SMOOTH",
"160 645 OFFCURVE",
"357 929 OFFCURVE",
"770 1217 CURVE",
"770 1372 LINE",
"0 1372 LINE",
"0 1217 LINE",
"348 1217 LINE SMOOTH",
"433 1217 OFFCURVE",
"498 1219 OFFCURVE",
"543 1223 CURVE",
"543 1214 LINE",
"199 970 OFFCURVE",
"0 637 OFFCURVE",
"0 313 CURVE SMOOTH",
"0 41 OFFCURVE",
"150 -127 OFFCURVE",
"387 -127 CURVE SMOOTH"
);
}
);
width = 995;
}
);
note = uniA85E.med.cnt;
},
{
glyphname = uniA85C.ini.cnt;
lastChange = "2016-11-30 01:16:01 +0000";
layers = (
{
layerId = "6DB8F2EA-3A56-43BC-93C3-749D7507B9DF";
paths = (
{
closed = 1;
nodes = (
"295 -115 LINE",
"295 229 LINE",
"429 131 OFFCURVE",
"569 46 OFFCURVE",
"715 -25 CURVE",
"784 121 OFFCURVE",
"872 290 OFFCURVE",
"979 483 CURVE",
"712 600 OFFCURVE",
"635 705 OFFCURVE",
"635 844 CURVE SMOOTH",
"635 1000 OFFCURVE",
"731 1085 OFFCURVE",
"879 1085 CURVE SMOOTH",
"1043 1085 OFFCURVE",
"1106 1014 OFFCURVE",
"1179 837 CURVE SMOOTH",
"1252 660 OFFCURVE",
"1347 551 OFFCURVE",
"1526 551 CURVE SMOOTH",
"1567 551 LINE",
"1567 707 LINE",
"1526 707 LINE SMOOTH",
"1425 707 OFFCURVE",
"1378 759 OFFCURVE",
"1295 952 CURVE SMOOTH",
"1212 1145 OFFCURVE",
"1082 1249 OFFCURVE",
"879 1249 CURVE SMOOTH",
"638 1249 OFFCURVE",
"475 1079 OFFCURVE",
"475 844 CURVE SMOOTH",
"475 639 OFFCURVE",
"590 507 OFFCURVE",
"770 412 CURVE",
"734 350 OFFCURVE",
"694 273 OFFCURVE",
"651 180 CURVE",
"525 247 OFFCURVE",
"406 327 OFFCURVE",
"295 418 CURVE",
"295 1372 LINE",
"143 1372 LINE",
"143 -115 LINE"
);
}
);
width = 1526;
}
);
note = uniA85C.ini.cnt;
},
{
glyphname = uniA848.ini.cnt;
lastChange = "2016-11-30 01:15:49 +0000";
layers = (
{
layerId = "6DB8F2EA-3A56-43BC-93C3-749D7507B9DF";
paths = (
{
closed = 1;
nodes = (
"1286 -115 LINE",
"1286 41 LINE",
"295 41 LINE",
"295 551 LINE",
"1511 551 LINE",
"1511 707 LINE",
"729 707 LINE",
"666 786 OFFCURVE",
"635 882 OFFCURVE",
"635 995 CURVE SMOOTH",
"635 1143 OFFCURVE",
"727 1219 OFFCURVE",
"850 1219 CURVE SMOOTH",
"959 1219 OFFCURVE",
"1062 1174 OFFCURVE",
"1159 1085 CURVE",
"1204 1176 OFFCURVE",
"1256 1271 OFFCURVE",
"1313 1372 CURVE",
"1141 1372 LINE",
"1102 1300 LINE",
"1031 1355 OFFCURVE",
"947 1382 OFFCURVE",
"850 1382 CURVE SMOOTH",
"630 1382 OFFCURVE",
"475 1222 OFFCURVE",
"475 995 CURVE SMOOTH",
"475 872 OFFCURVE",
"498 786 OFFCURVE",
"553 707 CURVE",
"295 707 LINE",
"295 1372 LINE",
"143 1372 LINE",
"143 -115 LINE"
);
}
);
width = 1470;
}
);
note = uniA848.ini.cnt;
},
{
glyphname = uniA84B.ini.cnt;
lastChange = "2016-11-30 01:16:01 +0000";
layers = (
{
layerId = "6DB8F2EA-3A56-43BC-93C3-749D7507B9DF";
paths = (
{
closed = 1;
nodes = (
"1093 -127 OFFCURVE",
"1231 40 OFFCURVE",
"1231 299 CURVE SMOOTH",
"1231 403 OFFCURVE",
"1200 496 OFFCURVE",
"1137 578 CURVE",
"1139 584 LINE",
"1214 562 OFFCURVE",
"1306 551 OFFCURVE",
"1415 551 CURVE SMOOTH",
"1497 551 LINE",
"1497 707 LINE",
"1415 707 LINE SMOOTH",
"1218 707 OFFCURVE",
"1040 737 OFFCURVE",
"809 836 CURVE",
"907 961 OFFCURVE",
"1048 1088 OFFCURVE",
"1231 1217 CURVE",
"1231 1372 LINE",
"143 1372 LINE",
"143 -115 LINE",
"295 -115 LINE",
"295 1217 LINE",
"809 1217 LINE SMOOTH",
"893 1217 OFFCURVE",
"958 1219 OFFCURVE",
"1004 1223 CURVE",
"1004 1214 LINE",
"660 970 OFFCURVE",
"461 637 OFFCURVE",
"461 313 CURVE SMOOTH",
"461 41 OFFCURVE",
"611 -127 OFFCURVE",
"848 -127 CURVE SMOOTH"
);
},
{
closed = 1;
nodes = (
"705 37 OFFCURVE",
"621 133 OFFCURVE",
"621 313 CURVE SMOOTH",
"621 450 OFFCURVE",
"655 580 OFFCURVE",
"723 705 CURVE",
"971 617 OFFCURVE",
"1071 470 OFFCURVE",
"1071 303 CURVE SMOOTH",
"1071 134 OFFCURVE",
"999 37 OFFCURVE",
"848 37 CURVE SMOOTH"
);
}
);
width = 1456;
}
);
note = uniA84B.ini.cnt;
},
{
glyphname = uniA841.ini;
lastChange = "2016-11-30 01:16:01 +0000";
layers = (
{
layerId = "6DB8F2EA-3A56-43BC-93C3-749D7507B9DF";
paths = (
{
closed = 1;
nodes = (
"1356 -115 LINE",
"1341 -62 OFFCURVE",
"1328 -10 OFFCURVE",
"1319 41 CURVE",
"295 41 LINE",
"295 764 LINE",
"561 764 LINE",
"561 311 LINE",
"1253 311 LINE",
"1212 496 OFFCURVE",
"1192 673 OFFCURVE",
"1192 842 CURVE SMOOTH",
"1192 969 OFFCURVE",
"1202 1094 OFFCURVE",
"1223 1217 CURVE",
"1647 1217 LINE",
"1647 1372 LINE",
"561 1372 LINE",
"561 920 LINE",
"295 920 LINE",
"295 1372 LINE",
"143 1372 LINE",
"143 -115 LINE"
);
},
{
closed = 1;
nodes = (
"713 1217 LINE",
"1069 1217 LINE",
"1050 1106 OFFCURVE",
"1040 981 OFFCURVE",
"1040 842 CURVE SMOOTH",
"1040 703 OFFCURVE",
"1050 578 OFFCURVE",
"1069 467 CURVE",
"713 467 LINE"
);
}
);
width = 1606;
}
);
note = uniA841.ini;
},
{
glyphname = uniA857.ini.cnt;
lastChange = "2016-11-30 01:16:01 +0000";
layers = (
{
layerId = "6DB8F2EA-3A56-43BC-93C3-749D7507B9DF";
paths = (
{
closed = 1;
nodes = (
"586 -115 LINE SMOOTH",
"855 -115 OFFCURVE",
"1038 47 OFFCURVE",
"1038 295 CURVE SMOOTH",
"1038 399 OFFCURVE",
"999 490 OFFCURVE",
"928 547 CURVE",
"928 555 LINE",
"980 552 OFFCURVE",
"1043 551 OFFCURVE",
"1116 551 CURVE SMOOTH",
"1309 551 LINE",
"1309 707 LINE",
"805 707 LINE",
"856 922 OFFCURVE",
"991 1153 OFFCURVE",
"1171 1372 CURVE",
"143 1372 LINE",
"143 1217 LINE",
"868 1217 LINE",
"769 1062 OFFCURVE",
"695 892 OFFCURVE",
"647 707 CURVE",
"143 707 LINE",
"143 551 LINE",
"586 551 LINE SMOOTH",
"767 551 OFFCURVE",
"879 458 OFFCURVE",
"879 295 CURVE SMOOTH",
"879 131 OFFCURVE",
"766 41 OFFCURVE",
"586 41 CURVE SMOOTH",
"143 41 LINE",
"143 -115 LINE"
);
}
);
width = 1268;
}
);
note = uniA857.ini.cnt;
},
{
glyphname = uniA85F.med.cnt;
lastChange = "2016-11-30 01:16:01 +0000";
layers = (
{
layerId = "6DB8F2EA-3A56-43BC-93C3-749D7507B9DF";
paths = (
{
closed = 1;
nodes = (
"633 -115 OFFCURVE",
"933 134 OFFCURVE",
"944 551 CURVE",
"1192 551 LINE",
"1192 707 LINE",
"932 707 LINE",
"876 947 OFFCURVE",
"695 1090 OFFCURVE",
"444 1090 CURVE SMOOTH",
"164 1090 OFFCURVE",
"-20 908 OFFCURVE",
"-20 639 CURVE SMOOTH",
"-20 410 OFFCURVE",
"109 285 OFFCURVE",
"297 285 CURVE SMOOTH",
"472 285 OFFCURVE",
"594 411 OFFCURVE",
"594 588 CURVE SMOOTH",
"594 618 OFFCURVE",
"591 645 OFFCURVE",
"584 670 CURVE",
"428 639 LINE",
"432 624 OFFCURVE",
"434 607 OFFCURVE",
"434 588 CURVE SMOOTH",
"434 505 OFFCURVE",
"388 449 OFFCURVE",
"297 449 CURVE SMOOTH",
"204 449 OFFCURVE",
"139 514 OFFCURVE",
"139 639 CURVE SMOOTH",
"139 815 OFFCURVE",
"259 926 OFFCURVE",
"444 926 CURVE SMOOTH",
"653 926 OFFCURVE",
"786 788 OFFCURVE",
"786 573 CURVE SMOOTH",
"786 233 OFFCURVE",
"563 41 OFFCURVE",
"164 41 CURVE",
"164 -115 LINE"
);
},
{
closed = 1;
nodes = (
"926 1217 LINE",
"926 1372 LINE",
"0 1372 LINE",
"0 1217 LINE"
);
}
);
width = 1151;
}
);
note = uniA85F.med.cnt;
},
{
glyphname = uniA854.ini;
lastChange = "2016-11-30 01:16:01 +0000";
layers = (
{
layerId = "6DB8F2EA-3A56-43BC-93C3-749D7507B9DF";
paths = (
{
closed = 1;
nodes = (
"1300 -115 LINE",
"1300 41 LINE",
"295 41 LINE",
"295 1217 LINE",
"459 1217 LINE SMOOTH",
"570 1217 OFFCURVE",
"660 1204 OFFCURVE",
"729 1178 CURVE",
"585 1041 OFFCURVE",
"502 856 OFFCURVE",
"502 651 CURVE SMOOTH",
"502 395 OFFCURVE",
"641 242 OFFCURVE",
"868 242 CURVE SMOOTH",
"1095 242 OFFCURVE",
"1235 395 OFFCURVE",
"1235 651 CURVE SMOOTH",
"1235 856 OFFCURVE",
"1149 1041 OFFCURVE",
"1008 1178 CURVE",
"1074 1204 OFFCURVE",
"1164 1217 OFFCURVE",
"1278 1217 CURVE SMOOTH",
"1655 1217 LINE",
"1655 1372 LINE",
"1264 1372 LINE SMOOTH",
"1105 1372 OFFCURVE",
"983 1347 OFFCURVE",
"868 1282 CURVE",
"753 1347 OFFCURVE",
"632 1372 OFFCURVE",
"473 1372 CURVE SMOOTH",
"143 1372 LINE",
"143 -115 LINE"
);
},
{
closed = 1;
nodes = (
"737 406 OFFCURVE",
"662 487 OFFCURVE",
"662 651 CURVE SMOOTH",
"662 815 OFFCURVE",
"729 969 OFFCURVE",
"868 1090 CURVE",
"1008 969 OFFCURVE",
"1075 815 OFFCURVE",
"1075 651 CURVE SMOOTH",
"1075 487 OFFCURVE",
"1000 406 OFFCURVE",
"868 406 CURVE SMOOTH"
);
}
);
width = 1614;
}
);
note = uniA854.ini;
},
{
glyphname = uniA84F.ini.cnt;
lastChange = "2016-11-30 01:16:01 +0000";
layers = (
{
layerId = "6DB8F2EA-3A56-43BC-93C3-749D7507B9DF";
paths = (
{
closed = 1;
nodes = (
"1089 -127 OFFCURVE",
"1231 22 OFFCURVE",
"1231 279 CURVE SMOOTH",
"1231 376 OFFCURVE",
"1210 467 OFFCURVE",
"1169 551 CURVE",
"1497 551 LINE",
"1497 707 LINE",
"1055 707 LINE",
"996 761 OFFCURVE",
"929 806 OFFCURVE",
"854 842 CURVE",
"942 965 OFFCURVE",
"1068 1090 OFFCURVE",
"1231 1217 CURVE",
"1231 1372 LINE",
"143 1372 LINE",
"143 1217 LINE",
"809 1217 LINE SMOOTH",
"893 1217 OFFCURVE",
"958 1219 OFFCURVE",
"1004 1223 CURVE",
"1004 1214 LINE",
"889 1127 OFFCURVE",
"789 1020 OFFCURVE",
"705 895 CURVE",
"586 928 OFFCURVE",
"455 944 OFFCURVE",
"311 944 CURVE SMOOTH",
"143 944 LINE",
"143 -115 LINE",
"295 -115 LINE",
"295 788 LINE",
"424 788 OFFCURVE",
"533 777 OFFCURVE",
"623 756 CURVE",
"542 599 OFFCURVE",
"502 444 OFFCURVE",
"502 293 CURVE SMOOTH",
"502 30 OFFCURVE",
"641 -127 OFFCURVE",
"868 -127 CURVE SMOOTH"
);
},
{
closed = 1;
nodes = (
"737 37 OFFCURVE",
"662 126 OFFCURVE",
"662 293 CURVE SMOOTH",
"662 435 OFFCURVE",
"698 574 OFFCURVE",
"770 709 CURVE",
"971 623 OFFCURVE",
"1071 481 OFFCURVE",
"1071 283 CURVE SMOOTH",
"1071 127 OFFCURVE",
"1005 37 OFFCURVE",
"868 37 CURVE SMOOTH"
);
}
);
width = 1456;
}
);
note = uniA84F.ini.cnt;
},
{
glyphname = uniA850.ini;
lastChange = "2016-11-30 01:16:01 +0000";
layers = (
{
layerId = "6DB8F2EA-3A56-43BC-93C3-749D7507B9DF";
paths = (
{
closed = 1;
nodes = (
"295 -115 LINE",
"295 551 LINE",
"475 551 LINE",
"514 398 OFFCURVE",
"632 315 OFFCURVE",
"793 315 CURVE SMOOTH",
"848 315 OFFCURVE",
"893 327 OFFCURVE",
"930 350 CURVE",
"874 504 LINE",
"854 487 OFFCURVE",
"827 479 OFFCURVE",
"793 479 CURVE SMOOTH",
"680 479 OFFCURVE",
"623 539 OFFCURVE",
"623 659 CURVE SMOOTH",
"623 786 OFFCURVE",
"705 885 OFFCURVE",
"866 885 CURVE SMOOTH",
"1039 885 OFFCURVE",
"1147 752 OFFCURVE",
"1147 553 CURVE SMOOTH",
"1147 225 OFFCURVE",
"933 41 OFFCURVE",
"565 41 CURVE",
"565 -115 LINE",
"1029 -115 OFFCURVE",
"1307 148 OFFCURVE",
"1307 553 CURVE SMOOTH",
"1307 814 OFFCURVE",
"1166 1000 OFFCURVE",
"958 1040 CURVE",
"958 1217 LINE",
"1655 1217 LINE",
"1655 1372 LINE",
"143 1372 LINE",
"143 -115 LINE"
);
},
{
closed = 1;
nodes = (
"295 1217 LINE",
"807 1217 LINE",
"807 1044 LINE",
"612 1024 OFFCURVE",
"482 890 OFFCURVE",
"465 707 CURVE",
"295 707 LINE"
);
}
);
width = 1614;
}
);
note = uniA850.ini;
},
{
glyphname = uniA846.ini;
lastChange = "2016-11-30 01:15:49 +0000";
layers = (
{
layerId = "6DB8F2EA-3A56-43BC-93C3-749D7507B9DF";
paths = (
{
closed = 1;
nodes = (
"1343 -115 LINE",
"1290 78 OFFCURVE",
"1264 297 OFFCURVE",
"1264 541 CURVE SMOOTH",
"1264 834 OFFCURVE",
"1291 1012 OFFCURVE",
"1364 1217 CURVE",
"1716 1217 LINE",
"1716 1372 LINE",
"1262 1372 LINE",
"1158 1132 OFFCURVE",
"1112 877 OFFCURVE",
"1112 541 CURVE SMOOTH",
"1112 354 OFFCURVE",
"1126 187 OFFCURVE",
"1153 41 CURVE",
"795 41 LINE",
"795 1372 LINE",
"643 1372 LINE",
"643 41 LINE",
"295 41 LINE",
"295 1372 LINE",
"143 1372 LINE",
"143 -115 LINE"
);
}
);
width = 1675;
}
);
note = uniA846.ini;
},
{
glyphname = uniA849.ini;
lastChange = "2016-11-30 01:16:01 +0000";
layers = (
{
layerId = "6DB8F2EA-3A56-43BC-93C3-749D7507B9DF";
paths = (
{
closed = 1;
nodes = (
"295 -115 LINE",
"295 137 LINE",
"394 30 OFFCURVE",
"554 -47 OFFCURVE",
"774 -94 CURVE",
"774 78 LINE",
"901 -47 OFFCURVE",
"1098 -115 OFFCURVE",
"1303 -115 CURVE",
"1250 81 OFFCURVE",
"1223 300 OFFCURVE",
"1223 541 CURVE SMOOTH",
"1223 834 OFFCURVE",
"1250 1012 OFFCURVE",
"1323 1217 CURVE",
"1675 1217 LINE",
"1675 1372 LINE",
"143 1372 LINE",
"143 -115 LINE"
);
},
{
closed = 1;
nodes = (
"482 147 OFFCURVE",
"373 225 OFFCURVE",
"295 340 CURVE",
"295 1217 LINE",
"623 1217 LINE",
"623 104 LINE"
);
},
{
closed = 1;
nodes = (
"966 97 OFFCURVE",
"855 167 OFFCURVE",
"774 274 CURVE",
"774 1217 LINE",
"1161 1217 LINE",
"1101 1028 OFFCURVE",
"1071 803 OFFCURVE",
"1071 541 CURVE SMOOTH",
"1071 360 OFFCURVE",
"1083 202 OFFCURVE",
"1108 66 CURVE"
);
}
);
width = 1634;
}
);
note = uniA849.ini;
},
{
glyphname = uniA84A.ini;
lastChange = "2016-11-30 01:16:01 +0000";
layers = (
{
layerId = "6DB8F2EA-3A56-43BC-93C3-749D7507B9DF";
paths = (
{
closed = 1;
nodes = (
"295 -115 LINE",
"295 117 LINE",
"427 -28 OFFCURVE",
"645 -115 OFFCURVE",
"885 -115 CURVE",
"832 81 OFFCURVE",
"805 300 OFFCURVE",
"805 541 CURVE SMOOTH",
"805 837 OFFCURVE",
"833 1006 OFFCURVE",
"905 1217 CURVE",
"1257 1217 LINE",
"1257 1372 LINE",
"803 1372 LINE",
"699 1132 OFFCURVE",
"653 877 OFFCURVE",
"653 541 CURVE SMOOTH",
"653 368 OFFCURVE",
"665 209 OFFCURVE",
"690 66 CURVE",
"522 100 OFFCURVE",
"390 183 OFFCURVE",
"295 315 CURVE",
"295 1372 LINE",
"143 1372 LINE",
"143 -115 LINE"
);
}
);
width = 1217;
}
);
note = uniA84A.ini;
},
{
glyphname = uniA844.ini;
lastChange = "2016-11-30 01:16:01 +0000";
layers = (
{
layerId = "6DB8F2EA-3A56-43BC-93C3-749D7507B9DF";
paths = (
{
closed = 1;
nodes = (
"295 -115 LINE",
"295 1217 LINE",
"643 1217 LINE",
"643 -115 LINE",
"1343 -115 LINE",
"1290 78 OFFCURVE",
"1264 297 OFFCURVE",
"1264 541 CURVE SMOOTH",
"1264 834 OFFCURVE",
"1291 1012 OFFCURVE",
"1364 1217 CURVE",
"1718 1217 LINE",
"1718 1372 LINE",
"143 1372 LINE",
"143 -115 LINE"
);
},
{
closed = 1;
nodes = (
"795 1217 LINE",
"1202 1217 LINE",
"1142 1028 OFFCURVE",
"1112 803 OFFCURVE",
"1112 541 CURVE SMOOTH",
"1112 354 OFFCURVE",
"1126 187 OFFCURVE",
"1153 41 CURVE",
"795 41 LINE"
);
}
);
width = 1677;
}
);
note = uniA844.ini;
},
{
glyphname = uniA845.ini;
lastChange = "2016-11-30 01:16:01 +0000";
layers = (
{
layerId = "6DB8F2EA-3A56-43BC-93C3-749D7507B9DF";
paths = (
{
closed = 1;
nodes = (
"295 -115 LINE",
"295 551 LINE",
"561 551 LINE",
"561 -115 LINE",
"1272 -115 LINE",
"1219 81 OFFCURVE",
"1192 300 OFFCURVE",
"1192 541 CURVE SMOOTH",
"1192 837 OFFCURVE",
"1220 1006 OFFCURVE",
"1292 1217 CURVE",
"1612 1217 LINE",
"1612 1372 LINE",
"561 1372 LINE",
"561 707 LINE",
"295 707 LINE",
"295 1372 LINE",
"143 1372 LINE",
"143 -115 LINE"
);
},
{
closed = 1;
nodes = (
"713 551 LINE",
"1040 551 LINE",
"1040 371 OFFCURVE",
"1054 201 OFFCURVE",
"1083 41 CURVE",
"713 41 LINE"
);
},
{
closed = 1;
nodes = (
"713 1217 LINE",
"1130 1217 LINE",
"1085 1070 OFFCURVE",
"1056 900 OFFCURVE",
"1044 707 CURVE",
"713 707 LINE"
);
}
);
width = 1571;
}
);
note = uniA845.ini;
},
{
glyphname = uniA84C.ini;
lastChange = "2016-11-30 01:16:01 +0000";
layers = (
{
layerId = "6DB8F2EA-3A56-43BC-93C3-749D7507B9DF";
paths = (
{
closed = 1;
nodes = (
"295 -115 LINE",
"295 711 LINE",
"643 711 LINE",
"643 -115 LINE",
"1354 -115 LINE",
"1301 81 OFFCURVE",
"1274 300 OFFCURVE",
"1274 541 CURVE SMOOTH",
"1274 837 OFFCURVE",
"1302 1006 OFFCURVE",
"1374 1217 CURVE",
"1726 1217 LINE",
"1726 1372 LINE",
"143 1372 LINE",
"143 1217 LINE",
"1212 1217 LINE",
"1152 1028 OFFCURVE",
"1122 803 OFFCURVE",
"1122 541 CURVE SMOOTH",
"1122 360 OFFCURVE",
"1136 194 OFFCURVE",
"1163 41 CURVE",
"795 41 LINE",
"795 866 LINE",
"143 866 LINE",
"143 -115 LINE"
);
}
);
width = 1686;
}
);
note = uniA84C.ini;
},
{
glyphname = uniA84D.ini;
lastChange = "2016-11-30 01:16:01 +0000";
layers = (
{
layerId = "6DB8F2EA-3A56-43BC-93C3-749D7507B9DF";
paths = (
{
closed = 1;
nodes = (
"295 -115 LINE",
"295 551 LINE",
"643 551 LINE",
"643 -115 LINE",
"1354 -115 LINE",
"1301 81 OFFCURVE",
"1274 300 OFFCURVE",
"1274 541 CURVE SMOOTH",
"1274 837 OFFCURVE",
"1302 1006 OFFCURVE",
"1374 1217 CURVE",
"1726 1217 LINE",
"1726 1372 LINE",
"143 1372 LINE",
"143 -115 LINE"
);
},
{
closed = 1;
nodes = (
"795 707 LINE",
"295 707 LINE",
"295 1217 LINE",
"1212 1217 LINE",
"1152 1028 OFFCURVE",
"1122 803 OFFCURVE",
"1122 541 CURVE SMOOTH",
"1122 360 OFFCURVE",
"1136 194 OFFCURVE",
"1163 41 CURVE",
"795 41 LINE"
);
}
);
width = 1686;
}
);
note = uniA84D.ini;
},
{
glyphname = uniA852.ini;
lastChange = "2016-11-30 01:16:01 +0000";
layers = (
{
layerId = "6DB8F2EA-3A56-43BC-93C3-749D7507B9DF";
paths = (
{
closed = 1;
nodes = (
"295 -115 LINE",
"295 152 LINE",
"643 152 LINE",
"643 -115 LINE",
"795 -115 LINE",
"795 551 LINE",
"1143 551 LINE",
"1143 -115 LINE",
"1294 -115 LINE",
"1294 553 LINE SMOOTH",
"1294 825 OFFCURVE",
"1322 1016 OFFCURVE",
"1395 1217 CURVE",
"1747 1217 LINE",
"1747 1372 LINE",
"143 1372 LINE",
"143 -115 LINE"
);
},
{
closed = 1;
nodes = (
"295 1217 LINE",
"1233 1217 LINE",
"1184 1065 OFFCURVE",
"1154 895 OFFCURVE",
"1145 707 CURVE",
"643 707 LINE",
"643 307 LINE",
"295 307 LINE"
);
}
);
width = 1706;
}
);
note = uniA852.ini;
},
{
glyphname = uniA855.ini;
lastChange = "2016-11-30 01:16:01 +0000";
layers = (
{
layerId = "6DB8F2EA-3A56-43BC-93C3-749D7507B9DF";
paths = (
{
closed = 1;
nodes = (
"295 -115 LINE",
"295 1217 LINE",
"643 1217 LINE",
"643 -115 LINE",
"795 -115 LINE",
"795 1217 LINE",
"1202 1217 LINE",
"1142 1028 OFFCURVE",
"1112 803 OFFCURVE",
"1112 541 CURVE SMOOTH",
"1112 297 OFFCURVE",
"1138 78 OFFCURVE",
"1190 -115 CURVE",
"1343 -115 LINE",
"1290 78 OFFCURVE",
"1264 297 OFFCURVE",
"1264 541 CURVE SMOOTH",
"1264 834 OFFCURVE",
"1291 1012 OFFCURVE",
"1364 1217 CURVE",
"1716 1217 LINE",
"1716 1372 LINE",
"143 1372 LINE",
"143 -115 LINE"
);
}
);
width = 1675;
}
);
note = uniA855.ini;
},
{
glyphname = uniA856.ini;
lastChange = "2016-11-30 01:16:01 +0000";
layers = (
{
layerId = "6DB8F2EA-3A56-43BC-93C3-749D7507B9DF";
paths = (
{
closed = 1;
nodes = (
"1434 -115 LINE",
"1419 -62 OFFCURVE",
"1406 -10 OFFCURVE",
"1397 41 CURVE",
"295 41 LINE",
"295 1217 LINE",
"643 1217 LINE",
"643 391 LINE",
"1335 391 LINE",
"1294 561 OFFCURVE",
"1274 724 OFFCURVE",
"1274 881 CURVE SMOOTH",
"1274 997 OFFCURVE",
"1284 1109 OFFCURVE",
"1303 1217 CURVE",
"1729 1217 LINE",
"1729 1372 LINE",
"1182 1372 LINE",
"1142 1226 OFFCURVE",
"1122 1062 OFFCURVE",
"1122 881 CURVE SMOOTH",
"1122 756 OFFCURVE",
"1132 645 OFFCURVE",
"1151 547 CURVE",
"795 547 LINE",
"795 1372 LINE",
"143 1372 LINE",
"143 -115 LINE"
);
}
);
width = 1688;
}
);
note = uniA856.ini;
},
{
glyphname = uniA858.ini;
lastChange = "2016-11-30 01:16:01 +0000";
layers = (
{
layerId = "6DB8F2EA-3A56-43BC-93C3-749D7507B9DF";
paths = (
{
closed = 1;
nodes = (
"295 -115 LINE",
"295 551 LINE",
"653 551 LINE",
"653 300 OFFCURVE",
"679 78 OFFCURVE",
"731 -115 CURVE",
"885 -115 LINE",
"832 81 OFFCURVE",
"805 300 OFFCURVE",
"805 541 CURVE SMOOTH",
"805 837 OFFCURVE",
"833 1006 OFFCURVE",
"905 1217 CURVE",
"1257 1217 LINE",
"1257 1372 LINE",
"803 1372 LINE",
"720 1185 OFFCURVE",
"672 964 OFFCURVE",
"657 707 CURVE",
"295 707 LINE",
"295 1372 LINE",
"143 1372 LINE",
"143 -115 LINE"
);
}
);
width = 1217;
}
);
note = uniA858.ini;
},
{
glyphname = uniA866.ini;
lastChange = "2016-11-30 01:15:49 +0000";
layers = (
{
layerId = "6DB8F2EA-3A56-43BC-93C3-749D7507B9DF";
paths = (
{
closed = 1;
nodes = (
"844 -115 LINE",
"791 81 OFFCURVE",
"764 300 OFFCURVE",
"764 541 CURVE SMOOTH",
"764 837 OFFCURVE",
"792 1006 OFFCURVE",
"864 1217 CURVE",
"1217 1217 LINE",
"1217 1372 LINE",
"762 1372 LINE",
"658 1132 OFFCURVE",
"612 877 OFFCURVE",
"612 541 CURVE SMOOTH",
"612 354 OFFCURVE",
"626 188 OFFCURVE",
"655 41 CURVE",
"295 41 LINE",
"295 1372 LINE",
"143 1372 LINE",
"143 -115 LINE"
);
}
);
width = 1176;
}
);
note = uniA866.ini;
},
{
glyphname = uniA85A.ini;
lastChange = "2016-11-30 01:16:01 +0000";
layers = (
{
layerId = "6DB8F2EA-3A56-43BC-93C3-749D7507B9DF";
paths = (
{
closed = 1;
nodes = (
"795 -115 LINE",
"795 711 LINE",
"1151 711 LINE",
"1132 612 OFFCURVE",
"1122 500 OFFCURVE",
"1122 377 CURVE SMOOTH",
"1122 195 OFFCURVE",
"1142 31 OFFCURVE",
"1182 -115 CURVE",
"1335 -115 LINE",
"1294 55 OFFCURVE",
"1274 219 OFFCURVE",
"1274 377 CURVE SMOOTH",
"1274 534 OFFCURVE",
"1294 697 OFFCURVE",
"1335 866 CURVE",
"643 866 LINE",
"643 41 LINE",
"295 41 LINE",
"295 1217 LINE",
"1729 1217 LINE",
"1729 1372 LINE",
"143 1372 LINE",
"143 -115 LINE"
);
}
);
width = 1688;
}
);
note = uniA85A.ini;
},
{
glyphname = uniA842.ini;
lastChange = "2016-11-30 01:16:01 +0000";
layers = (
{
layerId = "6DB8F2EA-3A56-43BC-93C3-749D7507B9DF";
paths = (
{
closed = 1;
nodes = (
"295 -115 LINE",
"295 338 LINE",
"561 338 LINE",
"561 -115 LINE",
"1253 -115 LINE",
"1212 70 OFFCURVE",
"1192 247 OFFCURVE",
"1192 416 CURVE SMOOTH",
"1192 585 OFFCURVE",
"1212 761 OFFCURVE",
"1253 946 CURVE",
"561 946 LINE",
"561 494 LINE",
"295 494 LINE",
"295 1217 LINE",
"1647 1217 LINE",
"1647 1372 LINE",
"143 1372 LINE",
"143 -115 LINE"
);
},
{
closed = 1;
nodes = (
"713 791 LINE",
"1069 791 LINE",
"1050 680 OFFCURVE",
"1040 555 OFFCURVE",
"1040 416 CURVE SMOOTH",
"1040 277 OFFCURVE",
"1050 152 OFFCURVE",
"1069 41 CURVE",
"713 41 LINE"
);
}
);
width = 1606;
}
);
note = uniA842.ini;
},
{
glyphname = uniA859.ini;
lastChange = "2016-11-30 01:15:49 +0000";
layers = (
{
layerId = "6DB8F2EA-3A56-43BC-93C3-749D7507B9DF";
paths = (
{
closed = 1;
nodes = (
"1425 -115 LINE",
"1410 -62 OFFCURVE",
"1398 -10 OFFCURVE",
"1389 41 CURVE",
"295 41 LINE",
"295 778 LINE",
"643 778 LINE",
"643 324 LINE",
"1335 324 LINE",
"1294 501 OFFCURVE",
"1274 675 OFFCURVE",
"1274 846 CURVE SMOOTH",
"1274 971 OFFCURVE",
"1284 1095 OFFCURVE",
"1305 1217 CURVE",
"1729 1217 LINE",
"1729 1372 LINE",
"143 1372 LINE",
"143 1217 LINE",
"1151 1217 LINE",
"1132 1109 OFFCURVE",
"1122 985 OFFCURVE",
"1122 846 CURVE SMOOTH",
"1122 709 OFFCURVE",
"1132 587 OFFCURVE",
"1151 479 CURVE",
"795 479 LINE",
"795 934 LINE",
"143 934 LINE",
"143 -115 LINE"
);
}
);
width = 1688;
}
);
note = uniA859.ini;
},
{
glyphname = uniA853.ini;
lastChange = "2016-11-30 01:16:01 +0000";
layers = (
{
layerId = "6DB8F2EA-3A56-43BC-93C3-749D7507B9DF";
paths = (
{
closed = 1;
nodes = (
"1475 -115 LINE",
"1460 -62 OFFCURVE",
"1447 -10 OFFCURVE",
"1438 41 CURVE",
"295 41 LINE",
"295 731 LINE",
"553 731 LINE",
"553 246 LINE",
"705 246 LINE",
"705 602 LINE",
"868 397 OFFCURVE",
"1156 246 OFFCURVE",
"1397 246 CURVE",
"1350 423 OFFCURVE",
"1327 611 OFFCURVE",
"1327 809 CURVE SMOOTH",
"1327 944 OFFCURVE",
"1339 1080 OFFCURVE",
"1362 1217 CURVE",
"1788 1217 LINE",
"1788 1372 LINE",
"1397 1372 LINE SMOOTH",
"1158 1372 OFFCURVE",
"877 1229 OFFCURVE",
"705 1014 CURVE",
"705 1372 LINE",
"553 1372 LINE",
"553 887 LINE",
"295 887 LINE",
"295 1372 LINE",
"143 1372 LINE",
"143 -115 LINE"
);
},
{
closed = 1;
nodes = (
"1017 493 OFFCURVE",
"833 629 OFFCURVE",
"705 809 CURVE",
"833 986 OFFCURVE",
"1017 1123 OFFCURVE",
"1202 1178 CURVE",
"1185 1065 OFFCURVE",
"1176 942 OFFCURVE",
"1176 809 CURVE SMOOTH",
"1176 677 OFFCURVE",
"1185 553 OFFCURVE",
"1202 438 CURVE"
);
}
);
width = 1747;
}
);
note = uniA853.ini;
},
{
glyphname = uniA867.ini;
lastChange = "2016-11-30 01:16:01 +0000";
layers = (
{
layerId = "6DB8F2EA-3A56-43BC-93C3-749D7507B9DF";
paths = (
{
closed = 1;
nodes = (
"707 -115 LINE",
"739 346 OFFCURVE",
"822 801 OFFCURVE",
"1022 1217 CURVE",
"1251 1217 LINE",
"1251 1372 LINE",
"82 1372 LINE",
"94 851 OFFCURVE",
"234 300 OFFCURVE",
"477 -115 CURVE"
);
},
{
closed = 1;
nodes = (
"380 407 OFFCURVE",
"277 777 OFFCURVE",
"242 1217 CURVE",
"852 1217 LINE",
"673 781 OFFCURVE",
"607 467 OFFCURVE",
"571 39 CURVE",
"563 39 LINE"
);
}
);
width = 1210;
}
);
note = uniA867.ini;
},
{
glyphname = uniA864.ini;
lastChange = "2016-11-30 01:16:01 +0000";
layers = (
{
layerId = "6DB8F2EA-3A56-43BC-93C3-749D7507B9DF";
paths = (
{
closed = 1;
nodes = (
"295 -115 LINE",
"295 229 LINE",
"429 131 OFFCURVE",
"569 46 OFFCURVE",
"715 -25 CURVE",
"784 121 OFFCURVE",
"872 290 OFFCURVE",
"979 483 CURVE",
"712 600 OFFCURVE",
"635 705 OFFCURVE",
"635 844 CURVE SMOOTH",
"635 985 OFFCURVE",
"717 1065 OFFCURVE",
"829 1065 CURVE SMOOTH",
"946 1065 OFFCURVE",
"1008 1023 OFFCURVE",
"1076 892 CURVE SMOOTH",
"1110 826 OFFCURVE",
"1144 731 OFFCURVE",
"1178 606 CURVE SMOOTH",
"1246 356 OFFCURVE",
"1351 86 OFFCURVE",
"1475 -115 CURVE",
"1724 -115 LINE",
"1712 -40 OFFCURVE",
"1706 55 OFFCURVE",
"1706 172 CURVE SMOOTH",
"1706 565 OFFCURVE",
"1767 894 OFFCURVE",
"1907 1217 CURVE",
"2200 1217 LINE",
"2200 1372 LINE",
"1743 1372 LINE SMOOTH",
"1418 1372 OFFCURVE",
"1229 1303 OFFCURVE",
"1057 1159 CURVE",
"993 1206 OFFCURVE",
"917 1229 OFFCURVE",
"829 1229 CURVE SMOOTH",
"629 1229 OFFCURVE",
"475 1064 OFFCURVE",
"475 844 CURVE SMOOTH",
"475 639 OFFCURVE",
"590 507 OFFCURVE",
"770 412 CURVE",
"734 350 OFFCURVE",
"694 273 OFFCURVE",
"651 180 CURVE",
"525 247 OFFCURVE",
"406 327 OFFCURVE",
"295 418 CURVE",
"295 1372 LINE",
"143 1372 LINE",
"143 -115 LINE"
);
},
{
closed = 1;
nodes = (
"1461 236 OFFCURVE",
"1388 423 OFFCURVE",
"1334 617 CURVE SMOOTH",
"1279 810 OFFCURVE",
"1222 954 OFFCURVE",
"1161 1047 CURVE",
"1290 1160 OFFCURVE",
"1456 1217 OFFCURVE",
"1739 1217 CURVE",
"1614 905 OFFCURVE",
"1554 579 OFFCURVE",
"1554 172 CURVE SMOOTH",
"1554 135 OFFCURVE",
"1557 96 OFFCURVE",
"1563 55 CURVE",
"1554 55 LINE"
);
}
);
width = 2159;
}
);
note = uniA864.ini;
},
{
glyphname = uniA865.ini;
lastChange = "2016-11-30 01:16:01 +0000";
layers = (
{
layerId = "6DB8F2EA-3A56-43BC-93C3-749D7507B9DF";
paths = (
{
closed = 1;
nodes = (
"1184 -115 LINE",
"1184 41 LINE",
"1007 240 OFFCURVE",
"888 482 OFFCURVE",
"827 768 CURVE",
"607 768 OFFCURVE",
"436 738 OFFCURVE",
"295 662 CURVE",
"295 1217 LINE",
"1552 1217 LINE",
"1552 1372 LINE",
"143 1372 LINE",
"143 -115 LINE"
);
},
{
closed = 1;
nodes = (
"941 40 OFFCURVE",
"871 41 OFFCURVE",
"791 41 CURVE SMOOTH",
"295 41 LINE",
"295 487 LINE",
"426 575 OFFCURVE",
"545 602 OFFCURVE",
"717 610 CURVE",
"761 419 OFFCURVE",
"862 204 OFFCURVE",
"1001 45 CURVE",
"1001 37 LINE"
);
}
);
width = 1511;
}
);
note = uniA865.ini;
},
{
glyphname = uniA865.ini.cnt;
lastChange = "2016-11-30 01:16:01 +0000";
layers = (
{
layerId = "6DB8F2EA-3A56-43BC-93C3-749D7507B9DF";
paths = (
{
closed = 1;
nodes = (
"1184 -115 LINE",
"1184 41 LINE",
"1042 184 OFFCURVE",
"937 354 OFFCURVE",
"870 551 CURVE",
"1450 551 LINE",
"1450 707 LINE",
"827 707 LINE SMOOTH",
"605 707 OFFCURVE",
"428 671 OFFCURVE",
"295 600 CURVE",
"295 1217 LINE",
"1184 1217 LINE",
"1184 1372 LINE",
"143 1372 LINE",
"143 -115 LINE"
);
},
{
closed = 1;
nodes = (
"941 40 OFFCURVE",
"871 41 OFFCURVE",
"791 41 CURVE SMOOTH",
"295 41 LINE",
"295 426 LINE",
"426 514 OFFCURVE",
"545 541 OFFCURVE",
"717 549 CURVE",
"761 377 OFFCURVE",
"862 185 OFFCURVE",
"1001 45 CURVE",
"1001 37 LINE"
);
}
);
width = 1409;
}
);
note = uniA865.ini.cnt;
},
{
glyphname = uniA869.ini;
lastChange = "2016-11-30 01:16:01 +0000";
layers = (
{
layerId = "6DB8F2EA-3A56-43BC-93C3-749D7507B9DF";
paths = (
{
closed = 1;
nodes = (
"295 -115 LINE",
"295 612 LINE",
"563 612 LINE",
"500 528 OFFCURVE",
"475 443 OFFCURVE",
"475 311 CURVE SMOOTH",
"475 83 OFFCURVE",
"633 -76 OFFCURVE",
"850 -76 CURVE SMOOTH",
"955 -76 OFFCURVE",
"1044 -49 OFFCURVE",
"1118 4 CURVE",
"1181 -75 OFFCURVE",
"1260 -115 OFFCURVE",
"1421 -115 CURVE SMOOTH",
"1655 -115 LINE",
"1655 41 LINE",
"1448 41 LINE SMOOTH",
"1303 41 OFFCURVE",
"1230 93 OFFCURVE",
"1159 221 CURVE",
"1062 132 OFFCURVE",
"959 88 OFFCURVE",
"850 88 CURVE SMOOTH",
"727 88 OFFCURVE",
"635 164 OFFCURVE",
"635 311 CURVE SMOOTH",
"635 430 OFFCURVE",
"670 530 OFFCURVE",
"739 612 CURVE",
"1286 612 LINE",
"1286 768 LINE",
"295 768 LINE",
"295 1217 LINE",
"1286 1217 LINE",
"1286 1372 LINE",
"143 1372 LINE",
"143 -115 LINE"
);
}
);
width = 1614;
}
);
note = uniA869.ini;
},
{
glyphname = uniA869.ini.cnt;
lastChange = "2016-11-30 01:16:01 +0000";
layers = (
{
layerId = "6DB8F2EA-3A56-43BC-93C3-749D7507B9DF";
paths = (
{
closed = 1;
nodes = (
"947 -125 OFFCURVE",
"1031 -98 OFFCURVE",
"1102 -43 CURVE",
"1141 -115 LINE",
"1313 -115 LINE",
"1256 -14 OFFCURVE",
"1204 81 OFFCURVE",
"1159 172 CURVE",
"1063 83 OFFCURVE",
"960 39 OFFCURVE",
"850 39 CURVE SMOOTH",
"727 39 OFFCURVE",
"635 115 OFFCURVE",
"635 262 CURVE SMOOTH",
"635 375 OFFCURVE",
"666 472 OFFCURVE",
"729 551 CURVE",
"1511 551 LINE",
"1511 707 LINE",
"295 707 LINE",
"295 1217 LINE",
"1286 1217 LINE",
"1286 1372 LINE",
"143 1372 LINE",
"143 -115 LINE",
"295 -115 LINE",
"295 551 LINE",
"553 551 LINE",
"498 472 OFFCURVE",
"475 385 OFFCURVE",
"475 262 CURVE SMOOTH",
"475 37 OFFCURVE",
"630 -125 OFFCURVE",
"850 -125 CURVE SMOOTH"
);
}
);
width = 1470;
}
);
note = uniA869.ini.cnt;
},
{
glyphname = uniA86A.ini;
lastChange = "2016-11-30 01:16:01 +0000";
layers = (
{
layerId = "6DB8F2EA-3A56-43BC-93C3-749D7507B9DF";
paths = (
{
closed = 1;
nodes = (
"1675 -115 LINE",
"1675 41 LINE",
"1323 41 LINE",
"1250 246 OFFCURVE",
"1223 425 OFFCURVE",
"1223 717 CURVE SMOOTH",
"1223 958 OFFCURVE",
"1250 1176 OFFCURVE",
"1303 1372 CURVE",
"1095 1372 OFFCURVE",
"897 1303 OFFCURVE",
"774 1180 CURVE",
"774 1352 LINE",
"555 1306 OFFCURVE",
"395 1229 OFFCURVE",
"295 1120 CURVE",
"295 1372 LINE",
"143 1372 LINE",
"143 -115 LINE"
);
},
{
closed = 1;
nodes = (
"295 915 LINE",
"376 1033 OFFCURVE",
"486 1112 OFFCURVE",
"623 1151 CURVE",
"623 41 LINE",
"295 41 LINE"
);
},
{
closed = 1;
nodes = (
"774 981 LINE",
"855 1090 OFFCURVE",
"967 1160 OFFCURVE",
"1108 1190 CURVE",
"1083 1053 OFFCURVE",
"1071 895 OFFCURVE",
"1071 717 CURVE SMOOTH",
"1071 454 OFFCURVE",
"1101 228 OFFCURVE",
"1161 41 CURVE",
"774 41 LINE"
);
}
);
width = 1634;
}
);
note = uniA86A.ini;
},
{
glyphname = uniA85F.mir.med;
lastChange = "2016-11-30 01:16:01 +0000";
layers = (
{
layerId = "6DB8F2EA-3A56-43BC-93C3-749D7507B9DF";
paths = (
{
closed = 1;
nodes = (
"740 168 OFFCURVE",
"946 381 OFFCURVE",
"946 684 CURVE SMOOTH",
"946 1112 OFFCURVE",
"651 1372 OFFCURVE",
"164 1372 CURVE",
"164 1217 LINE",
"565 1217 OFFCURVE",
"786 1021 OFFCURVE",
"786 684 CURVE SMOOTH",
"786 469 OFFCURVE",
"655 332 OFFCURVE",
"444 332 CURVE SMOOTH",
"259 332 OFFCURVE",
"139 443 OFFCURVE",
"139 618 CURVE SMOOTH",
"139 745 OFFCURVE",
"204 809 OFFCURVE",
"297 809 CURVE SMOOTH",
"388 809 OFFCURVE",
"434 751 OFFCURVE",
"434 670 CURVE SMOOTH",
"434 649 OFFCURVE",
"432 632 OFFCURVE",
"428 618 CURVE",
"584 588 LINE",
"591 613 OFFCURVE",
"594 640 OFFCURVE",
"594 670 CURVE SMOOTH",
"594 849 OFFCURVE",
"472 973 OFFCURVE",
"297 973 CURVE SMOOTH",
"109 973 OFFCURVE",
"-20 849 OFFCURVE",
"-20 618 CURVE SMOOTH",
"-20 349 OFFCURVE",
"164 168 OFFCURVE",
"444 168 CURVE SMOOTH"
);
},
{
closed = 1;
nodes = (
"1184 -115 LINE",
"1184 41 LINE",
"0 41 LINE",
"0 -115 LINE"
);
}
);
width = 1143;
}
);
note = uniA85F.mir.med;
},
{
glyphname = uniA85F.mir.med.cnt;
lastChange = "2016-11-30 01:16:01 +0000";
layers = (
{
layerId = "6DB8F2EA-3A56-43BC-93C3-749D7507B9DF";
paths = (
{
closed = 1;
nodes = (
"700 168 OFFCURVE",
"877 315 OFFCURVE",
"932 551 CURVE",
"1192 551 LINE",
"1192 707 LINE",
"944 707 LINE",
"932 1123 OFFCURVE",
"633 1372 OFFCURVE",
"164 1372 CURVE",
"164 1217 LINE",
"565 1217 OFFCURVE",
"786 1021 OFFCURVE",
"786 684 CURVE SMOOTH",
"786 469 OFFCURVE",
"655 332 OFFCURVE",
"444 332 CURVE SMOOTH",
"259 332 OFFCURVE",
"139 443 OFFCURVE",
"139 618 CURVE SMOOTH",
"139 745 OFFCURVE",
"204 809 OFFCURVE",
"297 809 CURVE SMOOTH",
"388 809 OFFCURVE",
"434 751 OFFCURVE",
"434 670 CURVE SMOOTH",
"434 649 OFFCURVE",
"432 632 OFFCURVE",
"428 618 CURVE",
"584 588 LINE",
"591 613 OFFCURVE",
"594 640 OFFCURVE",
"594 670 CURVE SMOOTH",
"594 849 OFFCURVE",
"472 973 OFFCURVE",
"297 973 CURVE SMOOTH",
"109 973 OFFCURVE",
"-20 849 OFFCURVE",
"-20 618 CURVE SMOOTH",
"-20 349 OFFCURVE",
"164 168 OFFCURVE",
"444 168 CURVE SMOOTH"
);
},
{
closed = 1;
nodes = (
"926 -115 LINE",
"926 41 LINE",
"0 41 LINE",
"0 -115 LINE"
);
}
);
width = 1151;
}
);
note = uniA85F.mir.med.cnt;
},
{
glyphname = uniA85F.mir.fin;
lastChange = "2016-11-30 01:16:01 +0000";
layers = (
{
layerId = "6DB8F2EA-3A56-43BC-93C3-749D7507B9DF";
paths = (
{
closed = 1;
nodes = (
"740 168 OFFCURVE",
"946 381 OFFCURVE",
"946 684 CURVE SMOOTH",
"946 1112 OFFCURVE",
"651 1372 OFFCURVE",
"164 1372 CURVE",
"164 1217 LINE",
"565 1217 OFFCURVE",
"786 1021 OFFCURVE",
"786 684 CURVE SMOOTH",
"786 469 OFFCURVE",
"655 332 OFFCURVE",
"444 332 CURVE SMOOTH",
"259 332 OFFCURVE",
"139 443 OFFCURVE",
"139 618 CURVE SMOOTH",
"139 745 OFFCURVE",
"204 809 OFFCURVE",
"297 809 CURVE SMOOTH",
"388 809 OFFCURVE",
"434 751 OFFCURVE",
"434 670 CURVE SMOOTH",
"434 649 OFFCURVE",
"432 632 OFFCURVE",
"428 618 CURVE",
"584 588 LINE",
"591 613 OFFCURVE",
"594 640 OFFCURVE",
"594 670 CURVE SMOOTH",
"594 849 OFFCURVE",
"472 973 OFFCURVE",
"297 973 CURVE SMOOTH",
"109 973 OFFCURVE",
"-20 849 OFFCURVE",
"-20 618 CURVE SMOOTH",
"-20 349 OFFCURVE",
"164 168 OFFCURVE",
"444 168 CURVE SMOOTH"
);
},
{
closed = 1;
nodes = (
"926 -115 LINE",
"926 41 LINE",
"0 41 LINE",
"0 -115 LINE"
);
}
);
width = 1028;
}
);
note = uniA85F.mir.fin;
},
{
glyphname = uniA863.ini;
lastChange = "2016-11-30 01:16:01 +0000";
layers = (
{
layerId = "6DB8F2EA-3A56-43BC-93C3-749D7507B9DF";
paths = (
{
closed = 1;
nodes = (
"1368 -115 LINE",
"1353 -62 OFFCURVE",
"1341 -10 OFFCURVE",
"1331 41 CURVE",
"295 41 LINE",
"295 586 LINE",
"396 476 OFFCURVE",
"556 399 OFFCURVE",
"774 356 CURVE",
"774 510 LINE",
"878 417 OFFCURVE",
"1045 339 OFFCURVE",
"1274 336 CURVE",
"1265 405 OFFCURVE",
"1260 480 OFFCURVE",
"1260 561 CURVE SMOOTH",
"1260 832 OFFCURVE",
"1285 1022 OFFCURVE",
"1356 1217 CURVE",
"1675 1217 LINE",
"1675 1372 LINE",
"143 1372 LINE",
"143 -115 LINE"
);
},
{
closed = 1;
nodes = (
"482 597 OFFCURVE",
"373 676 OFFCURVE",
"295 791 CURVE",
"295 1217 LINE",
"623 1217 LINE",
"623 555 LINE"
);
},
{
closed = 1;
nodes = (
"968 540 OFFCURVE",
"857 603 OFFCURVE",
"774 700 CURVE",
"774 1217 LINE",
"1194 1217 LINE",
"1137 1034 OFFCURVE",
"1108 815 OFFCURVE",
"1108 561 CURVE SMOOTH",
"1108 512 LINE"
);
}
);
width = 1634;
}
);
note = uniA863.ini;
},
{
glyphname = uniA860.mir.med;
lastChange = "2016-11-30 01:16:01 +0000";
layers = (
{
layerId = "6DB8F2EA-3A56-43BC-93C3-749D7507B9DF";
paths = (
{
closed = 1;
nodes = (
"1085 -115 LINE",
"1085 41 LINE",
"152 41 LINE",
"152 981 LINE SMOOTH",
"152 1084 OFFCURVE",
"150 1159 OFFCURVE",
"145 1206 CURVE",
"154 1206 LINE",
"235 939 OFFCURVE",
"351 692 OFFCURVE",
"502 467 CURVE",
"692 467 LINE",
"501 722 OFFCURVE",
"353 1024 OFFCURVE",
"250 1372 CURVE",
"0 1372 LINE",
"0 -115 LINE"
);
}
);
width = 1044;
}
);
note = uniA860.mir.med;
},
{
glyphname = uniA860.mir.med.cnt;
lastChange = "2016-11-30 01:16:01 +0000";
layers = (
{
layerId = "6DB8F2EA-3A56-43BC-93C3-749D7507B9DF";
paths = (
{
closed = 1;
nodes = (
"709 -115 LINE",
"709 41 LINE",
"152 41 LINE",
"152 981 LINE SMOOTH",
"152 1084 OFFCURVE",
"150 1159 OFFCURVE",
"145 1206 CURVE",
"154 1206 LINE",
"201 1045 OFFCURVE",
"258 918 OFFCURVE",
"323 823 CURVE SMOOTH",
"454 633 OFFCURVE",
"622 551 OFFCURVE",
"901 551 CURVE SMOOTH",
"942 551 LINE",
"942 707 LINE",
"901 707 LINE SMOOTH",
"768 707 OFFCURVE",
"665 726 OFFCURVE",
"594 765 CURVE SMOOTH",
"450 842 OFFCURVE",
"353 1009 OFFCURVE",
"250 1372 CURVE",
"0 1372 LINE",
"0 -115 LINE"
);
}
);
width = 901;
}
);
note = uniA860.mir.med.cnt;
},
{
glyphname = uniA860.mir.fin;
lastChange = "2016-11-30 01:16:01 +0000";
layers = (
{
layerId = "6DB8F2EA-3A56-43BC-93C3-749D7507B9DF";
paths = (
{
closed = 1;
nodes = (
"717 -115 LINE",
"717 41 LINE",
"152 41 LINE",
"152 981 LINE SMOOTH",
"152 1084 OFFCURVE",
"150 1159 OFFCURVE",
"145 1206 CURVE",
"154 1206 LINE",
"235 939 OFFCURVE",
"351 692 OFFCURVE",
"502 467 CURVE",
"692 467 LINE",
"501 722 OFFCURVE",
"353 1024 OFFCURVE",
"250 1372 CURVE",
"0 1372 LINE",
"0 -115 LINE"
);
}
);
width = 860;
}
);
note = uniA860.mir.fin;
},
{
glyphname = uniA86B.ini;
lastChange = "2016-11-30 01:16:01 +0000";
layers = (
{
layerId = "6DB8F2EA-3A56-43BC-93C3-749D7507B9DF";
paths = (
{
closed = 1;
nodes = (
"295 -115 LINE",
"295 940 LINE",
"390 1071 OFFCURVE",
"522 1155 OFFCURVE",
"690 1190 CURVE",
"665 1046 OFFCURVE",
"653 888 OFFCURVE",
"653 717 CURVE SMOOTH",
"653 381 OFFCURVE",
"699 126 OFFCURVE",
"803 -115 CURVE",
"1257 -115 LINE",
"1257 41 LINE",
"905 41 LINE",
"832 258 OFFCURVE",
"805 425 OFFCURVE",
"805 717 CURVE SMOOTH",
"805 958 OFFCURVE",
"832 1176 OFFCURVE",
"885 1372 CURVE",
"641 1372 OFFCURVE",
"427 1283 OFFCURVE",
"295 1139 CURVE",
"295 1372 LINE",
"143 1372 LINE",
"143 -115 LINE"
);
}
);
width = 1217;
}
);
note = uniA86B.ini;
},
{
glyphname = uniA86C.ini;
lastChange = "2016-11-30 01:16:01 +0000";
layers = (
{
layerId = "6DB8F2EA-3A56-43BC-93C3-749D7507B9DF";
paths = (
{
closed = 1;
nodes = (
"1599 -115 LINE",
"1599 41 LINE",
"1231 41 LINE",
"1051 166 OFFCURVE",
"911 293 OFFCURVE",
"811 420 CURVE",
"1091 529 OFFCURVE",
"1231 709 OFFCURVE",
"1231 958 CURVE SMOOTH",
"1231 1221 OFFCURVE",
"1088 1384 OFFCURVE",
"848 1384 CURVE SMOOTH",
"611 1384 OFFCURVE",
"461 1217 OFFCURVE",
"461 944 CURVE SMOOTH",
"461 620 OFFCURVE",
"660 287 OFFCURVE",
"1004 43 CURVE",
"1004 35 LINE",
"958 39 OFFCURVE",
"893 41 OFFCURVE",
"809 41 CURVE SMOOTH",
"295 41 LINE",
"295 1372 LINE",
"143 1372 LINE",
"143 -115 LINE"
);
},
{
closed = 1;
nodes = (
"655 674 OFFCURVE",
"621 805 OFFCURVE",
"621 944 CURVE SMOOTH",
"621 1124 OFFCURVE",
"705 1221 OFFCURVE",
"848 1221 CURVE SMOOTH",
"999 1221 OFFCURVE",
"1071 1123 OFFCURVE",
"1071 954 CURVE SMOOTH",
"1071 787 OFFCURVE",
"971 640 OFFCURVE",
"723 553 CURVE"
);
}
);
width = 1559;
}
);
note = uniA86C.ini;
},
{
glyphname = uniA86C.ini.cnt;
lastChange = "2016-11-30 01:16:01 +0000";
layers = (
{
layerId = "6DB8F2EA-3A56-43BC-93C3-749D7507B9DF";
paths = (
{
closed = 1;
nodes = (
"1231 -115 LINE",
"1231 41 LINE",
"1048 168 OFFCURVE",
"907 295 OFFCURVE",
"809 420 CURVE",
"1032 515 OFFCURVE",
"1206 551 OFFCURVE",
"1415 551 CURVE SMOOTH",
"1497 551 LINE",
"1497 707 LINE",
"1415 707 LINE SMOOTH",
"1310 707 OFFCURVE",
"1218 696 OFFCURVE",
"1139 674 CURVE",
"1137 680 LINE",
"1200 762 OFFCURVE",
"1231 855 OFFCURVE",
"1231 958 CURVE SMOOTH",
"1231 1221 OFFCURVE",
"1088 1384 OFFCURVE",
"848 1384 CURVE SMOOTH",
"611 1384 OFFCURVE",
"461 1217 OFFCURVE",
"461 944 CURVE SMOOTH",
"461 620 OFFCURVE",
"660 287 OFFCURVE",
"1004 43 CURVE",
"1004 35 LINE",
"958 39 OFFCURVE",
"893 41 OFFCURVE",
"809 41 CURVE SMOOTH",
"295 41 LINE",
"295 1372 LINE",
"143 1372 LINE",
"143 -115 LINE"
);
},
{
closed = 1;
nodes = (
"655 674 OFFCURVE",
"621 805 OFFCURVE",
"621 944 CURVE SMOOTH",
"621 1124 OFFCURVE",
"705 1221 OFFCURVE",
"848 1221 CURVE SMOOTH",
"999 1221 OFFCURVE",
"1071 1123 OFFCURVE",
"1071 954 CURVE SMOOTH",
"1071 787 OFFCURVE",
"971 640 OFFCURVE",
"723 553 CURVE"
);
}
);
width = 1456;
}
);
note = uniA86C.ini.cnt;
},
{
glyphname = uniA85E.mir.med;
lastChange = "2016-11-30 01:15:49 +0000";
layers = (
{
layerId = "6DB8F2EA-3A56-43BC-93C3-749D7507B9DF";
paths = (
{
closed = 1;
nodes = (
"1139 -115 LINE",
"1139 41 LINE",
"770 41 LINE",
"354 332 OFFCURVE",
"160 611 OFFCURVE",
"160 944 CURVE SMOOTH",
"160 1124 OFFCURVE",
"246 1221 OFFCURVE",
"387 1221 CURVE SMOOTH",
"538 1221 OFFCURVE",
"610 1123 OFFCURVE",
"610 954 CURVE SMOOTH",
"610 833 OFFCURVE",
"563 735 OFFCURVE",
"428 674 CURVE",
"510 543 LINE",
"682 624 OFFCURVE",
"770 770 OFFCURVE",
"770 958 CURVE SMOOTH",
"770 1221 OFFCURVE",
"627 1384 OFFCURVE",
"387 1384 CURVE SMOOTH",
"150 1384 OFFCURVE",
"0 1217 OFFCURVE",
"0 944 CURVE SMOOTH",
"0 620 OFFCURVE",
"199 287 OFFCURVE",
"543 43 CURVE",
"543 35 LINE",
"498 39 OFFCURVE",
"433 41 OFFCURVE",
"348 41 CURVE SMOOTH",
"0 41 LINE",
"0 -115 LINE"
);
}
);
width = 1098;
}
);
note = uniA85E.mir.med;
},
{
glyphname = uniA85E.mir.med.cnt;
lastChange = "2016-11-30 01:16:01 +0000";
layers = (
{
layerId = "6DB8F2EA-3A56-43BC-93C3-749D7507B9DF";
paths = (
{
closed = 1;
nodes = (
"770 -115 LINE",
"770 41 LINE",
"354 332 OFFCURVE",
"160 611 OFFCURVE",
"160 944 CURVE SMOOTH",
"160 1124 OFFCURVE",
"246 1221 OFFCURVE",
"387 1221 CURVE SMOOTH",
"538 1221 OFFCURVE",
"610 1123 OFFCURVE",
"610 954 CURVE SMOOTH",
"610 831 OFFCURVE",
"552 740 OFFCURVE",
"436 682 CURVE",
"506 551 LINE",
"1036 551 LINE",
"1036 707 LINE",
"692 707 LINE",
"744 775 OFFCURVE",
"770 859 OFFCURVE",
"770 958 CURVE SMOOTH",
"770 1221 OFFCURVE",
"627 1384 OFFCURVE",
"387 1384 CURVE SMOOTH",
"150 1384 OFFCURVE",
"0 1217 OFFCURVE",
"0 944 CURVE SMOOTH",
"0 620 OFFCURVE",
"199 287 OFFCURVE",
"543 43 CURVE",
"543 35 LINE",
"498 39 OFFCURVE",
"433 41 OFFCURVE",
"348 41 CURVE SMOOTH",
"0 41 LINE",
"0 -115 LINE"
);
}
);
width = 995;
}
);
note = uniA85E.mir.med.cnt;
},
{
glyphname = uniA85E.mir.fin;
lastChange = "2016-11-30 01:16:01 +0000";
layers = (
{
layerId = "6DB8F2EA-3A56-43BC-93C3-749D7507B9DF";
paths = (
{
closed = 1;
nodes = (
"770 -115 LINE",
"770 41 LINE",
"354 332 OFFCURVE",
"160 611 OFFCURVE",
"160 944 CURVE SMOOTH",
"160 1124 OFFCURVE",
"246 1221 OFFCURVE",
"387 1221 CURVE SMOOTH",
"538 1221 OFFCURVE",
"610 1123 OFFCURVE",
"610 954 CURVE SMOOTH",
"610 833 OFFCURVE",
"563 735 OFFCURVE",
"428 674 CURVE",
"510 543 LINE",
"682 624 OFFCURVE",
"770 770 OFFCURVE",
"770 958 CURVE SMOOTH",
"770 1221 OFFCURVE",
"627 1384 OFFCURVE",
"387 1384 CURVE SMOOTH",
"150 1384 OFFCURVE",
"0 1217 OFFCURVE",
"0 944 CURVE SMOOTH",
"0 620 OFFCURVE",
"199 287 OFFCURVE",
"543 43 CURVE",
"543 35 LINE",
"498 39 OFFCURVE",
"433 41 OFFCURVE",
"348 41 CURVE SMOOTH",
"0 41 LINE",
"0 -115 LINE"
);
}
);
width = 913;
}
);
note = uniA85E.mir.fin;
},
{
glyphname = uniA86F.ini;
lastChange = "2016-11-30 01:16:01 +0000";
layers = (
{
layerId = "6DB8F2EA-3A56-43BC-93C3-749D7507B9DF";
paths = (
{
closed = 1;
nodes = (
"295 -115 LINE",
"295 229 LINE",
"429 131 OFFCURVE",
"569 46 OFFCURVE",
"715 -25 CURVE",
"784 121 OFFCURVE",
"872 290 OFFCURVE",
"979 483 CURVE",
"731 600 OFFCURVE",
"635 722 OFFCURVE",
"635 885 CURVE SMOOTH",
"635 1094 OFFCURVE",
"761 1217 OFFCURVE",
"1034 1217 CURVE SMOOTH",
"1323 1217 LINE",
"1323 1372 LINE",
"1034 1372 LINE SMOOTH",
"690 1372 OFFCURVE",
"475 1181 OFFCURVE",
"475 885 CURVE SMOOTH",
"475 661 OFFCURVE",
"591 519 OFFCURVE",
"770 412 CURVE",
"717 315 OFFCURVE",
"678 237 OFFCURVE",
"651 180 CURVE",
"525 247 OFFCURVE",
"406 327 OFFCURVE",
"295 418 CURVE",
"295 1372 LINE",
"143 1372 LINE",
"143 -115 LINE"
);
}
);
width = 1282;
}
);
note = uniA86F.ini;
},
{
glyphname = uniA871.ini;
lastChange = "2016-11-30 01:16:01 +0000";
layers = (
{
layerId = "6DB8F2EA-3A56-43BC-93C3-749D7507B9DF";
paths = (
{
closed = 1;
nodes = (
"295 -115 LINE",
"295 372 OFFCURVE",
"440 801 OFFCURVE",
"776 1217 CURVE",
"1022 1217 LINE",
"1022 1372 LINE",
"143 1372 LINE",
"143 1217 LINE",
"582 1217 LINE",
"271 801 OFFCURVE",
"143 390 OFFCURVE",
"143 -115 CURVE"
);
}
);
width = 981;
}
);
note = uniA871.ini;
},
{
glyphname = uniA871.ini.cnt;
lastChange = "2016-11-30 01:16:01 +0000";
layers = (
{
layerId = "6DB8F2EA-3A56-43BC-93C3-749D7507B9DF";
paths = (
{
closed = 1;
nodes = (
"295 -115 LINE",
"295 120 OFFCURVE",
"330 342 OFFCURVE",
"399 551 CURVE",
"920 551 LINE",
"920 707 LINE",
"461 707 LINE",
"537 883 OFFCURVE",
"642 1053 OFFCURVE",
"776 1217 CURVE",
"776 1372 LINE",
"143 1372 LINE",
"143 1217 LINE",
"582 1217 LINE",
"271 801 OFFCURVE",
"143 390 OFFCURVE",
"143 -115 CURVE"
);
}
);
width = 879;
}
);
note = uniA871.ini.cnt;
},
{
glyphname = uniA86E.ini;
lastChange = "2016-11-30 01:16:01 +0000";
layers = (
{
layerId = "6DB8F2EA-3A56-43BC-93C3-749D7507B9DF";
paths = (
{
closed = 1;
nodes = (
"795 225 LINE",
"795 711 LINE",
"1151 711 LINE",
"1132 612 OFFCURVE",
"1122 500 OFFCURVE",
"1122 377 CURVE SMOOTH",
"1122 195 OFFCURVE",
"1142 31 OFFCURVE",
"1182 -115 CURVE",
"1335 -115 LINE",
"1294 55 OFFCURVE",
"1274 219 OFFCURVE",
"1274 377 CURVE SMOOTH",
"1274 534 OFFCURVE",
"1294 697 OFFCURVE",
"1335 866 CURVE",
"643 866 LINE",
"643 319 LINE",
"295 137 LINE",
"295 1217 LINE",
"1729 1217 LINE",
"1729 1372 LINE",
"143 1372 LINE",
"143 -115 LINE"
);
}
);
width = 1688;
}
);
note = uniA86E.ini;
},
{
glyphname = stem;
lastChange = "2016-11-30 01:15:49 +0000";
layers = (
{
layerId = "6DB8F2EA-3A56-43BC-93C3-749D7507B9DF";
paths = (
{
closed = 1;
nodes = (
"430 1217 LINE",
"430 1372 LINE",
"0 1372 LINE",
"0 1217 LINE"
);
}
);
width = 389;
}
);
note = stem;
},
{
glyphname = uniA868.ini;
lastChange = "2016-11-30 01:16:01 +0000";
layers = (
{
layerId = "6DB8F2EA-3A56-43BC-93C3-749D7507B9DF";
paths = (
{
closed = 1;
nodes = (
"223 -115 LINE SMOOTH",
"623 -115 OFFCURVE",
"805 158 OFFCURVE",
"805 733 CURVE SMOOTH",
"805 897 OFFCURVE",
"791 1058 OFFCURVE",
"762 1217 CURVE",
"1159 1217 LINE",
"1159 1372 LINE",
"578 1372 LINE",
"628 1171 OFFCURVE",
"653 960 OFFCURVE",
"653 739 CURVE SMOOTH",
"653 296 OFFCURVE",
"542 61 OFFCURVE",
"295 41 CURVE",
"321 224 OFFCURVE",
"334 423 OFFCURVE",
"334 637 CURVE SMOOTH",
"334 907 OFFCURVE",
"316 1152 OFFCURVE",
"279 1372 CURVE",
"123 1372 LINE",
"162 1144 OFFCURVE",
"182 899 OFFCURVE",
"182 637 CURVE SMOOTH",
"182 361 OFFCURVE",
"164 110 OFFCURVE",
"127 -115 CURVE"
);
}
);
width = 1118;
}
);
note = uniA868.ini;
},
{
glyphname = uniA870.ini;
lastChange = "2016-11-30 01:16:01 +0000";
layers = (
{
layerId = "6DB8F2EA-3A56-43BC-93C3-749D7507B9DF";
paths = (
{
closed = 1;
nodes = (
"295 -115 LINE",
"295 229 LINE",
"477 102 OFFCURVE",
"658 -3 OFFCURVE",
"838 -86 CURVE",
"907 60 OFFCURVE",
"995 229 OFFCURVE",
"1102 422 CURVE",
"727 570 OFFCURVE",
"586 722 OFFCURVE",
"586 918 CURVE SMOOTH",
"586 1026 OFFCURVE",
"659 1085 OFFCURVE",
"750 1085 CURVE SMOOTH",
"878 1085 OFFCURVE",
"940 1007 OFFCURVE",
"993 815 CURVE",
"1141 815 LINE",
"1123 872 OFFCURVE",
"1114 931 OFFCURVE",
"1114 991 CURVE SMOOTH",
"1114 1079 OFFCURVE",
"1170 1147 OFFCURVE",
"1249 1147 CURVE SMOOTH",
"1323 1147 OFFCURVE",
"1376 1112 OFFCURVE",
"1407 1041 CURVE SMOOTH",
"1438 970 OFFCURVE",
"1469 858 OFFCURVE",
"1499 705 CURVE SMOOTH",
"1558 399 OFFCURVE",
"1668 110 OFFCURVE",
"1825 -115 CURVE",
"2060 -115 LINE",
"2048 -40 OFFCURVE",
"2042 55 OFFCURVE",
"2042 172 CURVE SMOOTH",
"2042 565 OFFCURVE",
"2103 894 OFFCURVE",
"2243 1217 CURVE",
"2521 1217 LINE",
"2521 1372 LINE",
"2083 1372 LINE SMOOTH",
"1791 1372 OFFCURVE",
"1627 1321 OFFCURVE",
"1468 1214 CURVE",
"1408 1286 OFFCURVE",
"1337 1311 OFFCURVE",
"1249 1311 CURVE SMOOTH",
"1124 1311 OFFCURVE",
"1036 1252 OFFCURVE",
"997 1137 CURVE",
"942 1212 OFFCURVE",
"859 1249 OFFCURVE",
"750 1249 CURVE SMOOTH",
"557 1249 OFFCURVE",
"426 1105 OFFCURVE",
"426 918 CURVE SMOOTH",
"426 669 OFFCURVE",
"579 485 OFFCURVE",
"891 348 CURVE",
"848 269 OFFCURVE",
"809 192 OFFCURVE",
"774 119 CURVE",
"639 182 OFFCURVE",
"412 329 OFFCURVE",
"295 418 CURVE",
"295 1372 LINE",
"143 1372 LINE",
"143 -115 LINE"
);
},
{
closed = 1;
nodes = (
"1783 248 OFFCURVE",
"1707 449 OFFCURVE",
"1665 657 CURVE SMOOTH",
"1623 864 OFFCURVE",
"1584 1006 OFFCURVE",
"1548 1083 CURVE",
"1688 1184 OFFCURVE",
"1848 1213 OFFCURVE",
"2075 1217 CURVE",
"1948 905 OFFCURVE",
"1890 579 OFFCURVE",
"1890 172 CURVE SMOOTH",
"1890 130 OFFCURVE",
"1893 91 OFFCURVE",
"1898 55 CURVE",
"1892 55 LINE"
);
}
);
width = 2480;
}
);
note = uniA870.ini;
},
{
glyphname = uniA84E.ini;
lastChange = "2016-11-30 01:16:01 +0000";
layers = (
{
layerId = "6DB8F2EA-3A56-43BC-93C3-749D7507B9DF";
paths = (
{
closed = 1;
nodes = (
"1204 -164 OFFCURVE",
"1311 -24 OFFCURVE",
"1311 213 CURVE SMOOTH",
"1311 270 OFFCURVE",
"1306 333 OFFCURVE",
"1295 402 CURVE SMOOTH",
"1284 470 OFFCURVE",
"1278 537 OFFCURVE",
"1278 602 CURVE SMOOTH",
"1278 862 OFFCURVE",
"1314 1048 OFFCURVE",
"1374 1217 CURVE",
"1726 1217 LINE",
"1726 1372 LINE",
"143 1372 LINE",
"143 -115 LINE",
"295 -115 LINE",
"295 551 LINE",
"401 551 LINE SMOOTH",
"565 551 OFFCURVE",
"647 472 OFFCURVE",
"647 336 CURVE",
"639 205 LINE",
"639 -19 OFFCURVE",
"746 -164 OFFCURVE",
"975 -164 CURVE SMOOTH"
);
},
{
closed = 1;
nodes = (
"854 0 OFFCURVE",
"791 72 OFFCURVE",
"791 205 CURVE",
"799 336 LINE",
"799 571 OFFCURVE",
"666 707 OFFCURVE",
"401 707 CURVE SMOOTH",
"295 707 LINE",
"295 1217 LINE",
"1212 1217 LINE",
"1155 1036 OFFCURVE",
"1126 831 OFFCURVE",
"1126 602 CURVE SMOOTH",
"1126 537 OFFCURVE",
"1132 470 OFFCURVE",
"1143 402 CURVE SMOOTH",
"1154 333 OFFCURVE",
"1159 270 OFFCURVE",
"1159 213 CURVE SMOOTH",
"1159 71 OFFCURVE",
"1098 0 OFFCURVE",
"975 0 CURVE SMOOTH"
);
}
);
width = 1686;
}
);
note = uniA84E.ini;
},
{
glyphname = uniA86D.ini;
lastChange = "2016-11-30 01:16:01 +0000";
layers = (
{
layerId = "6DB8F2EA-3A56-43BC-93C3-749D7507B9DF";
paths = (
{
closed = 1;
nodes = (
"252 -33 OFFCURVE",
"370 8 OFFCURVE",
"498 8 CURVE SMOOTH",
"651 8 LINE SMOOTH",
"891 8 OFFCURVE",
"1038 156 OFFCURVE",
"1038 356 CURVE SMOOTH",
"1038 520 OFFCURVE",
"946 637 OFFCURVE",
"799 684 CURVE",
"834 840 OFFCURVE",
"900 1001 OFFCURVE",
"1053 1217 CURVE",
"1411 1217 LINE",
"1411 1372 LINE",
"143 1372 LINE",
"143 1217 LINE",
"868 1217 LINE",
"769 1062 OFFCURVE",
"695 892 OFFCURVE",
"647 707 CURVE",
"498 707 LINE SMOOTH",
"371 707 OFFCURVE",
"252 748 OFFCURVE",
"143 829 CURVE",
"143 662 LINE",
"236 590 OFFCURVE",
"366 551 OFFCURVE",
"498 551 CURVE SMOOTH",
"651 551 LINE SMOOTH",
"795 551 OFFCURVE",
"879 481 OFFCURVE",
"879 356 CURVE SMOOTH",
"879 232 OFFCURVE",
"795 164 OFFCURVE",
"651 164 CURVE SMOOTH",
"498 164 LINE SMOOTH",
"366 164 OFFCURVE",
"236 124 OFFCURVE",
"143 53 CURVE",
"143 -115 LINE"
);
}
);
width = 1370;
}
);
note = uniA86D.ini;
},
{
glyphname = uniA86D.ini.cnt;
lastChange = "2016-11-30 01:16:01 +0000";
layers = (
{
layerId = "6DB8F2EA-3A56-43BC-93C3-749D7507B9DF";
paths = (
{
closed = 1;
nodes = (
"252 -33 OFFCURVE",
"370 8 OFFCURVE",
"498 8 CURVE SMOOTH",
"651 8 LINE SMOOTH",
"891 8 OFFCURVE",
"1038 156 OFFCURVE",
"1038 356 CURVE SMOOTH",
"1038 433 OFFCURVE",
"1011 496 OFFCURVE",
"958 547 CURVE",
"958 555 LINE",
"1005 552 OFFCURVE",
"1066 551 OFFCURVE",
"1143 551 CURVE SMOOTH",
"1309 551 LINE",
"1309 707 LINE",
"805 707 LINE",
"856 922 OFFCURVE",
"991 1153 OFFCURVE",
"1171 1372 CURVE",
"143 1372 LINE",
"143 1217 LINE",
"868 1217 LINE",
"769 1062 OFFCURVE",
"695 892 OFFCURVE",
"647 707 CURVE",
"498 707 LINE SMOOTH",
"371 707 OFFCURVE",
"252 748 OFFCURVE",
"143 829 CURVE",
"143 662 LINE",
"236 590 OFFCURVE",
"366 551 OFFCURVE",
"498 551 CURVE SMOOTH",
"651 551 LINE SMOOTH",
"795 551 OFFCURVE",
"879 481 OFFCURVE",
"879 356 CURVE SMOOTH",
"879 232 OFFCURVE",
"795 164 OFFCURVE",
"651 164 CURVE SMOOTH",
"498 164 LINE SMOOTH",
"366 164 OFFCURVE",
"236 124 OFFCURVE",
"143 53 CURVE",
"143 -115 LINE"
);
}
);
width = 1268;
}
);
note = uniA86D.ini.cnt;
},
{
glyphname = uniA86D.str.med;
lastChange = "2016-11-30 01:16:01 +0000";
layers = (
{
layerId = "6DB8F2EA-3A56-43BC-93C3-749D7507B9DF";
paths = (
{
closed = 1;
nodes = (
"99 -40 OFFCURVE",
"223 8 OFFCURVE",
"354 8 CURVE SMOOTH",
"508 8 LINE SMOOTH",
"747 8 OFFCURVE",
"895 155 OFFCURVE",
"895 356 CURVE SMOOTH",
"895 520 OFFCURVE",
"803 637 OFFCURVE",
"655 684 CURVE",
"694 837 OFFCURVE",
"760 1001 OFFCURVE",
"909 1217 CURVE",
"1268 1217 LINE",
"1268 1372 LINE",
"0 1372 LINE",
"0 1217 LINE",
"725 1217 LINE",
"625 1062 OFFCURVE",
"551 892 OFFCURVE",
"504 707 CURVE",
"0 707 LINE",
"0 551 LINE",
"508 551 LINE SMOOTH",
"651 551 OFFCURVE",
"735 481 OFFCURVE",
"735 356 CURVE SMOOTH",
"735 232 OFFCURVE",
"652 164 OFFCURVE",
"508 164 CURVE SMOOTH",
"354 164 LINE SMOOTH",
"223 164 OFFCURVE",
"93 124 OFFCURVE",
"0 53 CURVE",
"0 -115 LINE"
);
}
);
width = 1227;
}
);
note = uniA86D.str.med;
},
{
glyphname = uniA86D.str.med.cnt;
lastChange = "2016-11-30 01:16:01 +0000";
layers = (
{
layerId = "6DB8F2EA-3A56-43BC-93C3-749D7507B9DF";
paths = (
{
closed = 1;
nodes = (
"99 -40 OFFCURVE",
"223 8 OFFCURVE",
"354 8 CURVE SMOOTH",
"508 8 LINE SMOOTH",
"747 8 OFFCURVE",
"895 155 OFFCURVE",
"895 356 CURVE SMOOTH",
"895 433 OFFCURVE",
"868 496 OFFCURVE",
"815 547 CURVE",
"815 555 LINE",
"862 552 OFFCURVE",
"923 551 OFFCURVE",
"999 551 CURVE SMOOTH",
"1165 551 LINE",
"1165 707 LINE",
"662 707 LINE",
"712 916 OFFCURVE",
"834 1137 OFFCURVE",
"1028 1372 CURVE",
"0 1372 LINE",
"0 1217 LINE",
"725 1217 LINE",
"625 1062 OFFCURVE",
"551 892 OFFCURVE",
"504 707 CURVE",
"0 707 LINE",
"0 551 LINE",
"508 551 LINE SMOOTH",
"651 551 OFFCURVE",
"735 481 OFFCURVE",
"735 356 CURVE SMOOTH",
"735 232 OFFCURVE",
"652 164 OFFCURVE",
"508 164 CURVE SMOOTH",
"354 164 LINE SMOOTH",
"223 164 OFFCURVE",
"93 124 OFFCURVE",
"0 53 CURVE",
"0 -115 LINE"
);
}
);
width = 1124;
}
);
note = uniA86D.str.med.cnt;
},
{
glyphname = uniA86D.str.fin;
lastChange = "2016-11-30 01:16:01 +0000";
layers = (
{
layerId = "6DB8F2EA-3A56-43BC-93C3-749D7507B9DF";
paths = (
{
closed = 1;
nodes = (
"99 -40 OFFCURVE",
"223 8 OFFCURVE",
"354 8 CURVE SMOOTH",
"508 8 LINE SMOOTH",
"747 8 OFFCURVE",
"895 155 OFFCURVE",
"895 356 CURVE SMOOTH",
"895 520 OFFCURVE",
"803 637 OFFCURVE",
"655 684 CURVE",
"714 925 OFFCURVE",
"837 1139 OFFCURVE",
"1028 1372 CURVE",
"0 1372 LINE",
"0 1217 LINE",
"725 1217 LINE",
"625 1062 OFFCURVE",
"551 892 OFFCURVE",
"504 707 CURVE",
"0 707 LINE",
"0 551 LINE",
"508 551 LINE SMOOTH",
"651 551 OFFCURVE",
"735 481 OFFCURVE",
"735 356 CURVE SMOOTH",
"735 232 OFFCURVE",
"652 164 OFFCURVE",
"508 164 CURVE SMOOTH",
"354 164 LINE SMOOTH",
"223 164 OFFCURVE",
"93 124 OFFCURVE",
"0 53 CURVE",
"0 -115 LINE"
);
}
);
width = 1069;
}
);
note = uniA86D.str.fin;
},
{
glyphname = uniA847.ini;
lastChange = "2016-11-30 01:16:01 +0000";
layers = (
{
layerId = "6DB8F2EA-3A56-43BC-93C3-749D7507B9DF";
paths = (
{
closed = 1;
nodes = (
"1122 -115 LINE",
"1122 41 LINE",
"295 41 LINE",
"295 1217 LINE",
"614 1217 LINE",
"614 551 LINE",
"1122 551 LINE",
"1122 707 LINE",
"766 707 LINE",
"766 1217 LINE",
"1491 1217 LINE",
"1491 1372 LINE",
"143 1372 LINE",
"143 -115 LINE"
);
}
);
width = 1450;
}
);
note = uniA847.ini;
},
{
glyphname = uniA847.ini.cnt;
lastChange = "2016-11-30 01:16:01 +0000";
layers = (
{
layerId = "6DB8F2EA-3A56-43BC-93C3-749D7507B9DF";
paths = (
{
closed = 1;
nodes = (
"1122 -115 LINE",
"1122 41 LINE",
"295 41 LINE",
"295 1217 LINE",
"614 1217 LINE",
"614 551 LINE",
"1311 551 LINE",
"1311 707 LINE",
"766 707 LINE",
"766 1217 LINE",
"1122 1217 LINE",
"1122 1372 LINE",
"143 1372 LINE",
"143 -115 LINE"
);
}
);
width = 1270;
}
);
note = uniA847.ini.cnt;
},
{
glyphname = uniA851.ini;
lastChange = "2016-11-30 01:16:01 +0000";
layers = (
{
layerId = "6DB8F2EA-3A56-43BC-93C3-749D7507B9DF";
paths = (
{
closed = 1;
nodes = (
"295 -115 LINE",
"295 1217 LINE",
"594 1217 LINE SMOOTH",
"629 1217 OFFCURVE",
"662 1218 OFFCURVE",
"692 1221 CURVE",
"692 1214 LINE",
"575 1089 OFFCURVE",
"522 971 OFFCURVE",
"522 815 CURVE SMOOTH",
"522 716 OFFCURVE",
"547 628 OFFCURVE",
"598 551 CURVE",
"788 551 LINE SMOOTH",
"945 551 OFFCURVE",
"1024 479 OFFCURVE",
"1024 336 CURVE SMOOTH",
"1024 161 OFFCURVE",
"909 41 OFFCURVE",
"641 41 CURVE SMOOTH",
"502 41 LINE",
"502 -115 LINE",
"641 -115 LINE SMOOTH",
"1001 -115 OFFCURVE",
"1184 55 OFFCURVE",
"1184 336 CURVE SMOOTH",
"1184 561 OFFCURVE",
"1060 707 OFFCURVE",
"788 707 CURVE SMOOTH",
"705 707 LINE",
"687 736 OFFCURVE",
"678 774 OFFCURVE",
"678 821 CURVE SMOOTH",
"678 958 OFFCURVE",
"748 1090 OFFCURVE",
"887 1217 CURVE",
"1532 1217 LINE",
"1532 1372 LINE",
"143 1372 LINE",
"143 -115 LINE"
);
}
);
width = 1491;
}
);
note = uniA851.ini;
},
{
glyphname = uniA851.ini.cnt;
lastChange = "2016-11-30 01:16:01 +0000";
layers = (
{
layerId = "6DB8F2EA-3A56-43BC-93C3-749D7507B9DF";
paths = (
{
closed = 1;
nodes = (
"295 -115 LINE",
"295 1217 LINE",
"594 1217 LINE SMOOTH",
"629 1217 OFFCURVE",
"662 1218 OFFCURVE",
"692 1221 CURVE",
"692 1214 LINE",
"575 1089 OFFCURVE",
"522 971 OFFCURVE",
"522 815 CURVE SMOOTH",
"522 716 OFFCURVE",
"547 628 OFFCURVE",
"598 551 CURVE",
"788 551 LINE SMOOTH",
"945 551 OFFCURVE",
"1024 479 OFFCURVE",
"1024 336 CURVE SMOOTH",
"1024 161 OFFCURVE",
"909 41 OFFCURVE",
"641 41 CURVE SMOOTH",
"502 41 LINE",
"502 -115 LINE",
"641 -115 LINE SMOOTH",
"1001 -115 OFFCURVE",
"1184 55 OFFCURVE",
"1184 336 CURVE SMOOTH",
"1184 423 OFFCURVE",
"1151 508 OFFCURVE",
"1096 549 CURVE",
"1096 555 LINE",
"1133 552 OFFCURVE",
"1184 551 OFFCURVE",
"1247 551 CURVE SMOOTH",
"1430 551 LINE",
"1430 707 LINE",
"705 707 LINE",
"687 736 OFFCURVE",
"678 774 OFFCURVE",
"678 821 CURVE SMOOTH",
"678 958 OFFCURVE",
"748 1090 OFFCURVE",
"887 1217 CURVE",
"1163 1217 LINE",
"1163 1372 LINE",
"143 1372 LINE",
"143 -115 LINE"
);
}
);
width = 1389;
}
);
note = uniA851.ini.cnt;
},
{
glyphname = uniA85E.str.med;
lastChange = "2016-11-30 01:16:01 +0000";
layers = (
{
layerId = "6DB8F2EA-3A56-43BC-93C3-749D7507B9DF";
paths = (
{
closed = 1;
nodes = (
"632 -127 OFFCURVE",
"770 40 OFFCURVE",
"770 299 CURVE SMOOTH",
"770 487 OFFCURVE",
"682 632 OFFCURVE",
"510 715 CURVE",
"428 584 LINE",
"563 523 OFFCURVE",
"610 424 OFFCURVE",
"610 303 CURVE SMOOTH",
"610 134 OFFCURVE",
"538 37 OFFCURVE",
"387 37 CURVE SMOOTH",
"246 37 OFFCURVE",
"160 133 OFFCURVE",
"160 313 CURVE SMOOTH",
"160 645 OFFCURVE",
"357 929 OFFCURVE",
"770 1217 CURVE",
"1139 1217 LINE",
"1139 1372 LINE",
"0 1372 LINE",
"0 1217 LINE",
"348 1217 LINE SMOOTH",
"433 1217 OFFCURVE",
"498 1219 OFFCURVE",
"543 1223 CURVE",
"543 1214 LINE",
"338 1065 OFFCURVE",
"188 896 OFFCURVE",
"94 707 CURVE",
"0 707 LINE",
"0 551 LINE",
"35 551 LINE",
"12 470 OFFCURVE",
"0 391 OFFCURVE",
"0 313 CURVE SMOOTH",
"0 41 OFFCURVE",
"150 -127 OFFCURVE",
"387 -127 CURVE SMOOTH"
);
}
);
width = 1098;
}
);
note = uniA85E.str.med;
},
{
glyphname = uniA85E.str.med.cnt;
lastChange = "2016-11-30 01:16:01 +0000";
layers = (
{
layerId = "6DB8F2EA-3A56-43BC-93C3-749D7507B9DF";
paths = (
{
closed = 1;
nodes = (
"632 -127 OFFCURVE",
"770 40 OFFCURVE",
"770 299 CURVE SMOOTH",
"770 397 OFFCURVE",
"744 481 OFFCURVE",
"692 551 CURVE",
"1036 551 LINE",
"1036 707 LINE",
"506 707 LINE",
"436 575 LINE",
"552 517 OFFCURVE",
"610 426 OFFCURVE",
"610 303 CURVE SMOOTH",
"610 134 OFFCURVE",
"538 37 OFFCURVE",
"387 37 CURVE SMOOTH",
"246 37 OFFCURVE",
"160 133 OFFCURVE",
"160 313 CURVE SMOOTH",
"160 645 OFFCURVE",
"357 929 OFFCURVE",
"770 1217 CURVE",
"770 1372 LINE",
"0 1372 LINE",
"0 1217 LINE",
"348 1217 LINE SMOOTH",
"433 1217 OFFCURVE",
"498 1219 OFFCURVE",
"543 1223 CURVE",
"543 1214 LINE",
"338 1065 OFFCURVE",
"188 896 OFFCURVE",
"94 707 CURVE",
"0 707 LINE",
"0 551 LINE",
"35 551 LINE",
"12 470 OFFCURVE",
"0 391 OFFCURVE",
"0 313 CURVE SMOOTH",
"0 41 OFFCURVE",
"150 -127 OFFCURVE",
"387 -127 CURVE SMOOTH"
);
}
);
width = 995;
}
);
note = uniA85E.str.med.cnt;
},
{
glyphname = uniA85E.str.fin;
lastChange = "2016-11-30 01:16:01 +0000";
layers = (
{
layerId = "6DB8F2EA-3A56-43BC-93C3-749D7507B9DF";
paths = (
{
closed = 1;
nodes = (
"632 -127 OFFCURVE",
"770 40 OFFCURVE",
"770 299 CURVE SMOOTH",
"770 487 OFFCURVE",
"682 632 OFFCURVE",
"510 715 CURVE",
"428 584 LINE",
"563 523 OFFCURVE",
"610 424 OFFCURVE",
"610 303 CURVE SMOOTH",
"610 134 OFFCURVE",
"538 37 OFFCURVE",
"387 37 CURVE SMOOTH",
"246 37 OFFCURVE",
"160 133 OFFCURVE",
"160 313 CURVE SMOOTH",
"160 645 OFFCURVE",
"357 929 OFFCURVE",
"770 1217 CURVE",
"770 1372 LINE",
"0 1372 LINE",
"0 1217 LINE",
"348 1217 LINE SMOOTH",
"433 1217 OFFCURVE",
"498 1219 OFFCURVE",
"543 1223 CURVE",
"543 1214 LINE",
"338 1065 OFFCURVE",
"188 896 OFFCURVE",
"94 707 CURVE",
"0 707 LINE",
"0 551 LINE",
"35 551 LINE",
"12 470 OFFCURVE",
"0 391 OFFCURVE",
"0 313 CURVE SMOOTH",
"0 41 OFFCURVE",
"150 -127 OFFCURVE",
"387 -127 CURVE SMOOTH"
);
}
);
width = 913;
}
);
note = uniA85E.str.fin;
},
{
glyphname = uniA856.mir.ini;
lastChange = "2016-11-30 01:16:01 +0000";
layers = (
{
layerId = "6DB8F2EA-3A56-43BC-93C3-749D7507B9DF";
paths = (
{
closed = 1;
nodes = (
"795 -115 LINE",
"795 711 LINE",
"1151 711 LINE",
"1132 612 OFFCURVE",
"1122 500 OFFCURVE",
"1122 377 CURVE SMOOTH",
"1122 195 OFFCURVE",
"1142 31 OFFCURVE",
"1182 -115 CURVE",
"1729 -115 LINE",
"1729 41 LINE",
"1303 41 LINE",
"1284 153 OFFCURVE",
"1274 265 OFFCURVE",
"1274 377 CURVE SMOOTH",
"1274 534 OFFCURVE",
"1294 697 OFFCURVE",
"1335 866 CURVE",
"643 866 LINE",
"643 41 LINE",
"295 41 LINE",
"295 1217 LINE",
"1397 1217 LINE",
"1406 1267 OFFCURVE",
"1419 1319 OFFCURVE",
"1434 1372 CURVE",
"143 1372 LINE",
"143 -115 LINE"
);
}
);
width = 1688;
}
);
note = uniA856.mir.ini;
},
{
glyphname = uniA85C.mir;
lastChange = "2016-11-30 01:16:01 +0000";
layers = (
{
layerId = "6DB8F2EA-3A56-43BC-93C3-749D7507B9DF";
paths = (
{
closed = 1;
nodes = (
"295 -115 LINE",
"295 840 LINE",
"426 942 OFFCURVE",
"544 1020 OFFCURVE",
"651 1075 CURVE",
"692 987 OFFCURVE",
"732 911 OFFCURVE",
"770 846 CURVE",
"590 747 OFFCURVE",
"475 618 OFFCURVE",
"475 414 CURVE SMOOTH",
"475 175 OFFCURVE",
"648 8 OFFCURVE",
"891 8 CURVE SMOOTH",
"988 8 OFFCURVE",
"1076 35 OFFCURVE",
"1153 90 CURVE",
"1262 -115 LINE",
"1434 -115 LINE",
"1355 28 OFFCURVE",
"1277 174 OFFCURVE",
"1200 324 CURVE",
"1099 223 OFFCURVE",
"996 172 OFFCURVE",
"891 172 CURVE SMOOTH",
"738 172 OFFCURVE",
"635 258 OFFCURVE",
"635 414 CURVE SMOOTH",
"635 550 OFFCURVE",
"707 654 OFFCURVE",
"979 774 CURVE",
"872 967 OFFCURVE",
"784 1136 OFFCURVE",
"715 1282 CURVE",
"569 1210 OFFCURVE",
"429 1125 OFFCURVE",
"295 1028 CURVE",
"295 1372 LINE",
"143 1372 LINE",
"143 -115 LINE"
);
}
);
width = 1475;
}
);
note = uniA85C.mir;
},
{
glyphname = uniA85C.mir.ini;
lastChange = "2016-11-30 01:16:01 +0000";
layers = (
{
layerId = "6DB8F2EA-3A56-43BC-93C3-749D7507B9DF";
paths = (
{
closed = 1;
nodes = (
"295 -115 LINE",
"295 840 LINE",
"426 942 OFFCURVE",
"544 1020 OFFCURVE",
"651 1075 CURVE",
"692 987 OFFCURVE",
"732 911 OFFCURVE",
"770 846 CURVE",
"590 747 OFFCURVE",
"475 618 OFFCURVE",
"475 414 CURVE SMOOTH",
"475 175 OFFCURVE",
"648 8 OFFCURVE",
"891 8 CURVE SMOOTH",
"990 8 OFFCURVE",
"1078 36 OFFCURVE",
"1153 92 CURVE",
"1221 -28 OFFCURVE",
"1343 -115 OFFCURVE",
"1526 -115 CURVE SMOOTH",
"1587 -115 LINE",
"1587 41 LINE",
"1526 41 LINE SMOOTH",
"1479 41 OFFCURVE",
"1438 49 OFFCURVE",
"1401 66 CURVE SMOOTH",
"1328 98 OFFCURVE",
"1284 151 OFFCURVE",
"1200 324 CURVE",
"1099 223 OFFCURVE",
"996 172 OFFCURVE",
"891 172 CURVE SMOOTH",
"738 172 OFFCURVE",
"635 258 OFFCURVE",
"635 414 CURVE SMOOTH",
"635 550 OFFCURVE",
"707 654 OFFCURVE",
"979 774 CURVE",
"872 967 OFFCURVE",
"784 1136 OFFCURVE",
"715 1282 CURVE",
"569 1210 OFFCURVE",
"429 1125 OFFCURVE",
"295 1028 CURVE",
"295 1372 LINE",
"143 1372 LINE",
"143 -115 LINE"
);
}
);
width = 1546;
}
);
note = uniA85C.mir.ini;
},
{
glyphname = uniA85C.mir.ini.cnt;
lastChange = "2016-11-30 01:16:01 +0000";
layers = (
{
layerId = "6DB8F2EA-3A56-43BC-93C3-749D7507B9DF";
paths = (
{
closed = 1;
nodes = (
"295 -115 LINE",
"295 840 LINE",
"426 942 OFFCURVE",
"544 1020 OFFCURVE",
"651 1075 CURVE",
"692 987 OFFCURVE",
"732 911 OFFCURVE",
"770 846 CURVE",
"590 747 OFFCURVE",
"475 618 OFFCURVE",
"475 414 CURVE SMOOTH",
"475 177 OFFCURVE",
"643 8 OFFCURVE",
"879 8 CURVE SMOOTH",
"948 8 OFFCURVE",
"1010 20 OFFCURVE",
"1064 44 CURVE SMOOTH",
"1171 92 OFFCURVE",
"1247 189 OFFCURVE",
"1306 330 CURVE SMOOTH",
"1365 471 OFFCURVE",
"1417 551 OFFCURVE",
"1526 551 CURVE SMOOTH",
"1567 551 LINE",
"1567 707 LINE",
"1526 707 LINE SMOOTH",
"1347 707 OFFCURVE",
"1253 599 OFFCURVE",
"1179 420 CURVE SMOOTH",
"1105 241 OFFCURVE",
"1040 172 OFFCURVE",
"879 172 CURVE SMOOTH",
"731 172 OFFCURVE",
"635 258 OFFCURVE",
"635 414 CURVE SMOOTH",
"635 550 OFFCURVE",
"707 654 OFFCURVE",
"979 774 CURVE",
"872 967 OFFCURVE",
"784 1136 OFFCURVE",
"715 1282 CURVE",
"569 1210 OFFCURVE",
"429 1125 OFFCURVE",
"295 1028 CURVE",
"295 1372 LINE",
"143 1372 LINE",
"143 -115 LINE"
);
}
);
width = 1526;
}
);
note = uniA85C.mir.ini.cnt;
},
{
glyphname = uniA85E.mir;
lastChange = "2016-11-30 01:16:01 +0000";
layers = (
{
layerId = "6DB8F2EA-3A56-43BC-93C3-749D7507B9DF";
paths = (
{
closed = 1;
nodes = (
"1231 -115 LINE",
"1231 41 LINE",
"815 332 OFFCURVE",
"621 611 OFFCURVE",
"621 944 CURVE SMOOTH",
"621 1124 OFFCURVE",
"705 1221 OFFCURVE",
"848 1221 CURVE SMOOTH",
"999 1221 OFFCURVE",
"1071 1123 OFFCURVE",
"1071 954 CURVE SMOOTH",
"1071 833 OFFCURVE",
"1024 735 OFFCURVE",
"889 674 CURVE",
"971 543 LINE",
"1143 624 OFFCURVE",
"1231 770 OFFCURVE",
"1231 958 CURVE SMOOTH",
"1231 1221 OFFCURVE",
"1088 1384 OFFCURVE",
"848 1384 CURVE SMOOTH",
"611 1384 OFFCURVE",
"461 1217 OFFCURVE",
"461 944 CURVE SMOOTH",
"461 620 OFFCURVE",
"660 287 OFFCURVE",
"1004 43 CURVE",
"1004 35 LINE",
"958 39 OFFCURVE",
"893 41 OFFCURVE",
"809 41 CURVE SMOOTH",
"295 41 LINE",
"295 1372 LINE",
"143 1372 LINE",
"143 -115 LINE"
);
}
);
width = 1374;
}
);
note = uniA85E.mir;
},
{
glyphname = uniA85E.mir.ini;
lastChange = "2016-11-30 01:16:01 +0000";
layers = (
{
layerId = "6DB8F2EA-3A56-43BC-93C3-749D7507B9DF";
paths = (
{
closed = 1;
nodes = (
"1599 -115 LINE",
"1599 41 LINE",
"1231 41 LINE",
"815 332 OFFCURVE",
"621 611 OFFCURVE",
"621 944 CURVE SMOOTH",
"621 1124 OFFCURVE",
"705 1221 OFFCURVE",
"848 1221 CURVE SMOOTH",
"999 1221 OFFCURVE",
"1071 1123 OFFCURVE",
"1071 954 CURVE SMOOTH",
"1071 833 OFFCURVE",
"1024 735 OFFCURVE",
"889 674 CURVE",
"971 543 LINE",
"1143 624 OFFCURVE",
"1231 770 OFFCURVE",
"1231 958 CURVE SMOOTH",
"1231 1221 OFFCURVE",
"1088 1384 OFFCURVE",
"848 1384 CURVE SMOOTH",
"611 1384 OFFCURVE",
"461 1217 OFFCURVE",
"461 944 CURVE SMOOTH",
"461 620 OFFCURVE",
"660 287 OFFCURVE",
"1004 43 CURVE",
"1004 35 LINE",
"958 39 OFFCURVE",
"893 41 OFFCURVE",
"809 41 CURVE SMOOTH",
"295 41 LINE",
"295 1372 LINE",
"143 1372 LINE",
"143 -115 LINE"
);
}
);
width = 1559;
}
);
note = uniA85E.mir.ini;
},
{
glyphname = uniA85F.mir;
lastChange = "2016-11-30 01:16:01 +0000";
layers = (
{
layerId = "6DB8F2EA-3A56-43BC-93C3-749D7507B9DF";
paths = (
{
closed = 1;
nodes = (
"1396 -129 OFFCURVE",
"1642 160 OFFCURVE",
"1642 571 CURVE SMOOTH",
"1642 1080 OFFCURVE",
"1332 1372 OFFCURVE",
"791 1372 CURVE",
"791 1217 LINE",
"1228 1217 OFFCURVE",
"1483 983 OFFCURVE",
"1483 571 CURVE SMOOTH",
"1483 250 OFFCURVE",
"1312 35 OFFCURVE",
"1047 35 CURVE SMOOTH",
"802 35 OFFCURVE",
"651 225 OFFCURVE",
"651 489 CURVE SMOOTH",
"651 705 OFFCURVE",
"743 803 OFFCURVE",
"874 803 CURVE SMOOTH",
"990 803 OFFCURVE",
"1067 729 OFFCURVE",
"1067 604 CURVE SMOOTH",
"1067 528 OFFCURVE",
"1036 444 OFFCURVE",
"981 389 CURVE",
"1110 289 LINE",
"1188 368 OFFCURVE",
"1227 473 OFFCURVE",
"1227 604 CURVE SMOOTH",
"1227 811 OFFCURVE",
"1081 967 OFFCURVE",
"874 967 CURVE SMOOTH",
"711 967 OFFCURVE",
"584 872 OFFCURVE",
"524 707 CURVE",
"295 707 LINE",
"295 1372 LINE",
"143 1372 LINE",
"143 -115 LINE",
"295 -115 LINE",
"295 551 LINE",
"494 551 LINE",
"492 522 LINE",
"492 489 LINE SMOOTH",
"492 125 OFFCURVE",
"715 -129 OFFCURVE",
"1047 -129 CURVE SMOOTH"
);
}
);
width = 1724;
}
);
note = uniA85F.mir;
},
{
glyphname = uniA860.mir;
lastChange = "2016-11-30 01:16:01 +0000";
layers = (
{
layerId = "6DB8F2EA-3A56-43BC-93C3-749D7507B9DF";
paths = (
{
closed = 1;
nodes = (
"1352 -115 LINE",
"1352 41 LINE",
"795 41 LINE",
"795 981 LINE SMOOTH",
"795 1084 OFFCURVE",
"793 1159 OFFCURVE",
"788 1206 CURVE",
"797 1206 LINE",
"878 939 OFFCURVE",
"994 692 OFFCURVE",
"1145 467 CURVE",
"1335 467 LINE",
"1144 722 OFFCURVE",
"996 1024 OFFCURVE",
"893 1372 CURVE",
"643 1372 LINE",
"643 41 LINE",
"295 41 LINE",
"295 1372 LINE",
"143 1372 LINE",
"143 -115 LINE"
);
}
);
width = 1495;
}
);
note = uniA860.mir;
},
{
glyphname = uniA860.mir.ini;
lastChange = "2016-11-30 01:16:01 +0000";
layers = (
{
layerId = "6DB8F2EA-3A56-43BC-93C3-749D7507B9DF";
paths = (
{
closed = 1;
nodes = (
"1720 -115 LINE",
"1720 41 LINE",
"795 41 LINE",
"795 981 LINE SMOOTH",
"795 1084 OFFCURVE",
"793 1159 OFFCURVE",
"788 1206 CURVE",
"797 1206 LINE",
"878 939 OFFCURVE",
"994 692 OFFCURVE",
"1145 467 CURVE",
"1335 467 LINE",
"1144 722 OFFCURVE",
"996 1024 OFFCURVE",
"893 1372 CURVE",
"643 1372 LINE",
"643 41 LINE",
"295 41 LINE",
"295 1372 LINE",
"143 1372 LINE",
"143 -115 LINE"
);
}
);
width = 1679;
}
);
note = uniA860.mir.ini;
},
{
glyphname = uniA868.mir;
lastChange = "2016-11-30 01:16:01 +0000";
layers = (
{
layerId = "6DB8F2EA-3A56-43BC-93C3-749D7507B9DF";
paths = (
{
closed = 1;
nodes = (
"279 -115 LINE",
"316 105 OFFCURVE",
"334 350 OFFCURVE",
"334 621 CURVE SMOOTH",
"334 835 OFFCURVE",
"321 1034 OFFCURVE",
"295 1217 CURVE",
"554 1193 OFFCURVE",
"653 949 OFFCURVE",
"653 518 CURVE SMOOTH",
"653 299 OFFCURVE",
"628 88 OFFCURVE",
"578 -115 CURVE",
"729 -115 LINE",
"780 85 OFFCURVE",
"805 298 OFFCURVE",
"805 524 CURVE SMOOTH",
"805 1099 OFFCURVE",
"623 1372 OFFCURVE",
"223 1372 CURVE SMOOTH",
"127 1372 LINE",
"164 1147 OFFCURVE",
"182 896 OFFCURVE",
"182 621 CURVE SMOOTH",
"182 358 OFFCURVE",
"162 113 OFFCURVE",
"123 -115 CURVE"
);
}
);
width = 928;
}
);
note = uniA868.mir;
},
{
glyphname = uniA868.mir.ini;
lastChange = "2016-11-30 01:16:01 +0000";
layers = (
{
layerId = "6DB8F2EA-3A56-43BC-93C3-749D7507B9DF";
paths = (
{
closed = 1;
nodes = (
"279 -115 LINE",
"316 105 OFFCURVE",
"334 350 OFFCURVE",
"334 621 CURVE SMOOTH",
"334 835 OFFCURVE",
"321 1034 OFFCURVE",
"295 1217 CURVE",
"554 1193 OFFCURVE",
"653 949 OFFCURVE",
"653 518 CURVE SMOOTH",
"653 299 OFFCURVE",
"628 88 OFFCURVE",
"578 -115 CURVE",
"1159 -115 LINE",
"1159 41 LINE",
"762 41 LINE",
"791 198 OFFCURVE",
"805 359 OFFCURVE",
"805 524 CURVE SMOOTH",
"805 1099 OFFCURVE",
"623 1372 OFFCURVE",
"223 1372 CURVE SMOOTH",
"127 1372 LINE",
"164 1147 OFFCURVE",
"182 896 OFFCURVE",
"182 621 CURVE SMOOTH",
"182 358 OFFCURVE",
"162 113 OFFCURVE",
"123 -115 CURVE"
);
}
);
width = 1118;
}
);
note = uniA868.mir.ini;
},
{
glyphname = uniA862.ini.cnt;
lastChange = "2016-11-30 01:16:01 +0000";
layers = (
{
layerId = "6DB8F2EA-3A56-43BC-93C3-749D7507B9DF";
paths = (
{
closed = 1;
nodes = (
"1184 -115 LINE",
"1184 41 LINE",
"295 41 LINE",
"295 657 LINE",
"436 578 OFFCURVE",
"607 551 OFFCURVE",
"827 551 CURVE SMOOTH",
"1450 551 LINE",
"1450 707 LINE",
"870 707 LINE",
"939 904 OFFCURVE",
"1043 1074 OFFCURVE",
"1184 1217 CURVE",
"1184 1372 LINE",
"143 1372 LINE",
"143 -115 LINE"
);
},
{
closed = 1;
nodes = (
"545 714 OFFCURVE",
"426 742 OFFCURVE",
"295 829 CURVE",
"295 1217 LINE",
"791 1217 LINE SMOOTH",
"871 1217 OFFCURVE",
"941 1218 OFFCURVE",
"1001 1221 CURVE",
"1001 1212 LINE",
"862 1071 OFFCURVE",
"761 881 OFFCURVE",
"717 709 CURVE"
);
}
);
width = 1409;
}
);
note = uniA862.ini.cnt;
},
{
glyphname = uni3014;
lastChange = "2016-11-30 01:16:01 +0000";
layers = (
{
layerId = "6DB8F2EA-3A56-43BC-93C3-749D7507B9DF";
paths = (
{
closed = 1;
nodes = (
"1070 -65 LINE",
"752 89 LINE",
"752 1169 LINE",
"1070 1323 LINE",
"1013 1458 LINE",
"600 1253 LINE",
"600 5 LINE",
"1013 -200 LINE"
);
}
);
width = 1200;
}
);
note = uni3014;
unicode = 3014;
},
{
glyphname = uni3015;
lastChange = "2016-11-30 01:15:49 +0000";
layers = (
{
layerId = "6DB8F2EA-3A56-43BC-93C3-749D7507B9DF";
paths = (
{
closed = 1;
nodes = (
"600 5 LINE",
"600 1253 LINE",
"187 1458 LINE",
"130 1323 LINE",
"448 1169 LINE",
"448 89 LINE",
"130 -65 LINE",
"187 -200 LINE"
);
}
);
width = 1200;
}
);
note = uni3015;
unicode = 3015;
},
{
glyphname = twodotenleader;
lastChange = "2016-11-30 01:16:01 +0000";
layers = (
{
layerId = "6DB8F2EA-3A56-43BC-93C3-749D7507B9DF";
paths = (
{
closed = 1;
nodes = (
"668 29 OFFCURVE",
"715 62 OFFCURVE",
"715 141 CURVE SMOOTH",
"715 220 OFFCURVE",
"669 250 OFFCURVE",
"612 250 CURVE SMOOTH",
"549 250 OFFCURVE",
"512 213 OFFCURVE",
"512 141 CURVE SMOOTH",
"512 61 OFFCURVE",
"556 29 OFFCURVE",
"612 29 CURVE SMOOTH"
);
},
{
closed = 1;
nodes = (
"268 29 OFFCURVE",
"305 69 OFFCURVE",
"305 141 CURVE SMOOTH",
"305 214 OFFCURVE",
"266 250 OFFCURVE",
"203 250 CURVE SMOOTH",
"146 250 OFFCURVE",
"102 220 OFFCURVE",
"102 141 CURVE SMOOTH",
"102 62 OFFCURVE",
"147 29 OFFCURVE",
"203 29 CURVE SMOOTH"
);
}
);
width = 817;
}
);
note = twodotenleader;
unicode = 2025;
},
{
glyphname = ellipsis;
lastChange = "2016-11-30 01:16:01 +0000";
layers = (
{
layerId = "6DB8F2EA-3A56-43BC-93C3-749D7507B9DF";
paths = (
{
closed = 1;
nodes = (
"668 29 OFFCURVE",
"715 62 OFFCURVE",
"715 141 CURVE SMOOTH",
"715 220 OFFCURVE",
"669 250 OFFCURVE",
"612 250 CURVE SMOOTH",
"549 250 OFFCURVE",
"512 213 OFFCURVE",
"512 141 CURVE SMOOTH",
"512 61 OFFCURVE",
"556 29 OFFCURVE",
"612 29 CURVE SMOOTH"
);
},
{
closed = 1;
nodes = (
"268 29 OFFCURVE",
"305 69 OFFCURVE",
"305 141 CURVE SMOOTH",
"305 214 OFFCURVE",
"266 250 OFFCURVE",
"203 250 CURVE SMOOTH",
"146 250 OFFCURVE",
"102 220 OFFCURVE",
"102 141 CURVE SMOOTH",
"102 62 OFFCURVE",
"147 29 OFFCURVE",
"203 29 CURVE SMOOTH"
);
},
{
closed = 1;
nodes = (
"1087 29 OFFCURVE",
"1124 69 OFFCURVE",
"1124 141 CURVE SMOOTH",
"1124 214 OFFCURVE",
"1085 250 OFFCURVE",
"1022 250 CURVE SMOOTH",
"959 250 OFFCURVE",
"922 213 OFFCURVE",
"922 141 CURVE SMOOTH",
"922 61 OFFCURVE",
"966 29 OFFCURVE",
"1022 29 CURVE SMOOTH"
);
}
);
width = 1227;
}
);
note = ellipsis;
unicode = 2026;
},
{
glyphname = uni3007;
lastChange = "2016-11-30 01:16:01 +0000";
layers = (
{
layerId = "6DB8F2EA-3A56-43BC-93C3-749D7507B9DF";
paths = (
{
closed = 1;
nodes = (
"960 -54 OFFCURVE",
"1085 -21 OFFCURVE",
"1200 46 CURVE SMOOTH",
"1431 179 OFFCURVE",
"1575 427 OFFCURVE",
"1575 692 CURVE SMOOTH",
"1575 825 OFFCURVE",
"1542 949 OFFCURVE",
"1475 1066 CURVE SMOOTH",
"1341 1298 OFFCURVE",
"1091 1441 OFFCURVE",
"826 1441 CURVE SMOOTH",
"693 1441 OFFCURVE",
"569 1407 OFFCURVE",
"454 1340 CURVE SMOOTH",
"222 1205 OFFCURVE",
"80 960 OFFCURVE",
"80 692 CURVE SMOOTH",
"80 557 OFFCURVE",
"114 433 OFFCURVE",
"181 319 CURVE SMOOTH",
"315 90 OFFCURVE",
"557 -54 OFFCURVE",
"826 -54 CURVE SMOOTH"
);
},
{
closed = 1;
nodes = (
"495 88 OFFCURVE",
"222 361 OFFCURVE",
"222 693 CURVE SMOOTH",
"222 1024 OFFCURVE",
"494 1299 OFFCURVE",
"827 1299 CURVE SMOOTH",
"1159 1299 OFFCURVE",
"1433 1025 OFFCURVE",
"1433 693 CURVE SMOOTH",
"1433 360 OFFCURVE",
"1158 88 OFFCURVE",
"827 88 CURVE SMOOTH"
);
}
);
width = 1655;
}
);
note = uni3007;
unicode = 3007;
},
{
glyphname = uni3008;
lastChange = "2016-11-30 01:16:01 +0000";
layers = (
{
layerId = "6DB8F2EA-3A56-43BC-93C3-749D7507B9DF";
paths = (
{
closed = 1;
nodes = (
"1070 -265 LINE",
"692 629 LINE",
"1039 1458 LINE",
"874 1458 LINE",
"530 629 LINE",
"905 -265 LINE"
);
}
);
width = 1200;
}
);
note = uni3008;
unicode = 3008;
},
{
glyphname = uni3009;
lastChange = "2016-11-30 01:16:01 +0000";
layers = (
{
layerId = "6DB8F2EA-3A56-43BC-93C3-749D7507B9DF";
paths = (
{
closed = 1;
nodes = (
"295 -265 LINE",
"670 629 LINE",
"326 1458 LINE",
"161 1458 LINE",
"508 629 LINE",
"130 -265 LINE"
);
}
);
width = 1200;
}
);
note = uni3009;
unicode = 3009;
},
{
glyphname = uni300A;
lastChange = "2016-11-30 01:16:01 +0000";
layers = (
{
layerId = "6DB8F2EA-3A56-43BC-93C3-749D7507B9DF";
paths = (
{
closed = 1;
nodes = (
"1290 -265 LINE",
"912 629 LINE",
"1259 1458 LINE",
"1094 1458 LINE",
"750 629 LINE",
"1125 -265 LINE"
);
},
{
closed = 1;
nodes = (
"970 -265 LINE",
"592 629 LINE",
"939 1458 LINE",
"774 1458 LINE",
"430 629 LINE",
"805 -265 LINE"
);
}
);
width = 1390;
}
);
note = uni300A;
unicode = 300A;
},
{
glyphname = uni300B;
lastChange = "2016-11-30 01:16:01 +0000";
layers = (
{
layerId = "6DB8F2EA-3A56-43BC-93C3-749D7507B9DF";
paths = (
{
closed = 1;
nodes = (
"585 -265 LINE",
"960 629 LINE",
"616 1458 LINE",
"451 1458 LINE",
"798 629 LINE",
"420 -265 LINE"
);
},
{
closed = 1;
nodes = (
"265 -265 LINE",
"640 629 LINE",
"296 1458 LINE",
"131 1458 LINE",
"478 629 LINE",
"100 -265 LINE"
);
}
);
width = 1390;
}
);
note = uni300B;
unicode = 300B;
},
{
glyphname = uni300C;
lastChange = "2016-11-30 01:16:01 +0000";
layers = (
{
layerId = "6DB8F2EA-3A56-43BC-93C3-749D7507B9DF";
paths = (
{
closed = 1;
nodes = (
"752 -200 LINE",
"752 1314 LINE",
"1090 1314 LINE",
"1090 1458 LINE",
"600 1458 LINE",
"600 -200 LINE"
);
}
);
width = 1200;
}
);
note = uni300C;
unicode = 300C;
},
{
glyphname = uni300D;
lastChange = "2016-11-30 01:16:01 +0000";
layers = (
{
layerId = "6DB8F2EA-3A56-43BC-93C3-749D7507B9DF";
paths = (
{
closed = 1;
nodes = (
"600 -200 LINE",
"600 1458 LINE",
"448 1458 LINE",
"448 -56 LINE",
"110 -56 LINE",
"110 -200 LINE"
);
}
);
width = 1200;
}
);
note = uni300D;
unicode = 300D;
},
{
glyphname = uni300E;
lastChange = "2016-11-30 01:16:01 +0000";
layers = (
{
layerId = "6DB8F2EA-3A56-43BC-93C3-749D7507B9DF";
paths = (
{
closed = 1;
nodes = (
"865 -200 LINE",
"865 1118 LINE",
"1150 1118 LINE",
"1150 1458 LINE",
"500 1458 LINE",
"500 -200 LINE"
);
},
{
closed = 1;
nodes = (
"625 1343 LINE",
"1025 1343 LINE",
"1025 1233 LINE",
"740 1233 LINE",
"740 -85 LINE",
"625 -85 LINE"
);
}
);
width = 1250;
}
);
note = uni300E;
unicode = 300E;
},
{
glyphname = uni300F;
lastChange = "2016-11-30 01:16:01 +0000";
layers = (
{
layerId = "6DB8F2EA-3A56-43BC-93C3-749D7507B9DF";
paths = (
{
closed = 1;
nodes = (
"750 -200 LINE",
"750 1458 LINE",
"385 1458 LINE",
"385 140 LINE",
"100 140 LINE",
"100 -200 LINE"
);
},
{
closed = 1;
nodes = (
"225 25 LINE",
"510 25 LINE",
"510 1343 LINE",
"625 1343 LINE",
"625 -85 LINE",
"225 -85 LINE"
);
}
);
width = 1250;
}
);
note = uni300F;
unicode = 300F;
},
{
glyphname = uni3010;
lastChange = "2016-11-30 01:16:01 +0000";
layers = (
{
layerId = "6DB8F2EA-3A56-43BC-93C3-749D7507B9DF";
paths = (
{
closed = 1;
nodes = (
"1085 -199 LINE",
"830 50 OFFCURVE",
"702 335 OFFCURVE",
"702 655 CURVE SMOOTH",
"702 972 OFFCURVE",
"848 1265 OFFCURVE",
"1100 1458 CURVE",
"500 1458 LINE",
"500 -199 LINE"
);
}
);
width = 1200;
}
);
note = uni3010;
unicode = 3010;
},
{
glyphname = uni3011;
lastChange = "2016-11-30 01:16:01 +0000";
layers = (
{
layerId = "6DB8F2EA-3A56-43BC-93C3-749D7507B9DF";
paths = (
{
closed = 1;
nodes = (
"700 -199 LINE",
"700 1458 LINE",
"100 1458 LINE",
"352 1265 OFFCURVE",
"498 972 OFFCURVE",
"498 655 CURVE SMOOTH",
"498 335 OFFCURVE",
"370 50 OFFCURVE",
"115 -199 CURVE"
);
}
);
width = 1200;
}
);
note = uni3011;
unicode = 3011;
},
{
glyphname = uni3016;
lastChange = "2016-11-30 01:16:01 +0000";
layers = (
{
layerId = "6DB8F2EA-3A56-43BC-93C3-749D7507B9DF";
paths = (
{
closed = 1;
nodes = (
"1127 -199 LINE",
"964 -23 OFFCURVE",
"861 291 OFFCURVE",
"861 607 CURVE SMOOTH",
"861 930 OFFCURVE",
"981 1278 OFFCURVE",
"1150 1458 CURVE",
"500 1458 LINE",
"500 -199 LINE"
);
},
{
closed = 1;
nodes = (
"620 1343 LINE",
"924 1343 LINE",
"809 1167 OFFCURVE",
"736 871 OFFCURVE",
"736 604 CURVE SMOOTH",
"736 349 OFFCURVE",
"803 69 OFFCURVE",
"904 -84 CURVE",
"620 -84 LINE"
);
}
);
width = 1250;
}
);
note = uni3016;
unicode = 3016;
},
{
glyphname = uni3017;
lastChange = "2016-11-30 01:16:01 +0000";
layers = (
{
layerId = "6DB8F2EA-3A56-43BC-93C3-749D7507B9DF";
paths = (
{
closed = 1;
nodes = (
"750 -199 LINE",
"750 1458 LINE",
"100 1458 LINE",
"269 1278 OFFCURVE",
"389 930 OFFCURVE",
"389 607 CURVE SMOOTH",
"389 291 OFFCURVE",
"286 -23 OFFCURVE",
"123 -199 CURVE"
);
},
{
closed = 1;
nodes = (
"447 69 OFFCURVE",
"514 349 OFFCURVE",
"514 604 CURVE SMOOTH",
"514 871 OFFCURVE",
"441 1167 OFFCURVE",
"326 1343 CURVE",
"630 1343 LINE",
"630 -84 LINE",
"346 -84 LINE"
);
}
);
width = 1250;
}
);
note = uni3017;
unicode = 3017;
},
{
glyphname = uni3018;
lastChange = "2016-11-30 01:16:01 +0000";
layers = (
{
layerId = "6DB8F2EA-3A56-43BC-93C3-749D7507B9DF";
paths = (
{
closed = 1;
nodes = (
"1050 -100 LINE",
"912 -21 LINE",
"912 1279 LINE",
"1050 1358 LINE",
"986 1458 LINE",
"550 1213 LINE",
"550 45 LINE",
"986 -200 LINE"
);
},
{
closed = 1;
nodes = (
"670 111 LINE",
"670 1147 LINE",
"792 1210 LINE",
"792 48 LINE"
);
}
);
width = 1200;
}
);
note = uni3018;
unicode = 3018;
},
{
glyphname = uni3019;
lastChange = "2016-11-30 01:16:01 +0000";
layers = (
{
layerId = "6DB8F2EA-3A56-43BC-93C3-749D7507B9DF";
paths = (
{
closed = 1;
nodes = (
"650 45 LINE",
"650 1213 LINE",
"214 1458 LINE",
"150 1358 LINE",
"288 1279 LINE",
"288 -21 LINE",
"150 -100 LINE",
"214 -200 LINE"
);
},
{
closed = 1;
nodes = (
"408 1210 LINE",
"530 1147 LINE",
"530 111 LINE",
"408 48 LINE"
);
}
);
width = 1200;
}
);
note = uni3019;
unicode = 3019;
},
{
glyphname = uni301A;
lastChange = "2016-11-30 01:16:01 +0000";
layers = (
{
layerId = "6DB8F2EA-3A56-43BC-93C3-749D7507B9DF";
paths = (
{
closed = 1;
nodes = (
"1060 -200 LINE",
"1060 -70 LINE",
"865 -70 LINE",
"865 1328 LINE",
"1060 1328 LINE",
"1060 1458 LINE",
"500 1458 LINE",
"500 -200 LINE"
);
},
{
closed = 1;
nodes = (
"625 1328 LINE",
"740 1328 LINE",
"740 -70 LINE",
"625 -70 LINE"
);
}
);
width = 1200;
}
);
note = uni301A;
unicode = 301A;
},
{
glyphname = uni301B;
lastChange = "2016-11-30 01:16:01 +0000";
layers = (
{
layerId = "6DB8F2EA-3A56-43BC-93C3-749D7507B9DF";
paths = (
{
closed = 1;
nodes = (
"700 -200 LINE",
"700 1458 LINE",
"140 1458 LINE",
"140 1328 LINE",
"335 1328 LINE",
"335 -70 LINE",
"140 -70 LINE",
"140 -200 LINE"
);
},
{
closed = 1;
nodes = (
"460 1328 LINE",
"575 1328 LINE",
"575 -70 LINE",
"460 -70 LINE"
);
}
);
width = 1200;
}
);
note = uni301B;
unicode = 301B;
},
{
glyphname = uni200E;
lastChange = "2016-11-30 01:16:01 +0000";
layers = (
{
layerId = "6DB8F2EA-3A56-43BC-93C3-749D7507B9DF";
paths = (
{
closed = 1;
nodes = (
"35 0 LINE",
"35 1234 LINE",
"301 1234 LINE",
"164 1104 LINE",
"213 1055 LINE",
"430 1269 LINE",
"213 1484 LINE",
"164 1435 LINE",
"301 1305 LINE",
"-36 1305 LINE",
"-36 0 LINE"
);
}
);
width = 0;
}
);
note = uni200E;
unicode = 200E;
},
{
glyphname = uni200F;
lastChange = "2016-11-30 01:16:01 +0000";
layers = (
{
layerId = "6DB8F2EA-3A56-43BC-93C3-749D7507B9DF";
paths = (
{
closed = 1;
nodes = (
"35 0 LINE",
"35 1305 LINE",
"-302 1305 LINE",
"-165 1435 LINE",
"-214 1484 LINE",
"-431 1269 LINE",
"-214 1055 LINE",
"-165 1104 LINE",
"-302 1234 LINE",
"-36 1234 LINE",
"-36 0 LINE"
);
}
);
width = 0;
}
);
note = uni200F;
unicode = 200F;
},
{
glyphname = uni25CC;
lastChange = "2016-11-30 01:16:01 +0000";
layers = (
{
layerId = "6DB8F2EA-3A56-43BC-93C3-749D7507B9DF";
paths = (
{
closed = 1;
nodes = (
"1172 604 LINE",
"1161 703 OFFCURVE",
"1122 795 OFFCURVE",
"1057 880 CURVE",
"1003 823 LINE",
"1050 760 OFFCURVE",
"1080 687 OFFCURVE",
"1095 604 CURVE"
);
},
{
closed = 1;
nodes = (
"555 76 LINE",
"474 86 OFFCURVE",
"402 114 OFFCURVE",
"341 160 CURVE",
"284 105 LINE",
"370 42 OFFCURVE",
"460 6 OFFCURVE",
"555 -4 CURVE"
);
},
{
closed = 1;
nodes = (
"252 258 LINE",
"203 321 OFFCURVE",
"172 393 OFFCURVE",
"159 472 CURVE",
"80 472 LINE",
"93 375 OFFCURVE",
"131 286 OFFCURVE",
"194 203 CURVE"
);
},
{
closed = 1;
nodes = (
"788 5 OFFCURVE",
"878 42 OFFCURVE",
"960 105 CURVE",
"903 163 LINE",
"840 115 OFFCURVE",
"769 84 OFFCURVE",
"690 71 CURVE",
"690 -8 LINE"
);
},
{
closed = 1;
nodes = (
"159 604 LINE",
"170 682 OFFCURVE",
"199 754 OFFCURVE",
"246 820 CURVE",
"191 878 LINE",
"128 795 OFFCURVE",
"92 703 OFFCURVE",
"82 604 CURVE"
);
},
{
closed = 1;
nodes = (
"404 963 OFFCURVE",
"476 993 OFFCURVE",
"555 1006 CURVE",
"555 1086 LINE",
"458 1073 OFFCURVE",
"369 1035 OFFCURVE",
"286 972 CURVE",
"341 914 LINE"
);
},
{
closed = 1;
nodes = (
"1126 286 OFFCURVE",
"1163 377 OFFCURVE",
"1172 472 CURVE",
"1092 472 LINE",
"1082 395 OFFCURVE",
"1053 324 OFFCURVE",
"1006 258 CURVE",
"1063 200 LINE"
);
},
{
closed = 1;
nodes = (
"960 977 LINE",
"874 1040 OFFCURVE",
"784 1077 OFFCURVE",
"690 1086 CURVE",
"690 1006 LINE",
"768 996 OFFCURVE",
"840 967 OFFCURVE",
"906 920 CURVE"
);
}
);
width = 1252;
}
);
note = uni25CC;
unicode = 25CC;
},
{
glyphname = uni1801;
lastChange = "2016-11-30 01:16:01 +0000";
layers = (
{
layerId = "6DB8F2EA-3A56-43BC-93C3-749D7507B9DF";
paths = (
{
closed = 1;
nodes = (
"676 589 OFFCURVE",
"723 622 OFFCURVE",
"723 701 CURVE SMOOTH",
"723 780 OFFCURVE",
"677 810 OFFCURVE",
"620 810 CURVE SMOOTH",
"557 810 OFFCURVE",
"520 773 OFFCURVE",
"520 701 CURVE SMOOTH",
"520 621 OFFCURVE",
"564 589 OFFCURVE",
"620 589 CURVE SMOOTH"
);
},
{
closed = 1;
nodes = (
"276 589 OFFCURVE",
"313 629 OFFCURVE",
"313 701 CURVE SMOOTH",
"313 774 OFFCURVE",
"274 810 OFFCURVE",
"211 810 CURVE SMOOTH",
"154 810 OFFCURVE",
"110 780 OFFCURVE",
"110 701 CURVE SMOOTH",
"110 622 OFFCURVE",
"155 589 OFFCURVE",
"211 589 CURVE SMOOTH"
);
},
{
closed = 1;
nodes = (
"1095 589 OFFCURVE",
"1132 629 OFFCURVE",
"1132 701 CURVE SMOOTH",
"1132 774 OFFCURVE",
"1093 810 OFFCURVE",
"1030 810 CURVE SMOOTH",
"967 810 OFFCURVE",
"930 773 OFFCURVE",
"930 701 CURVE SMOOTH",
"930 621 OFFCURVE",
"974 589 OFFCURVE",
"1030 589 CURVE SMOOTH"
);
},
{
closed = 1;
nodes = (
"1504 589 OFFCURVE",
"1541 629 OFFCURVE",
"1541 701 CURVE SMOOTH",
"1541 774 OFFCURVE",
"1502 810 OFFCURVE",
"1439 810 CURVE SMOOTH",
"1376 810 OFFCURVE",
"1339 773 OFFCURVE",
"1339 701 CURVE SMOOTH",
"1339 621 OFFCURVE",
"1383 589 OFFCURVE",
"1439 589 CURVE SMOOTH"
);
}
);
width = 1651;
}
);
note = uni1801;
unicode = 1801;
},
